<svg xmlns="http://www.w3.org/2000/svg" version="1.1" xmlns:xlink="http://www.w3.org/1999/xlink" xmlns:svgjs="http://svgjs.com/svgjs" width="1290" height="2796" preserveAspectRatio="none" viewBox="0 0 1290 2796"><g mask="url(&quot;#SvgjsMask1053&quot;)" fill="none"><rect width="1290" height="2796" x="0" y="0" fill="rgba(255, 255, 255, 1)"></rect><path d="M123.749,523.545C226.634,530.543,334.459,500.235,390.72,413.811C451.756,320.053,457.159,196.327,398.967,100.778C342.77,8.504,231.761,-27.024,123.749,-24.547C20.534,-22.18,-82.869,21.29,-130.437,112.921C-175.193,199.136,-138.075,298.723,-86.946,381.319C-39.144,458.54,33.139,517.382,123.749,523.545" fill="rgba(219, 219, 219, 0.4)" class="triangle-float3"></path><path d="M466.299,1397.152C571.026,1401.246,678.02,1362.741,732.067,1272.945C787.607,1180.668,776.745,1064.629,722.409,971.638C668.588,879.529,572.967,819.805,466.299,818.108C356.599,816.363,247.28,866.44,195.674,963.259C146.474,1055.565,178.885,1164.732,234.24,1253.483C285.843,1336.218,368.864,1393.343,466.299,1397.152" fill="rgba(219, 219, 219, 0.4)" class="triangle-float3"></path><path d="M1143.467,626.445C1219.621,630.489,1291.092,587.483,1329.353,521.515C1367.744,455.324,1369.74,371.823,1328.55,307.336C1290.01,246.998,1215.01,227.738,1143.467,230.491C1077.288,233.038,1014.153,263.063,981.517,320.692C949.318,377.549,958.311,445.695,988.895,503.436C1021.93,565.803,1072.99,622.702,1143.467,626.445" fill="rgba(219, 219, 219, 0.4)" class="triangle-float1"></path><path d="M479.063,1702.762C551.611,1700.976,593.062,1627.563,626.716,1563.268C657.164,1505.098,678.23,1438.788,647.648,1380.688C615.204,1319.051,548.717,1282.933,479.063,1282.761C409.11,1282.588,343.123,1318.769,309.03,1379.851C275.733,1439.508,286.428,1510.409,318.26,1570.86C352.88,1636.606,404.781,1704.59,479.063,1702.762" fill="rgba(219, 219, 219, 0.4)" class="triangle-float2"></path><path d="M705.498,462.437C742.926,464.703,774.764,438.238,794.033,406.071C813.932,372.851,825.152,330.515,803.917,298.133C783.919,267.637,741.963,270.58,705.498,271.063C670.288,271.529,628.984,270.119,611.49,300.679C594.053,331.141,616.134,366.02,633.771,396.367C651.277,426.489,670.722,460.331,705.498,462.437" fill="rgba(219, 219, 219, 0.4)" class="triangle-float3"></path><path d="M260.547,817.577C329.505,817.589,378.371,756.536,409.756,695.134C437.965,639.946,442.95,575.245,411.8,521.662C380.805,468.345,322.218,438.129,260.547,438.469C199.478,438.805,142.835,470.51,112.151,523.312C81.318,576.372,83.794,640.287,111.427,695.082C142.471,756.642,191.602,817.565,260.547,817.577" fill="rgba(219, 219, 219, 0.4)" class="triangle-float3"></path><path d="M183.704,2414.067C295.428,2409.968,399.556,2359.83,458.888,2265.074C522.265,2163.858,540.813,2037.786,485.629,1931.88C426.299,1818.016,312.098,1736.759,183.704,1736.954C55.607,1737.149,-53.319,1821.44,-116.632,1932.797C-179.15,2042.756,-195.789,2179.326,-128.823,2286.634C-64.986,2388.929,63.205,2418.488,183.704,2414.067" fill="rgba(219, 219, 219, 0.4)" class="triangle-float3"></path><path d="M590.233,2090.675C628.898,2093.57,672.309,2090.311,693.719,2057.985C716.813,2023.117,712.67,1975.73,689.363,1941.004C668.282,1909.594,628.053,1904.612,590.233,1903.796C550.321,1902.935,503.108,1901.84,483.403,1936.559C463.816,1971.068,487.899,2011.658,510.504,2044.269C529.28,2071.356,557.367,2088.215,590.233,2090.675" fill="rgba(219, 219, 219, 0.4)" class="triangle-float2"></path><path d="M215.767,3258.176C344.354,3261.089,480.684,3226.905,546.751,3116.55C614.248,3003.806,594.307,2858.203,520.177,2749.706C454.406,2653.443,332.289,2628.25,215.767,2632.122C107.297,2635.726,3.704,2677.882,-55.51,2768.835C-120.827,2869.162,-148.263,2997.416,-90.219,3102.118C-30.72,3209.444,93.083,3255.396,215.767,3258.176" fill="rgba(219, 219, 219, 0.4)" class="triangle-float2"></path><path d="M1369.328,1022.995C1469.121,1021.222,1582.141,1013.995,1631.847,927.444C1681.435,841.098,1629.805,740.447,1581.644,653.297C1531.134,561.898,1473.574,458.559,1369.328,452.406C1257.755,445.82,1164.445,528.531,1108.656,625.379C1052.974,722.04,1028.977,843.777,1090.138,937.068C1147.356,1024.346,1264.982,1024.849,1369.328,1022.995" fill="rgba(219, 219, 219, 0.4)" class="triangle-float1"></path></g><defs><mask id="SvgjsMask1053"><rect width="1290" height="2796" fill="#ffffff"></rect></mask><style>
            @keyframes float1 {
                0%{transform: translate(0, 0)}
                50%{transform: translate(-10px, 0)}
                100%{transform: translate(0, 0)}
            }

            .triangle-float1 {
                animation: float1 5s infinite;
            }

            @keyframes float2 {
                0%{transform: translate(0, 0)}
                50%{transform: translate(-5px, -5px)}
                100%{transform: translate(0, 0)}
            }

            .triangle-float2 {
                animation: float2 4s infinite;
            }

            @keyframes float3 {
                0%{transform: translate(0, 0)}
                50%{transform: translate(0, -10px)}
                100%{transform: translate(0, 0)}
            }

            .triangle-float3 {
                animation: float3 6s infinite;
            }
        </style></defs></svg>