<?xml version="1.0" encoding="UTF-8" standalone="no" ?>
<!DOCTYPE svg PUBLIC "-//W3C//DTD SVG 1.1//EN" "http://www.w3.org/Graphics/SVG/1.1/DTD/svg11.dtd">
<svg xmlns="http://www.w3.org/2000/svg" xmlns:xlink="http://www.w3.org/1999/xlink" version="1.1" width="640" height="480" viewBox="0 0 640 480" xml:space="preserve">
<desc>Created with Fabric.js 3.6.6</desc>
<defs>
</defs>
<g transform="matrix(0.56 0 0 0.56 328.06 234.6)"  >
<g style=""   >
		<g transform="matrix(1 0 0 1 16.5 -58.21)"  >
<path style="stroke: none; stroke-width: 1; stroke-dasharray: none; stroke-linecap: butt; stroke-dashoffset: 0; stroke-linejoin: miter; stroke-miterlimit: 4; fill: rgb(60,185,255); fill-rule: nonzero; opacity: 0.1;"  transform=" translate(-616.5, -391.79)" d="M 1169.87 387.2 c -6.95 28.15 -42.63 42.26 -62.62 63.26 c -37.67 39.58 -23 97.38 0.9 143.67 c 8 15.5 17.08 31.91 13.69 48.53 c -4.13 20.33 -26.08 35.19 -49.13 43.07 c -42 14.35 -92.3 10.93 -130.91 -8.92 c -33.36 -17.15 -57.26 -45 -91.19 -61.42 c -56.79 -27.39 -129.07 -17 -190.74 1.83 C 616.25 630.57 568.55 647.94 525.2 634 c -30.5 -9.82 -51.59 -33.72 -63.08 -59 c -5.54 -12.23 -9.57 -25.47 -20.16 -35.16 c -6.3 -5.77 -14.52 -9.86 -22.93 -13.3 c -76.88 -31.5 -174 -14.63 -248.63 -49.57 c -50.42 -23.59 -82.71 -68.09 -97 -114.5 s -12.63 -95.07 -9 -142.87 c 2.58 -34 7.21 -70.22 33.47 -96.44 c 27.78 -27.73 75.45 -38 118.55 -32.77 s 82.15 24.06 116.52 46.18 c 43 27.66 82.78 62.09 135.51 73.29 c 35.91 7.63 73.68 3.45 110.72 2 c 61.92 -2.41 123.86 3 185.43 8.84 c 30 2.87 60.1 5.88 89.84 10.24 q 10 1.46 20 3.15 c 3.34 0.57 6.68 1.16 10 1.77 c 2.6 0.47 5.19 1 7.78 1.47 q 6.13 1.19 12.22 2.5 c 11.66 2.5 23.21 5.33 34.64 8.55 c 39.74 11.21 71.6 31.57 109.13 45.79 c 24.46 9.27 51.13 11.83 74.29 23.63 C 1151 332.29 1177.18 357.6 1169.87 387.2 Z" stroke-linecap="round" />
</g>
		<g transform="matrix(1 0 0 1 368.84 -15.04)"  >
<circle style="stroke: none; stroke-width: 1; stroke-dasharray: none; stroke-linecap: butt; stroke-dashoffset: 0; stroke-linejoin: miter; stroke-miterlimit: 4; fill: rgb(60,185,255); fill-rule: nonzero; opacity: 1;"  cx="0" cy="0" r="102.23" />
</g>
		<g transform="matrix(1 0 0 1 260.12 -42.97)"  >
<circle style="stroke: none; stroke-width: 1; stroke-dasharray: none; stroke-linecap: butt; stroke-dashoffset: 0; stroke-linejoin: miter; stroke-miterlimit: 4; fill: rgb(60,185,255); fill-rule: nonzero; opacity: 1;"  cx="0" cy="0" r="102.23" />
</g>
		<g transform="matrix(1 0 0 1 140.43 -41.97)"  >
<circle style="stroke: none; stroke-width: 1; stroke-dasharray: none; stroke-linecap: butt; stroke-dashoffset: 0; stroke-linejoin: miter; stroke-miterlimit: 4; fill: rgb(60,185,255); fill-rule: nonzero; opacity: 1;"  cx="0" cy="0" r="102.23" />
</g>
		<g transform="matrix(1 0 0 1 101.53 -15.04)"  >
<circle style="stroke: none; stroke-width: 1; stroke-dasharray: none; stroke-linecap: butt; stroke-dashoffset: 0; stroke-linejoin: miter; stroke-miterlimit: 4; fill: rgb(60,185,255); fill-rule: nonzero; opacity: 1;"  cx="0" cy="0" r="102.23" />
</g>
		<g transform="matrix(1 0 0 1 35.71 -6.06)"  >
<circle style="stroke: none; stroke-width: 1; stroke-dasharray: none; stroke-linecap: butt; stroke-dashoffset: 0; stroke-linejoin: miter; stroke-miterlimit: 4; fill: rgb(60,185,255); fill-rule: nonzero; opacity: 1;"  cx="0" cy="0" r="102.23" />
</g>
		<g transform="matrix(1 0 0 1 8.77 -86.85)"  >
<circle style="stroke: none; stroke-width: 1; stroke-dasharray: none; stroke-linecap: butt; stroke-dashoffset: 0; stroke-linejoin: miter; stroke-miterlimit: 4; fill: rgb(60,185,255); fill-rule: nonzero; opacity: 1;"  cx="0" cy="0" r="102.23" />
</g>
		<g transform="matrix(1 0 0 1 38.69 -180.61)"  >
<circle style="stroke: none; stroke-width: 1; stroke-dasharray: none; stroke-linecap: butt; stroke-dashoffset: 0; stroke-linejoin: miter; stroke-miterlimit: 4; fill: rgb(60,185,255); fill-rule: nonzero; opacity: 1;"  cx="0" cy="0" r="102.23" />
</g>
		<g transform="matrix(1 0 0 1 95.54 -180.61)"  >
<circle style="stroke: none; stroke-width: 1; stroke-dasharray: none; stroke-linecap: butt; stroke-dashoffset: 0; stroke-linejoin: miter; stroke-miterlimit: 4; fill: rgb(60,185,255); fill-rule: nonzero; opacity: 1;"  cx="0" cy="0" r="102.23" />
</g>
		<g transform="matrix(1 0 0 1 128.47 -222.5)"  >
<circle style="stroke: none; stroke-width: 1; stroke-dasharray: none; stroke-linecap: butt; stroke-dashoffset: 0; stroke-linejoin: miter; stroke-miterlimit: 4; fill: rgb(60,185,255); fill-rule: nonzero; opacity: 1;"  cx="0" cy="0" r="102.23" />
</g>
		<g transform="matrix(1 0 0 1 212.25 -176.62)"  >
<circle style="stroke: none; stroke-width: 1; stroke-dasharray: none; stroke-linecap: butt; stroke-dashoffset: 0; stroke-linejoin: miter; stroke-miterlimit: 4; fill: rgb(60,185,255); fill-rule: nonzero; opacity: 1;"  cx="0" cy="0" r="102.23" />
</g>
		<g transform="matrix(1 0 0 1 407.74 -86.85)"  >
<circle style="stroke: none; stroke-width: 1; stroke-dasharray: none; stroke-linecap: butt; stroke-dashoffset: 0; stroke-linejoin: miter; stroke-miterlimit: 4; fill: rgb(60,185,255); fill-rule: nonzero; opacity: 1;"  cx="0" cy="0" r="102.23" />
</g>
		<g transform="matrix(1 0 0 1 348.88 -137.71)"  >
<circle style="stroke: none; stroke-width: 1; stroke-dasharray: none; stroke-linecap: butt; stroke-dashoffset: 0; stroke-linejoin: miter; stroke-miterlimit: 4; fill: rgb(60,185,255); fill-rule: nonzero; opacity: 1;"  cx="0" cy="0" r="102.23" />
</g>
		<g transform="matrix(1 0 0 1 310.99 -188.58)"  >
<circle style="stroke: none; stroke-width: 1; stroke-dasharray: none; stroke-linecap: butt; stroke-dashoffset: 0; stroke-linejoin: miter; stroke-miterlimit: 4; fill: rgb(60,185,255); fill-rule: nonzero; opacity: 1;"  cx="0" cy="0" r="102.23" />
</g>
		<g transform="matrix(1 0 0 1 239.17 -265.38)"  >
<circle style="stroke: none; stroke-width: 1; stroke-dasharray: none; stroke-linecap: butt; stroke-dashoffset: 0; stroke-linejoin: miter; stroke-miterlimit: 4; fill: rgb(60,185,255); fill-rule: nonzero; opacity: 1;"  cx="0" cy="0" r="102.23" />
</g>
		<g transform="matrix(1 0 0 1 372.83 -180.61)"  >
<circle style="stroke: none; stroke-width: 1; stroke-dasharray: none; stroke-linecap: butt; stroke-dashoffset: 0; stroke-linejoin: miter; stroke-miterlimit: 4; fill: rgb(60,185,255); fill-rule: nonzero; opacity: 1;"  cx="0" cy="0" r="102.23" />
</g>
		<g transform="matrix(1 0 0 1 368.84 -15.04)"  >
<circle style="stroke: none; stroke-width: 1; stroke-dasharray: none; stroke-linecap: butt; stroke-dashoffset: 0; stroke-linejoin: miter; stroke-miterlimit: 4; fill: rgb(0,0,0); fill-rule: nonzero; opacity: 0.1;"  cx="0" cy="0" r="102.23" />
</g>
		<g transform="matrix(1 0 0 1 260.12 -42.97)"  >
<circle style="stroke: none; stroke-width: 1; stroke-dasharray: none; stroke-linecap: butt; stroke-dashoffset: 0; stroke-linejoin: miter; stroke-miterlimit: 4; fill: rgb(0,0,0); fill-rule: nonzero; opacity: 0.1;"  cx="0" cy="0" r="102.23" />
</g>
		<g transform="matrix(1 0 0 1 140.43 -41.97)"  >
<circle style="stroke: none; stroke-width: 1; stroke-dasharray: none; stroke-linecap: butt; stroke-dashoffset: 0; stroke-linejoin: miter; stroke-miterlimit: 4; fill: rgb(0,0,0); fill-rule: nonzero; opacity: 0.1;"  cx="0" cy="0" r="102.23" />
</g>
		<g transform="matrix(1 0 0 1 101.53 -15.04)"  >
<circle style="stroke: none; stroke-width: 1; stroke-dasharray: none; stroke-linecap: butt; stroke-dashoffset: 0; stroke-linejoin: miter; stroke-miterlimit: 4; fill: rgb(0,0,0); fill-rule: nonzero; opacity: 0.1;"  cx="0" cy="0" r="102.23" />
</g>
		<g transform="matrix(1 0 0 1 35.71 -6.06)"  >
<circle style="stroke: none; stroke-width: 1; stroke-dasharray: none; stroke-linecap: butt; stroke-dashoffset: 0; stroke-linejoin: miter; stroke-miterlimit: 4; fill: rgb(0,0,0); fill-rule: nonzero; opacity: 0.1;"  cx="0" cy="0" r="102.23" />
</g>
		<g transform="matrix(1 0 0 1 8.77 -86.85)"  >
<circle style="stroke: none; stroke-width: 1; stroke-dasharray: none; stroke-linecap: butt; stroke-dashoffset: 0; stroke-linejoin: miter; stroke-miterlimit: 4; fill: rgb(0,0,0); fill-rule: nonzero; opacity: 0.1;"  cx="0" cy="0" r="102.23" />
</g>
		<g transform="matrix(1 0 0 1 38.69 -180.61)"  >
<circle style="stroke: none; stroke-width: 1; stroke-dasharray: none; stroke-linecap: butt; stroke-dashoffset: 0; stroke-linejoin: miter; stroke-miterlimit: 4; fill: rgb(0,0,0); fill-rule: nonzero; opacity: 0.1;"  cx="0" cy="0" r="102.23" />
</g>
		<g transform="matrix(1 0 0 1 95.54 -180.61)"  >
<circle style="stroke: none; stroke-width: 1; stroke-dasharray: none; stroke-linecap: butt; stroke-dashoffset: 0; stroke-linejoin: miter; stroke-miterlimit: 4; fill: rgb(0,0,0); fill-rule: nonzero; opacity: 0.1;"  cx="0" cy="0" r="102.23" />
</g>
		<g transform="matrix(1 0 0 1 128.47 -222.5)"  >
<circle style="stroke: none; stroke-width: 1; stroke-dasharray: none; stroke-linecap: butt; stroke-dashoffset: 0; stroke-linejoin: miter; stroke-miterlimit: 4; fill: rgb(0,0,0); fill-rule: nonzero; opacity: 0.1;"  cx="0" cy="0" r="102.23" />
</g>
		<g transform="matrix(1 0 0 1 212.25 -176.62)"  >
<circle style="stroke: none; stroke-width: 1; stroke-dasharray: none; stroke-linecap: butt; stroke-dashoffset: 0; stroke-linejoin: miter; stroke-miterlimit: 4; fill: rgb(0,0,0); fill-rule: nonzero; opacity: 0.1;"  cx="0" cy="0" r="102.23" />
</g>
		<g transform="matrix(1 0 0 1 407.74 -86.85)"  >
<circle style="stroke: none; stroke-width: 1; stroke-dasharray: none; stroke-linecap: butt; stroke-dashoffset: 0; stroke-linejoin: miter; stroke-miterlimit: 4; fill: rgb(0,0,0); fill-rule: nonzero; opacity: 0.1;"  cx="0" cy="0" r="102.23" />
</g>
		<g transform="matrix(1 0 0 1 348.88 -137.71)"  >
<circle style="stroke: none; stroke-width: 1; stroke-dasharray: none; stroke-linecap: butt; stroke-dashoffset: 0; stroke-linejoin: miter; stroke-miterlimit: 4; fill: rgb(0,0,0); fill-rule: nonzero; opacity: 0.1;"  cx="0" cy="0" r="102.23" />
</g>
		<g transform="matrix(1 0 0 1 310.99 -188.58)"  >
<circle style="stroke: none; stroke-width: 1; stroke-dasharray: none; stroke-linecap: butt; stroke-dashoffset: 0; stroke-linejoin: miter; stroke-miterlimit: 4; fill: rgb(0,0,0); fill-rule: nonzero; opacity: 0.1;"  cx="0" cy="0" r="102.23" />
</g>
		<g transform="matrix(1 0 0 1 239.17 -265.38)"  >
<circle style="stroke: none; stroke-width: 1; stroke-dasharray: none; stroke-linecap: butt; stroke-dashoffset: 0; stroke-linejoin: miter; stroke-miterlimit: 4; fill: rgb(0,0,0); fill-rule: nonzero; opacity: 0.1;"  cx="0" cy="0" r="102.23" />
</g>
		<g transform="matrix(1 0 0 1 372.83 -180.61)"  >
<circle style="stroke: none; stroke-width: 1; stroke-dasharray: none; stroke-linecap: butt; stroke-dashoffset: 0; stroke-linejoin: miter; stroke-miterlimit: 4; fill: rgb(0,0,0); fill-rule: nonzero; opacity: 0.1;"  cx="0" cy="0" r="102.23" />
</g>
		<g transform="matrix(1 0 0 1 321.98 94.66)"  >
<path style="stroke: none; stroke-width: 1; stroke-dasharray: none; stroke-linecap: butt; stroke-dashoffset: 0; stroke-linejoin: miter; stroke-miterlimit: 4; fill: rgb(103,100,126); fill-rule: nonzero; opacity: 1;"  transform=" translate(-921.98, -544.66)" d="M 918.34 614.12 s 62.5 -52.53 31.58 -127.33 L 919 475.21 L 885.45 578.5 Z" stroke-linecap="round" />
</g>
		<g transform="matrix(1 0 0 1 308.59 91.1)"  >
<path style="stroke: none; stroke-width: 1; stroke-dasharray: none; stroke-linecap: butt; stroke-dashoffset: 0; stroke-linejoin: miter; stroke-miterlimit: 4; fill: rgb(0,0,0); fill-rule: nonzero; opacity: 0.1;"  transform=" translate(-908.59, -541.11)" d="M 921.67 471.65 l 7.4 2.77 L 896.13 575.83 l 28.74 31.12 c -2.38 2.37 -3.86 3.61 -3.86 3.61 l -32.9 -35.62 Z" stroke-linecap="round" />
</g>
		<g transform="matrix(1 0 0 1 8.38 297.39)"  >
<ellipse style="stroke: none; stroke-width: 1; stroke-dasharray: none; stroke-linecap: butt; stroke-dashoffset: 0; stroke-linejoin: miter; stroke-miterlimit: 4; fill: rgb(60,185,255); fill-rule: nonzero; opacity: 0.1;"  cx="0" cy="0" rx="556.5" ry="93.16" />
</g>
		<g transform="matrix(1 0 0 1 433.18 218.51)"  >
<path style="stroke: none; stroke-width: 1; stroke-dasharray: none; stroke-linecap: butt; stroke-dashoffset: 0; stroke-linejoin: miter; stroke-miterlimit: 4; fill: rgb(60,185,255); fill-rule: nonzero; opacity: 1;"  transform=" translate(-1033.18, -668.52)" d="M 1036.72 603.1 s -20.33 20.33 -8.85 50.5 s -19.67 80.33 -19.67 80.33 l 1 -0.16 c 41.75 -7.37 62.5 -55.12 39.28 -90.6 C 1039.8 630 1032.71 614.52 1036.72 603.1 Z" stroke-linecap="round" />
</g>
		<g transform="matrix(1 0 0 1 424.82 218.51)"  >
<path style="stroke: rgb(83,84,97); stroke-width: 1; stroke-dasharray: none; stroke-linecap: butt; stroke-dashoffset: 0; stroke-linejoin: miter; stroke-miterlimit: 10; fill: none; fill-rule: nonzero; opacity: 1;"  transform=" translate(-1024.81, -668.52)" d="M 1036.72 603.1 s -11.48 24.92 0 45.25 s 2 77.38 -28.53 85.58" stroke-linecap="round" />
</g>
		<g transform="matrix(1 0 0 1 437.97 262.42)"  >
<path style="stroke: none; stroke-width: 1; stroke-dasharray: none; stroke-linecap: butt; stroke-dashoffset: 0; stroke-linejoin: miter; stroke-miterlimit: 4; fill: rgb(60,185,255); fill-rule: nonzero; opacity: 1;"  transform=" translate(-1037.97, -712.43)" d="M 1072.93 685.33 s -23.2 -3.69 -25.31 17.1 S 1003 726.1 1003 726.1 l 0.8 0.53 c 35.09 23 68.63 14.67 63.57 -15.91 C 1065.5 699.35 1065.65 687.93 1072.93 685.33 Z" stroke-linecap="round" />
</g>
		<g transform="matrix(1 0 0 1 437.97 262.42)"  >
<path style="stroke: none; stroke-width: 1; stroke-dasharray: none; stroke-linecap: butt; stroke-dashoffset: 0; stroke-linejoin: miter; stroke-miterlimit: 4; fill: rgb(245,245,245); fill-rule: nonzero; opacity: 0.2;"  transform=" translate(-1037.97, -712.43)" d="M 1072.93 685.33 s -23.2 -3.69 -25.31 17.1 S 1003 726.1 1003 726.1 l 0.8 0.53 c 35.09 23 68.63 14.67 63.57 -15.91 C 1065.5 699.35 1065.65 687.93 1072.93 685.33 Z" stroke-linecap="round" />
</g>
		<g transform="matrix(1 0 0 1 437.98 258.55)"  >
<path style="stroke: rgb(83,84,97); stroke-width: 1; stroke-dasharray: none; stroke-linecap: butt; stroke-dashoffset: 0; stroke-linejoin: miter; stroke-miterlimit: 10; fill: none; fill-rule: nonzero; opacity: 1;"  transform=" translate(-1037.97, -708.55)" d="M 1072.93 685.33 s -18 4 -16.53 20.33 s -26.74 36 -53.39 20.44" stroke-linecap="round" />
</g>
		<g transform="matrix(1 0 0 1 242.42 127.02)"  >
<path style="stroke: none; stroke-width: 1; stroke-dasharray: none; stroke-linecap: butt; stroke-dashoffset: 0; stroke-linejoin: miter; stroke-miterlimit: 4; fill: rgb(103,100,126); fill-rule: nonzero; opacity: 1;"  transform=" translate(-842.41, -577.03)" d="M 636.08 504.71 l 8.12 32.5 s 57.37 7.48 95.62 2.78 a 49.72 49.72 0 0 0 19.07 -6.88 c 3.23 -1.91 8.33 -2.74 15.3 2.48 c 11.94 9 70.54 81 61.05 155.7 a 25.82 25.82 0 0 1 -22.17 22.24 h 0 a 77.86 77.86 0 0 0 -32.67 12.36 l -29 19.31 l 297.35 -6.5 l -30.87 -37.37 s -21.12 -17.87 -37.37 -19.5 c -4.74 -0.47 -8.65 -4.82 -11.81 -10.73 c -18.51 -34.65 -40.65 -67.23 -64.65 -98.34 c -17.48 -22.66 -32.15 -46.54 -30.78 -61.54 c 3.25 -35.75 0 -94.24 0 -94.24 l -61.74 -8.12 s 8.12 78 -66.62 97.49 S 636.08 504.71 636.08 504.71 Z" stroke-linecap="round" />
</g>
		<g transform="matrix(1 0 0 1 154.89 25.02)"  >
<path style="stroke: none; stroke-width: 1; stroke-dasharray: none; stroke-linecap: butt; stroke-dashoffset: 0; stroke-linejoin: miter; stroke-miterlimit: 4; fill: rgb(0,0,0); fill-rule: nonzero; opacity: 0.1;"  transform=" translate(-754.88, -475.03)" d="M 686.45 519.34 s 34.12 21.12 108.87 1.62 s 66.62 -97.49 66.62 -97.49 L 873.69 425 c -0.22 -5 -0.39 -8 -0.39 -8 l -61.74 -8.12 s 8.12 78 -66.62 97.49 s -108.87 -1.62 -108.87 -1.62 l 8.12 32.5 s 21.92 2.86 47.7 3.93 Z" stroke-linecap="round" />
</g>
		<g transform="matrix(1 0 0 1 219.03 195.72)"  >
<path style="stroke: none; stroke-width: 1; stroke-dasharray: none; stroke-linecap: butt; stroke-dashoffset: 0; stroke-linejoin: miter; stroke-miterlimit: 4; fill: rgb(0,0,0); fill-rule: nonzero; opacity: 0.1;"  transform=" translate(-819.03, -645.73)" d="M 830.77 740.51 a 77.86 77.86 0 0 1 32.67 -12.36 h 0 A 25.78 25.78 0 0 0 885.6 706 c 9.54 -74.7 -49.09 -146.83 -61 -155.79 c -13 -9.75 -19.5 1.62 -19.5 1.62 a 104.61 104.61 0 0 1 -14 2.67 c 21.06 28 51.19 81.71 44.14 136.87 a 25.78 25.78 0 0 1 -22.16 22.15 h 0 a 77.86 77.86 0 0 0 -32.67 12.36 l -29 19.31 l 74.76 -1.63 Z" stroke-linecap="round" />
</g>
		<g transform="matrix(1 0 0 1 86.86 178.7)"  >
<path style="stroke: rgb(83,84,97); stroke-width: 2; stroke-dasharray: none; stroke-linecap: butt; stroke-dashoffset: 0; stroke-linejoin: miter; stroke-miterlimit: 10; fill: none; fill-rule: nonzero; opacity: 1;"  transform=" translate(-686.85, -628.71)" d="M 685.84 662.36 s -6.21 -21.08 1.16 -36.6 a 33.3 33.3 0 0 0 2.69 -20.89 a 56 56 0 0 0 -3 -9.81" stroke-linecap="round" />
</g>
		<g transform="matrix(1 0 0 1 86.69 137.94)"  >
<path style="stroke: none; stroke-width: 1; stroke-dasharray: none; stroke-linecap: butt; stroke-dashoffset: 0; stroke-linejoin: miter; stroke-miterlimit: 4; fill: rgb(60,185,255); fill-rule: nonzero; opacity: 1;"  transform=" translate(-686.68, -587.95)" d="M 691.33 585.25 c 0 2.58 -4.68 10.08 -4.68 10.08 S 682 587.83 682 585.25 a 4.68 4.68 0 1 1 9.36 0 Z" stroke-linecap="round" />
</g>
		<g transform="matrix(1 0 0 1 94.79 148.85)"  >
<path style="stroke: none; stroke-width: 1; stroke-dasharray: none; stroke-linecap: butt; stroke-dashoffset: 0; stroke-linejoin: miter; stroke-miterlimit: 4; fill: rgb(60,185,255); fill-rule: nonzero; opacity: 1;"  transform=" translate(-694.79, -598.85)" d="M 699.07 599.56 c -1.4 2.17 -9.4 5.92 -9.4 5.92 s 0.15 -8.83 1.55 -11 a 4.68 4.68 0 1 1 7.85 5.09 Z" stroke-linecap="round" />
</g>
		<g transform="matrix(1 0 0 1 94.47 169.88)"  >
<path style="stroke: none; stroke-width: 1; stroke-dasharray: none; stroke-linecap: butt; stroke-dashoffset: 0; stroke-linejoin: miter; stroke-miterlimit: 4; fill: rgb(60,185,255); fill-rule: nonzero; opacity: 1;"  transform=" translate(-694.47, -619.89)" d="M 698.73 624 c -2.31 1.16 -11.1 0.36 -11.1 0.36 s 4.58 -7.55 6.89 -8.71 a 4.68 4.68 0 0 1 4.21 8.36 Z" stroke-linecap="round" />
</g>
		<g transform="matrix(1 0 0 1 89.75 189.42)"  >
<path style="stroke: none; stroke-width: 1; stroke-dasharray: none; stroke-linecap: butt; stroke-dashoffset: 0; stroke-linejoin: miter; stroke-miterlimit: 4; fill: rgb(60,185,255); fill-rule: nonzero; opacity: 1;"  transform=" translate(-689.74, -639.42)" d="M 694.31 642.47 c -2.08 1.54 -10.88 2.23 -10.88 2.23 s 3.24 -8.22 5.32 -9.75 a 4.68 4.68 0 0 1 5.56 7.52 Z" stroke-linecap="round" />
</g>
		<g transform="matrix(1 0 0 1 84.41 153.86)"  >
<path style="stroke: none; stroke-width: 1; stroke-dasharray: none; stroke-linecap: butt; stroke-dashoffset: 0; stroke-linejoin: miter; stroke-miterlimit: 4; fill: rgb(60,185,255); fill-rule: nonzero; opacity: 1;"  transform=" translate(-684.41, -603.87)" d="M 679.84 606 c 1.85 1.8 10.49 3.67 10.49 3.67 s -2.11 -8.58 -4 -10.38 a 4.68 4.68 0 0 0 -6.52 6.71 Z" stroke-linecap="round" />
</g>
		<g transform="matrix(1 0 0 1 79.21 173.5)"  >
<path style="stroke: none; stroke-width: 1; stroke-dasharray: none; stroke-linecap: butt; stroke-dashoffset: 0; stroke-linejoin: miter; stroke-miterlimit: 4; fill: rgb(60,185,255); fill-rule: nonzero; opacity: 1;"  transform=" translate(-679.2, -623.51)" d="M 674.94 627.62 c 2.31 1.16 11.1 0.36 11.1 0.36 s -4.58 -7.55 -6.89 -8.71 a 4.68 4.68 0 0 0 -4.21 8.36 Z" stroke-linecap="round" />
</g>
		<g transform="matrix(1 0 0 1 77.63 196.26)"  >
<path style="stroke: none; stroke-width: 1; stroke-dasharray: none; stroke-linecap: butt; stroke-dashoffset: 0; stroke-linejoin: miter; stroke-miterlimit: 4; fill: rgb(60,185,255); fill-rule: nonzero; opacity: 1;"  transform=" translate(-677.63, -646.26)" d="M 673.06 649.31 c 2.08 1.54 10.88 2.23 10.88 2.23 s -3.24 -8.22 -5.32 -9.75 a 4.68 4.68 0 0 0 -5.56 7.52 Z" stroke-linecap="round" />
</g>
		<g transform="matrix(1 0 0 1 94.61 210.4)"  >
<path style="stroke: none; stroke-width: 1; stroke-dasharray: none; stroke-linecap: butt; stroke-dashoffset: 0; stroke-linejoin: miter; stroke-miterlimit: 4; fill: rgb(168,168,168); fill-rule: nonzero; opacity: 1;"  transform=" translate(-694.61, -660.4)" d="M 672.33 660.3 s 11.35 -2.27 14.37 -5.3 s 16.64 -8.32 18.16 -4.54 s 20.43 16.64 7.56 18.91 s -30.26 3 -34 1.51 S 672.33 660.3 672.33 660.3 Z" stroke-linecap="round" />
</g>
		<g transform="matrix(1 0 0 1 94.63 215.97)"  >
<path style="stroke: none; stroke-width: 1; stroke-dasharray: none; stroke-linecap: butt; stroke-dashoffset: 0; stroke-linejoin: miter; stroke-miterlimit: 4; fill: rgb(0,0,0); fill-rule: nonzero; opacity: 0.2;"  transform=" translate(-694.63, -665.98)" d="M 712.43 668 c -12.86 2.27 -30.26 3 -34 1.51 c -2.88 -1.15 -4.88 -6.69 -5.67 -9.26 l -0.38 0.08 s 2.27 9.08 6.05 10.59 s 21.18 0.76 34 -1.51 c 3.71 -0.66 4.77 -2.19 4.37 -4.14 C 716.48 666.51 715.19 667.49 712.43 668 Z" stroke-linecap="round" />
</g>
		<g transform="matrix(1 0 0 1 328.11 281.81)"  >
<path style="stroke: none; stroke-width: 1; stroke-dasharray: none; stroke-linecap: butt; stroke-dashoffset: 0; stroke-linejoin: miter; stroke-miterlimit: 4; fill: rgb(168,168,168); fill-rule: nonzero; opacity: 1;"  transform=" translate(-928.11, -731.81)" d="M 860.5 731.46 s 34.43 -6.89 43.62 -16.07 s 50.5 -25.25 55.09 -13.77 s 62 50.5 23 57.39 s -91.82 9.18 -103.3 4.59 S 860.5 731.46 860.5 731.46 Z" stroke-linecap="round" />
</g>
		<g transform="matrix(1 0 0 1 328.09 298.6)"  >
<path style="stroke: none; stroke-width: 1; stroke-dasharray: none; stroke-linecap: butt; stroke-dashoffset: 0; stroke-linejoin: miter; stroke-miterlimit: 4; fill: rgb(0,0,0); fill-rule: nonzero; opacity: 0.2;"  transform=" translate(-928.09, -748.6)" d="M 982.17 754.74 c -39 6.89 -91.82 9.18 -103.3 4.59 c -8.74 -3.5 -14.82 -20.3 -17.22 -28.11 l -1.15 0.24 s 6.89 27.55 18.36 32.14 s 64.28 2.3 103.3 -4.59 c 11.27 -2 14.49 -6.66 13.27 -12.56 C 994.48 750.3 990.55 753.27 982.17 754.74 Z" stroke-linecap="round" />
</g>
		<g transform="matrix(1 0 0 1 489.8 85.8)"  >
<path style="stroke: none; stroke-width: 1; stroke-dasharray: none; stroke-linecap: butt; stroke-dashoffset: 0; stroke-linejoin: miter; stroke-miterlimit: 4; fill: rgb(60,185,255); fill-rule: nonzero; opacity: 1;"  transform=" translate(-1089.8, -535.81)" d="M 1093.54 535.8 a 21.82 21.82 0 0 1 -3.71 11.51 a 21.82 21.82 0 0 1 -3.77 -11.49 c 0 -6.35 1.64 -11.5 3.71 -11.51 S 1093.52 529.45 1093.54 535.8 Z" stroke-linecap="round" />
</g>
		<g transform="matrix(1 0 0 1 207.51 80.22)"  >
<path style="stroke: none; stroke-width: 1; stroke-dasharray: none; stroke-linecap: butt; stroke-dashoffset: 0; stroke-linejoin: miter; stroke-miterlimit: 4; fill: rgb(60,185,255); fill-rule: nonzero; opacity: 1;"  transform=" translate(-807.51, -530.22)" d="M 811.25 530.22 a 21.82 21.82 0 0 1 -3.74 11.5 a 21.82 21.82 0 0 1 -3.74 -11.5 c 0 -6.35 1.67 -11.5 3.74 -11.5 S 811.25 523.87 811.25 530.22 Z" stroke-linecap="round" />
</g>
		<g transform="matrix(1 0 0 1 515.57 195.61)"  >
<path style="stroke: none; stroke-width: 1; stroke-dasharray: none; stroke-linecap: butt; stroke-dashoffset: 0; stroke-linejoin: miter; stroke-miterlimit: 4; fill: rgb(60,185,255); fill-rule: nonzero; opacity: 1;"  transform=" translate(-1115.56, -645.61)" d="M 1118.91 643.54 a 21.82 21.82 0 0 1 3.74 11.5 a 21.82 21.82 0 0 1 -9.79 -7.1 c -3.74 -5.14 -5.41 -10.29 -3.74 -11.5 S 1115.18 638.41 1118.91 643.54 Z" stroke-linecap="round" />
</g>
		<g transform="matrix(1 0 0 1 395.72 133.32)"  >
<path style="stroke: none; stroke-width: 1; stroke-dasharray: none; stroke-linecap: butt; stroke-dashoffset: 0; stroke-linejoin: miter; stroke-miterlimit: 4; fill: rgb(60,185,255); fill-rule: nonzero; opacity: 1;"  transform=" translate(-995.71, -583.33)" d="M 999.45 583.33 a 21.82 21.82 0 0 1 -3.74 11.5 a 21.82 21.82 0 0 1 -3.74 -11.5 c 0 -6.35 1.67 -11.5 3.74 -11.5 S 999.45 577 999.45 583.33 Z" stroke-linecap="round" />
</g>
		<g transform="matrix(1 0 0 1 325.84 95.13)"  >
<path style="stroke: none; stroke-width: 1; stroke-dasharray: none; stroke-linecap: butt; stroke-dashoffset: 0; stroke-linejoin: miter; stroke-miterlimit: 4; fill: rgb(60,185,255); fill-rule: nonzero; opacity: 1;"  transform=" translate(-925.83, -545.13)" d="M 929.57 545.13 a 21.82 21.82 0 0 1 -3.74 11.5 a 21.82 21.82 0 0 1 -3.74 -11.5 c 0 -6.35 1.67 -11.5 3.74 -11.5 S 929.57 538.78 929.57 545.13 Z" stroke-linecap="round" />
</g>
		<g transform="matrix(1 0 0 1 282.56 120.19)"  >
<path style="stroke: none; stroke-width: 1; stroke-dasharray: none; stroke-linecap: butt; stroke-dashoffset: 0; stroke-linejoin: miter; stroke-miterlimit: 4; fill: rgb(60,185,255); fill-rule: nonzero; opacity: 1;"  transform=" translate(-882.56, -570.19)" d="M 886.22 568.42 a 21.82 21.82 0 0 1 2.47 11.84 a 21.82 21.82 0 0 1 -9 -8.12 c -3.16 -5.51 -4.26 -10.81 -2.47 -11.84 S 883.07 562.91 886.22 568.42 Z" stroke-linecap="round" />
</g>
		<g transform="matrix(1 0 0 1 251.47 221.1)"  >
<path style="stroke: none; stroke-width: 1; stroke-dasharray: none; stroke-linecap: butt; stroke-dashoffset: 0; stroke-linejoin: miter; stroke-miterlimit: 4; fill: rgb(60,185,255); fill-rule: nonzero; opacity: 1;"  transform=" translate(-851.46, -671.11)" d="M 853.83 674.06 a 21.82 21.82 0 0 1 -10.95 5.14 a 21.82 21.82 0 0 1 5.83 -10.59 c 4.63 -4.34 9.54 -6.64 10.95 -5.14 S 858.46 669.72 853.83 674.06 Z" stroke-linecap="round" />
</g>
		<g transform="matrix(1 0 0 1 251.47 221.1)"  >
<path style="stroke: none; stroke-width: 1; stroke-dasharray: none; stroke-linecap: butt; stroke-dashoffset: 0; stroke-linejoin: miter; stroke-miterlimit: 4; fill: rgb(0,0,0); fill-rule: nonzero; opacity: 0.1;"  transform=" translate(-851.46, -671.11)" d="M 853.83 674.06 a 21.82 21.82 0 0 1 -10.95 5.14 a 21.82 21.82 0 0 1 5.83 -10.59 c 4.63 -4.34 9.54 -6.64 10.95 -5.14 S 858.46 669.72 853.83 674.06 Z" stroke-linecap="round" />
</g>
		<g transform="matrix(1 0 0 1 319.48 214.58)"  >
<path style="stroke: none; stroke-width: 1; stroke-dasharray: none; stroke-linecap: butt; stroke-dashoffset: 0; stroke-linejoin: miter; stroke-miterlimit: 4; fill: rgb(60,185,255); fill-rule: nonzero; opacity: 1;"  transform=" translate(-919.47, -664.59)" d="M 921.84 667.54 a 21.82 21.82 0 0 1 -10.95 5.14 a 21.82 21.82 0 0 1 5.83 -10.59 c 4.63 -4.34 9.54 -6.64 10.95 -5.14 S 926.47 663.19 921.84 667.54 Z" stroke-linecap="round" />
</g>
		<g transform="matrix(1 0 0 1 319.48 214.58)"  >
<path style="stroke: none; stroke-width: 1; stroke-dasharray: none; stroke-linecap: butt; stroke-dashoffset: 0; stroke-linejoin: miter; stroke-miterlimit: 4; fill: rgb(0,0,0); fill-rule: nonzero; opacity: 0.1;"  transform=" translate(-919.47, -664.59)" d="M 921.84 667.54 a 21.82 21.82 0 0 1 -10.95 5.14 a 21.82 21.82 0 0 1 5.83 -10.59 c 4.63 -4.34 9.54 -6.64 10.95 -5.14 S 926.47 663.19 921.84 667.54 Z" stroke-linecap="round" />
</g>
		<g transform="matrix(1 0 0 1 332.52 283.51)"  >
<path style="stroke: none; stroke-width: 1; stroke-dasharray: none; stroke-linecap: butt; stroke-dashoffset: 0; stroke-linejoin: miter; stroke-miterlimit: 4; fill: rgb(60,185,255); fill-rule: nonzero; opacity: 1;"  transform=" translate(-932.52, -733.51)" d="M 934.88 736.48 a 21.82 21.82 0 0 1 -10.95 5.14 A 21.82 21.82 0 0 1 929.77 731 c 4.63 -4.34 9.54 -6.64 10.95 -5.14 S 939.52 732.13 934.88 736.48 Z" stroke-linecap="round" />
</g>
		<g transform="matrix(1 0 0 1 332.52 283.51)"  >
<path style="stroke: none; stroke-width: 1; stroke-dasharray: none; stroke-linecap: butt; stroke-dashoffset: 0; stroke-linejoin: miter; stroke-miterlimit: 4; fill: rgb(0,0,0); fill-rule: nonzero; opacity: 0.1;"  transform=" translate(-932.52, -733.51)" d="M 934.88 736.48 a 21.82 21.82 0 0 1 -10.95 5.14 A 21.82 21.82 0 0 1 929.77 731 c 4.63 -4.34 9.54 -6.64 10.95 -5.14 S 939.52 732.13 934.88 736.48 Z" stroke-linecap="round" />
</g>
		<g transform="matrix(1 0 0 1 -520.28 217.22)"  >
<path style="stroke: none; stroke-width: 1; stroke-dasharray: none; stroke-linecap: butt; stroke-dashoffset: 0; stroke-linejoin: miter; stroke-miterlimit: 4; fill: rgb(60,185,255); fill-rule: nonzero; opacity: 1;"  transform=" translate(-79.71, -667.23)" d="M 119.35 626.27 c 15.33 22.63 10.44 103.65 10.44 103.65 s -77.05 -25.51 -92.38 -48.13 a 49.49 49.49 0 0 1 81.95 -55.51 Z" stroke-linecap="round" />
</g>
		<g transform="matrix(1 0 0 1 -520.28 217.22)"  >
<path style="stroke: none; stroke-width: 1; stroke-dasharray: none; stroke-linecap: butt; stroke-dashoffset: 0; stroke-linejoin: miter; stroke-miterlimit: 4; fill: rgb(0,0,0); fill-rule: nonzero; opacity: 0.1;"  transform=" translate(-79.71, -667.23)" d="M 119.35 626.27 c 15.33 22.63 10.44 103.65 10.44 103.65 s -77.05 -25.51 -92.38 -48.13 a 49.49 49.49 0 0 1 81.95 -55.51 Z" stroke-linecap="round" />
</g>
		<g transform="matrix(1 0 0 1 -509.49 221.55)"  >
<path style="stroke: rgb(83,84,97); stroke-width: 1; stroke-dasharray: none; stroke-linecap: butt; stroke-dashoffset: 0; stroke-linejoin: miter; stroke-miterlimit: 10; fill: none; fill-rule: nonzero; opacity: 1;"  transform=" translate(-90.5, -671.56)" d="M 50.92 613.11 S 108.66 657.69 130.09 730" stroke-linecap="round" />
</g>
		<g transform="matrix(1 0 0 1 -457.86 248.92)"  >
<path style="stroke: none; stroke-width: 1; stroke-dasharray: none; stroke-linecap: butt; stroke-dashoffset: 0; stroke-linejoin: miter; stroke-miterlimit: 4; fill: rgb(60,185,255); fill-rule: nonzero; opacity: 1;"  transform=" translate(-142.13, -698.92)" d="M 144.63 668.57 s -41 -7 -13 60.91 c 0 0 28.49 -10.86 30.71 -37.88 a 21.56 21.56 0 0 0 -17.15 -22.92 Z" stroke-linecap="round" />
</g>
		<g transform="matrix(1 0 0 1 -460.85 248.99)"  >
<path style="stroke: rgb(83,84,97); stroke-width: 1; stroke-dasharray: none; stroke-linecap: butt; stroke-dashoffset: 0; stroke-linejoin: miter; stroke-miterlimit: 10; fill: none; fill-rule: nonzero; opacity: 1;"  transform=" translate(-139.15, -699)" d="M 145.23 668.5 s 7.81 37.56 -13.56 61" stroke-linecap="round" />
</g>
		<g transform="matrix(1 0 0 1 471.1 281.75)"  >
<path style="stroke: none; stroke-width: 1; stroke-dasharray: none; stroke-linecap: butt; stroke-dashoffset: 0; stroke-linejoin: miter; stroke-miterlimit: 4; fill: rgb(168,168,168); fill-rule: nonzero; opacity: 1;"  transform=" translate(-1071.1, -731.76)" d="M 1037.51 731.59 s 17.11 -3.4 21.67 -7.93 s 25.1 -12.46 27.38 -6.8 s 30.8 24.92 11.41 28.31 s -45.63 4.53 -51.33 2.27 S 1037.51 731.59 1037.51 731.59 Z" stroke-linecap="round" />
</g>
		<g transform="matrix(1 0 0 1 471.13 290.05)"  >
<path style="stroke: none; stroke-width: 1; stroke-dasharray: none; stroke-linecap: butt; stroke-dashoffset: 0; stroke-linejoin: miter; stroke-miterlimit: 4; fill: rgb(0,0,0); fill-rule: nonzero; opacity: 0.2;"  transform=" translate(-1071.13, -740.06)" d="M 1098 743.08 c -19.39 3.4 -45.63 4.53 -51.33 2.27 c -4.34 -1.73 -7.36 -10 -8.56 -13.87 l -0.57 0.12 s 3.42 13.59 9.13 15.86 s 31.94 1.13 51.33 -2.27 c 5.6 -1 7.2 -3.28 6.6 -6.2 C 1104.09 740.88 1102.14 742.35 1098 743.08 Z" stroke-linecap="round" />
</g>
		<g transform="matrix(1 0 0 1 368.84 -37.98)"  >
<circle style="stroke: none; stroke-width: 1; stroke-dasharray: none; stroke-linecap: butt; stroke-dashoffset: 0; stroke-linejoin: miter; stroke-miterlimit: 4; fill: rgb(60,185,255); fill-rule: nonzero; opacity: 1;"  cx="0" cy="0" r="102.23" />
</g>
		<g transform="matrix(1 0 0 1 260.12 -65.91)"  >
<circle style="stroke: none; stroke-width: 1; stroke-dasharray: none; stroke-linecap: butt; stroke-dashoffset: 0; stroke-linejoin: miter; stroke-miterlimit: 4; fill: rgb(60,185,255); fill-rule: nonzero; opacity: 1;"  cx="0" cy="0" r="102.23" />
</g>
		<g transform="matrix(1 0 0 1 140.43 -64.91)"  >
<circle style="stroke: none; stroke-width: 1; stroke-dasharray: none; stroke-linecap: butt; stroke-dashoffset: 0; stroke-linejoin: miter; stroke-miterlimit: 4; fill: rgb(60,185,255); fill-rule: nonzero; opacity: 1;"  cx="0" cy="0" r="102.23" />
</g>
		<g transform="matrix(1 0 0 1 101.53 -37.98)"  >
<circle style="stroke: none; stroke-width: 1; stroke-dasharray: none; stroke-linecap: butt; stroke-dashoffset: 0; stroke-linejoin: miter; stroke-miterlimit: 4; fill: rgb(60,185,255); fill-rule: nonzero; opacity: 1;"  cx="0" cy="0" r="102.23" />
</g>
		<g transform="matrix(1 0 0 1 35.71 -29)"  >
<circle style="stroke: none; stroke-width: 1; stroke-dasharray: none; stroke-linecap: butt; stroke-dashoffset: 0; stroke-linejoin: miter; stroke-miterlimit: 4; fill: rgb(60,185,255); fill-rule: nonzero; opacity: 1;"  cx="0" cy="0" r="102.23" />
</g>
		<g transform="matrix(1 0 0 1 8.77 -109.79)"  >
<circle style="stroke: none; stroke-width: 1; stroke-dasharray: none; stroke-linecap: butt; stroke-dashoffset: 0; stroke-linejoin: miter; stroke-miterlimit: 4; fill: rgb(60,185,255); fill-rule: nonzero; opacity: 1;"  cx="0" cy="0" r="102.23" />
</g>
		<g transform="matrix(1 0 0 1 38.69 -203.55)"  >
<circle style="stroke: none; stroke-width: 1; stroke-dasharray: none; stroke-linecap: butt; stroke-dashoffset: 0; stroke-linejoin: miter; stroke-miterlimit: 4; fill: rgb(60,185,255); fill-rule: nonzero; opacity: 1;"  cx="0" cy="0" r="102.23" />
</g>
		<g transform="matrix(1 0 0 1 95.54 -203.55)"  >
<circle style="stroke: none; stroke-width: 1; stroke-dasharray: none; stroke-linecap: butt; stroke-dashoffset: 0; stroke-linejoin: miter; stroke-miterlimit: 4; fill: rgb(60,185,255); fill-rule: nonzero; opacity: 1;"  cx="0" cy="0" r="102.23" />
</g>
		<g transform="matrix(1 0 0 1 128.47 -245.44)"  >
<circle style="stroke: none; stroke-width: 1; stroke-dasharray: none; stroke-linecap: butt; stroke-dashoffset: 0; stroke-linejoin: miter; stroke-miterlimit: 4; fill: rgb(60,185,255); fill-rule: nonzero; opacity: 1;"  cx="0" cy="0" r="102.23" />
</g>
		<g transform="matrix(1 0 0 1 212.25 -199.56)"  >
<circle style="stroke: none; stroke-width: 1; stroke-dasharray: none; stroke-linecap: butt; stroke-dashoffset: 0; stroke-linejoin: miter; stroke-miterlimit: 4; fill: rgb(60,185,255); fill-rule: nonzero; opacity: 1;"  cx="0" cy="0" r="102.23" />
</g>
		<g transform="matrix(1 0 0 1 407.74 -109.79)"  >
<circle style="stroke: none; stroke-width: 1; stroke-dasharray: none; stroke-linecap: butt; stroke-dashoffset: 0; stroke-linejoin: miter; stroke-miterlimit: 4; fill: rgb(60,185,255); fill-rule: nonzero; opacity: 1;"  cx="0" cy="0" r="102.23" />
</g>
		<g transform="matrix(1 0 0 1 348.88 -160.65)"  >
<circle style="stroke: none; stroke-width: 1; stroke-dasharray: none; stroke-linecap: butt; stroke-dashoffset: 0; stroke-linejoin: miter; stroke-miterlimit: 4; fill: rgb(60,185,255); fill-rule: nonzero; opacity: 1;"  cx="0" cy="0" r="102.23" />
</g>
		<g transform="matrix(1 0 0 1 310.99 -211.52)"  >
<circle style="stroke: none; stroke-width: 1; stroke-dasharray: none; stroke-linecap: butt; stroke-dashoffset: 0; stroke-linejoin: miter; stroke-miterlimit: 4; fill: rgb(60,185,255); fill-rule: nonzero; opacity: 1;"  cx="0" cy="0" r="102.23" />
</g>
		<g transform="matrix(1 0 0 1 239.17 -288.32)"  >
<circle style="stroke: none; stroke-width: 1; stroke-dasharray: none; stroke-linecap: butt; stroke-dashoffset: 0; stroke-linejoin: miter; stroke-miterlimit: 4; fill: rgb(60,185,255); fill-rule: nonzero; opacity: 1;"  cx="0" cy="0" r="102.23" />
</g>
		<g transform="matrix(1 0 0 1 372.83 -203.55)"  >
<circle style="stroke: none; stroke-width: 1; stroke-dasharray: none; stroke-linecap: butt; stroke-dashoffset: 0; stroke-linejoin: miter; stroke-miterlimit: 4; fill: rgb(60,185,255); fill-rule: nonzero; opacity: 1;"  cx="0" cy="0" r="102.23" />
</g>
		<g transform="matrix(1 0 0 1 394.2 -176.45)"  >
<path style="stroke: none; stroke-width: 1; stroke-dasharray: none; stroke-linecap: butt; stroke-dashoffset: 0; stroke-linejoin: miter; stroke-miterlimit: 4; fill: rgb(0,0,0); fill-rule: nonzero; opacity: 0.1;"  transform=" translate(-994.2, -273.56)" d="M 1070.61 262.47 s -95.21 -45.15 -152.82 34.87" stroke-linecap="round" />
</g>
		<g transform="matrix(1 0 0 1 157.53 -232.4)"  >
<path style="stroke: none; stroke-width: 1; stroke-dasharray: none; stroke-linecap: butt; stroke-dashoffset: 0; stroke-linejoin: miter; stroke-miterlimit: 4; fill: rgb(0,0,0); fill-rule: nonzero; opacity: 0.1;"  transform=" translate(-757.53, -217.6)" d="M 820.53 171 s -105.32 -3.18 -126 93.22" stroke-linecap="round" />
</g>
		<g transform="matrix(1 0 0 1 13.21 -58.77)"  >
<path style="stroke: none; stroke-width: 1; stroke-dasharray: none; stroke-linecap: butt; stroke-dashoffset: 0; stroke-linejoin: miter; stroke-miterlimit: 4; fill: rgb(0,0,0); fill-rule: nonzero; opacity: 0.1;"  transform=" translate(-613.2, -391.23)" d="M 689.61 380.16 S 594.4 335 536.79 415" stroke-linecap="round" />
</g>
		<g transform="matrix(1 0 0 1 -328.47 207.37)"  >
<path style="stroke: none; stroke-width: 1; stroke-dasharray: none; stroke-linecap: butt; stroke-dashoffset: 0; stroke-linejoin: miter; stroke-miterlimit: 4; fill: rgb(60,185,255); fill-rule: nonzero; opacity: 1;"  transform=" translate(-271.52, -657.38)" d="M 272.92 635 s 5.49 7.18 -2.54 18 s -14.65 20 -12 26.76 c 0 0 12.11 -20.14 22 -20.42 S 283.76 647.11 272.92 635 Z" stroke-linecap="round" />
</g>
		<g transform="matrix(1 0 0 1 -328.3 207.39)"  >
<path style="stroke: none; stroke-width: 1; stroke-dasharray: none; stroke-linecap: butt; stroke-dashoffset: 0; stroke-linejoin: miter; stroke-miterlimit: 4; fill: rgb(0,0,0); fill-rule: nonzero; opacity: 0.1;"  transform=" translate(-271.7, -657.4)" d="M 272.92 635 a 8.9 8.9 0 0 1 1.12 2.25 c 9.62 11.3 14.75 21.85 5.5 22.12 c -8.61 0.25 -18.95 15.65 -21.42 19.54 a 8.35 8.35 0 0 0 0.29 0.89 s 12.11 -20.14 22 -20.42 S 283.76 647.11 272.92 635 Z" stroke-linecap="round" />
</g>
		<g transform="matrix(1 0 0 1 -317.5 195.63)"  >
<path style="stroke: none; stroke-width: 1; stroke-dasharray: none; stroke-linecap: butt; stroke-dashoffset: 0; stroke-linejoin: miter; stroke-miterlimit: 4; fill: rgb(255,208,55); fill-rule: nonzero; opacity: 1;"  transform=" translate(-282.5, -645.63)" d="M 283.13 644.16 c 0 2.53 -0.28 4.58 -0.63 4.58 s -0.63 -2 -0.63 -4.58 s 0.35 -1.34 0.7 -1.34 S 283.13 641.63 283.13 644.16 Z" stroke-linecap="round" />
</g>
		<g transform="matrix(1 0 0 1 -314.85 197.15)"  >
<path style="stroke: none; stroke-width: 1; stroke-dasharray: none; stroke-linecap: butt; stroke-dashoffset: 0; stroke-linejoin: miter; stroke-miterlimit: 4; fill: rgb(255,208,55); fill-rule: nonzero; opacity: 1;"  transform=" translate(-285.14, -647.15)" d="M 286.63 647.17 c -2.22 1.21 -4.16 1.94 -4.32 1.63 s 1.5 -1.54 3.72 -2.75 s 1.34 -0.33 1.51 0 S 288.85 646 286.63 647.17 Z" stroke-linecap="round" />
</g>
		<g transform="matrix(1 0 0 1 -354.7 207.37)"  >
<path style="stroke: none; stroke-width: 1; stroke-dasharray: none; stroke-linecap: butt; stroke-dashoffset: 0; stroke-linejoin: miter; stroke-miterlimit: 4; fill: rgb(60,185,255); fill-rule: nonzero; opacity: 1;"  transform=" translate(-245.3, -657.38)" d="M 243.9 635 s -5.49 7.18 2.54 18 s 14.65 20 12 26.76 c 0 0 -12.11 -20.14 -22 -20.42 S 233.05 647.11 243.9 635 Z" stroke-linecap="round" />
</g>
		<g transform="matrix(1 0 0 1 -354.87 207.39)"  >
<path style="stroke: none; stroke-width: 1; stroke-dasharray: none; stroke-linecap: butt; stroke-dashoffset: 0; stroke-linejoin: miter; stroke-miterlimit: 4; fill: rgb(0,0,0); fill-rule: nonzero; opacity: 0.1;"  transform=" translate(-245.12, -657.4)" d="M 243.9 635 a 8.9 8.9 0 0 0 -1.12 2.25 c -9.62 11.3 -14.75 21.85 -5.5 22.12 c 8.61 0.25 18.95 15.65 21.42 19.54 a 8.35 8.35 0 0 1 -0.29 0.89 s -12.11 -20.14 -22 -20.42 S 233.05 647.11 243.9 635 Z" stroke-linecap="round" />
</g>
		<g transform="matrix(1 0 0 1 -365.68 195.63)"  >
<path style="stroke: none; stroke-width: 1; stroke-dasharray: none; stroke-linecap: butt; stroke-dashoffset: 0; stroke-linejoin: miter; stroke-miterlimit: 4; fill: rgb(255,208,55); fill-rule: nonzero; opacity: 1;"  transform=" translate(-234.32, -645.63)" d="M 233.69 644.16 c 0 2.53 0.28 4.58 0.63 4.58 s 0.63 -2 0.63 -4.58 s -0.35 -1.34 -0.7 -1.34 S 233.69 641.63 233.69 644.16 Z" stroke-linecap="round" />
</g>
		<g transform="matrix(1 0 0 1 -368.32 197.15)"  >
<path style="stroke: none; stroke-width: 1; stroke-dasharray: none; stroke-linecap: butt; stroke-dashoffset: 0; stroke-linejoin: miter; stroke-miterlimit: 4; fill: rgb(255,208,55); fill-rule: nonzero; opacity: 1;"  transform=" translate(-231.68, -647.15)" d="M 230.18 647.17 c 2.22 1.21 4.16 1.94 4.32 1.63 s -1.5 -1.54 -3.72 -2.75 s -1.34 -0.33 -1.51 0 S 228 646 230.18 647.17 Z" stroke-linecap="round" />
</g>
		<g transform="matrix(1 0 0 1 -335.98 235.05)"  >
<path style="stroke: none; stroke-width: 1; stroke-dasharray: none; stroke-linecap: butt; stroke-dashoffset: 0; stroke-linejoin: miter; stroke-miterlimit: 4; fill: rgb(168,168,168); fill-rule: nonzero; opacity: 1;"  transform=" translate(-264.02, -685.06)" d="M 235.44 678.85 s 15.36 -0.47 20 -3.77 s 23.63 -7.23 24.77 -1.95 s 23.08 26.29 5.74 26.43 s -40.29 -2.7 -44.91 -5.52 S 235.44 678.85 235.44 678.85 Z" stroke-linecap="round" />
</g>
		<g transform="matrix(1 0 0 1 -335.98 239.19)"  >
<path style="stroke: none; stroke-width: 1; stroke-dasharray: none; stroke-linecap: butt; stroke-dashoffset: 0; stroke-linejoin: miter; stroke-miterlimit: 4; fill: rgb(0,0,0); fill-rule: nonzero; opacity: 0.2;"  transform=" translate(-264.01, -689.19)" d="M 286.25 697.73 c -17.34 0.14 -40.29 -2.7 -44.91 -5.52 c -3.52 -2.14 -4.92 -9.83 -5.39 -13.38 l -0.51 0 s 1 12.39 5.59 15.2 s 27.57 5.66 44.91 5.52 c 5 0 6.73 -1.82 6.64 -4.46 C 291.89 696.7 290 697.7 286.25 697.73 Z" stroke-linecap="round" />
</g>
		<g transform="matrix(1 0 0 1 -468.18 321.61)"  >
<path style="stroke: none; stroke-width: 1; stroke-dasharray: none; stroke-linecap: butt; stroke-dashoffset: 0; stroke-linejoin: miter; stroke-miterlimit: 4; fill: rgb(60,185,255); fill-rule: nonzero; opacity: 1;"  transform=" translate(-131.82, -771.61)" d="M 148.44 777.74 a 11.67 11.67 0 0 0 3.83 -5.78 c 0.5 -2.3 -0.48 -5.05 -2.68 -5.89 c -2.46 -0.94 -5.09 0.76 -7.08 2.49 s -4.28 3.69 -6.89 3.32 a 10.48 10.48 0 0 0 3.24 -9.81 a 4.1 4.1 0 0 0 -0.9 -2 c -1.37 -1.46 -3.84 -0.83 -5.48 0.32 c -5.2 3.66 -6.65 10.72 -6.68 17.08 c -0.52 -2.29 -0.08 -4.68 -0.1 -7 s -0.66 -5 -2.64 -6.22 a 8 8 0 0 0 -4 -0.95 c -2.34 -0.09 -4.94 0.15 -6.54 1.86 c -2 2.12 -1.47 5.69 0.26 8 s 4.35 3.8 6.77 5.42 a 15 15 0 0 1 4.84 4.61 a 4.57 4.57 0 0 1 0.36 0.82 h 14.65 A 40.83 40.83 0 0 0 148.44 777.74 Z" stroke-linecap="round" />
</g>
		<g transform="matrix(1 0 0 1 441.82 335.61)"  >
<path style="stroke: none; stroke-width: 1; stroke-dasharray: none; stroke-linecap: butt; stroke-dashoffset: 0; stroke-linejoin: miter; stroke-miterlimit: 4; fill: rgb(60,185,255); fill-rule: nonzero; opacity: 1;"  transform=" translate(-1041.82, -785.61)" d="M 1058.44 791.74 a 11.67 11.67 0 0 0 3.83 -5.78 c 0.5 -2.3 -0.48 -5.05 -2.68 -5.89 c -2.46 -0.94 -5.09 0.76 -7.08 2.49 s -4.28 3.69 -6.89 3.32 a 10.48 10.48 0 0 0 3.24 -9.81 a 4.1 4.1 0 0 0 -0.9 -2 c -1.37 -1.46 -3.84 -0.83 -5.48 0.32 c -5.2 3.66 -6.65 10.72 -6.68 17.08 c -0.52 -2.29 -0.08 -4.68 -0.1 -7 s -0.66 -5 -2.64 -6.22 a 8 8 0 0 0 -4 -0.95 c -2.34 -0.09 -4.94 0.15 -6.54 1.86 c -2 2.12 -1.47 5.69 0.26 8 s 4.35 3.8 6.77 5.42 a 15 15 0 0 1 4.84 4.61 a 4.57 4.57 0 0 1 0.36 0.82 h 14.65 A 40.83 40.83 0 0 0 1058.44 791.74 Z" stroke-linecap="round" />
</g>
		<g transform="matrix(1 0 0 1 91.12 346.69)"  >
<path style="stroke: none; stroke-width: 1; stroke-dasharray: none; stroke-linecap: butt; stroke-dashoffset: 0; stroke-linejoin: miter; stroke-miterlimit: 4; fill: rgb(220,155,163); fill-rule: nonzero; opacity: 1;"  transform=" translate(-691.12, -796.7)" d="M 717.57 786.32 s -1 15.66 1 18.26 c 0 0 -45.92 8.35 -51.66 5.74 s -3.13 -6.78 0 -8.35 s 18.79 -7.31 20.87 -18.26 c 0 0 -6.78 -3.13 15.13 1 S 717.57 786.32 717.57 786.32 Z" stroke-linecap="round" />
</g>
		<g transform="matrix(1 0 0 1 91.12 346.69)"  >
<path style="stroke: none; stroke-width: 1; stroke-dasharray: none; stroke-linecap: butt; stroke-dashoffset: 0; stroke-linejoin: miter; stroke-miterlimit: 4; fill: rgb(0,0,0); fill-rule: nonzero; opacity: 0.05;"  transform=" translate(-691.12, -796.7)" d="M 717.57 786.32 s -1 15.66 1 18.26 c 0 0 -45.92 8.35 -51.66 5.74 s -3.13 -6.78 0 -8.35 s 18.79 -7.31 20.87 -18.26 c 0 0 -6.78 -3.13 15.13 1 S 717.57 786.32 717.57 786.32 Z" stroke-linecap="round" />
</g>
		<g transform="matrix(1 0 0 1 273.35 207.42)"  >
<path style="stroke: none; stroke-width: 1; stroke-dasharray: none; stroke-linecap: butt; stroke-dashoffset: 0; stroke-linejoin: miter; stroke-miterlimit: 4; fill: rgb(255,210,217); fill-rule: nonzero; opacity: 1;"  transform=" translate(-873.35, -657.42)" d="M 896.56 634.46 s -5.74 9.39 -2.09 27.66 s -9.39 18.26 -9.39 18.26 H 859 l -8.87 -23 l 12.52 1 s 8.35 -2.09 4.7 -21.4 Z" stroke-linecap="round" />
</g>
		<g transform="matrix(1 0 0 1 245.68 175.31)"  >
<path style="stroke: none; stroke-width: 1; stroke-dasharray: none; stroke-linecap: butt; stroke-dashoffset: 0; stroke-linejoin: miter; stroke-miterlimit: 4; fill: rgb(255,210,217); fill-rule: nonzero; opacity: 1;"  transform=" translate(-845.68, -625.32)" d="M 818.29 612.55 c 4 12.71 9 28.19 11.67 36.44 l 1.9 5.83 l 17.22 -17.74 s -0.76 -1.76 -1.89 -4.22 c -2.52 -5.46 -6.91 -14.37 -9.07 -15.09 c 0 0 24 -1.57 31.31 4.17 s 5.22 -15.66 5.22 -15.66 s -14.09 -1 -19.31 -4.17 s -33.4 -6.26 -33.4 -6.26 S 812.55 594.28 818.29 612.55 Z" stroke-linecap="round" />
</g>
		<g transform="matrix(1 0 0 1 78.17 328.26)"  >
<path style="stroke: none; stroke-width: 1; stroke-dasharray: none; stroke-linecap: butt; stroke-dashoffset: 0; stroke-linejoin: miter; stroke-miterlimit: 4; fill: rgb(255,210,217); fill-rule: nonzero; opacity: 1;"  transform=" translate(-678.16, -778.27)" d="M 661.73 766 l 3.65 26.61 l 9.39 -1 s 0.57 -0.54 1.53 -1.4 c 2.53 -2.23 7.8 -6.6 12.84 -9 a 15.73 15.73 0 0 1 5.46 -1.63 l -10.44 -15.66 a 57.66 57.66 0 0 1 -7.79 2.31 a 37.61 37.61 0 0 1 -8.39 1 A 15.32 15.32 0 0 1 661.73 766 Z" stroke-linecap="round" />
</g>
		<g transform="matrix(1 0 0 1 167.87 293.38)"  >
<path style="stroke: none; stroke-width: 1; stroke-dasharray: none; stroke-linecap: butt; stroke-dashoffset: 0; stroke-linejoin: miter; stroke-miterlimit: 4; fill: rgb(233,233,239); fill-rule: nonzero; opacity: 1;"  transform=" translate(-767.86, -743.39)" d="M 687.82 784.76 c 4.7 4.17 26.09 -4.7 29.75 8.87 l 3.36 -12.87 l 10.35 -39.6 l 1.42 -5.45 l 8.62 -0.37 l 98.93 -4.22 l 5.6 -0.24 l 3 -0.13 l -3.92 -1.94 l -26.09 -12.93 s -9.4 -0.66 -22.36 -2.44 h 0 c -19.65 -2.69 -47.49 -8 -63.21 -17.39 c -26.09 -15.66 -36 37.05 -36 37.05 s -4 13.37 -7 26.55 a 153.76 153.76 0 0 0 -3.15 17.25 C 686.67 780.93 686.81 783.85 687.82 784.76 Z" stroke-linecap="round" />
</g>
		<g transform="matrix(1 0 0 1 167.06 293.37)"  >
<path style="stroke: none; stroke-width: 1; stroke-dasharray: none; stroke-linecap: butt; stroke-dashoffset: 0; stroke-linejoin: miter; stroke-miterlimit: 4; fill: rgb(0,0,0); fill-rule: nonzero; opacity: 0.05;"  transform=" translate(-767.05, -743.38)" d="M 687.82 784.76 c 4.7 4.17 26.09 -4.7 29.75 8.87 l 3.36 -12.87 l 10.35 -39.6 l 1.42 -5.45 l 8.89 -0.55 l 95.58 -5.88 l 5.9 -0.37 l 1.82 -0.11 l 2.35 -0.15 l -28.44 -12.79 s -9.4 -0.66 -22.36 -2.44 h 0 c -19.65 -2.69 -47.49 -8 -63.21 -17.39 c -26.09 -15.66 -36 37.05 -36 37.05 s -4 13.37 -7 26.55 a 153.76 153.76 0 0 0 -3.15 17.25 C 686.67 780.93 686.81 783.85 687.82 784.76 Z" stroke-linecap="round" />
</g>
		<g transform="matrix(1 0 0 1 85.5 322.52)"  >
<path style="stroke: none; stroke-width: 1; stroke-dasharray: none; stroke-linecap: butt; stroke-dashoffset: 0; stroke-linejoin: miter; stroke-miterlimit: 4; fill: rgb(0,0,0); fill-rule: nonzero; opacity: 0.1;"  transform=" translate(-685.5, -772.53)" d="M 676.38 766.19 l 9.13 10.71 l 3.64 4.27 a 15.73 15.73 0 0 1 5.46 -1.63 l -10.44 -15.66 A 57.66 57.66 0 0 1 676.38 766.19 Z" stroke-linecap="round" />
</g>
		<g transform="matrix(1 0 0 1 172.29 299.15)"  >
<path style="stroke: none; stroke-width: 1; stroke-dasharray: none; stroke-linecap: butt; stroke-dashoffset: 0; stroke-linejoin: miter; stroke-miterlimit: 4; fill: rgb(233,233,239); fill-rule: nonzero; opacity: 1;"  transform=" translate(-772.29, -749.15)" d="M 676.87 764.93 l 10.21 12 l 4.92 5.77 v 1.57 c 6 1.39 24.79 -2.57 28.93 -3.48 l 0.81 -0.18 c 12 0.52 56.36 -25.57 56.36 -25.57 s 48.53 8.35 72 6.26 c 13.11 -1.17 16.79 -5.91 17.48 -9.88 a 10.29 10.29 0 0 0 -0.78 -5.78 l -21 -14.75 l -2.78 -2 l -4.44 -3.13 s -7.72 -1.75 -17.52 -3.91 h 0 c -15.32 -3.38 -35.73 -7.77 -39.86 -8.08 c -6.78 -0.52 -24 5.22 -33.92 16.7 a 29.31 29.31 0 0 1 -5.72 4.67 l -0.27 0.18 c -2.79 1.85 -6.22 3.81 -10 5.82 c -12.63 6.65 -29.47 13.8 -41.05 18.49 C 682.32 762.86 676.87 764.93 676.87 764.93 Z" stroke-linecap="round" />
</g>
		<g transform="matrix(1 0 0 1 69.02 329.3)"  >
<path style="stroke: none; stroke-width: 1; stroke-dasharray: none; stroke-linecap: butt; stroke-dashoffset: 0; stroke-linejoin: miter; stroke-miterlimit: 4; fill: rgb(0,0,0); fill-rule: nonzero; opacity: 0.1;"  transform=" translate(-669.01, -779.31)" d="M 661.73 766 l 3.65 26.61 l 9.39 -1 s 0.57 -0.54 1.53 -1.4 c -2.08 0 -5.51 -0.55 -6.23 -4.86 c 0 0 3.62 -12.65 -2.09 -18.1 A 15.32 15.32 0 0 1 661.73 766 Z" stroke-linecap="round" />
</g>
		<g transform="matrix(1 0 0 1 47.21 335.53)"  >
<path style="stroke: none; stroke-width: 1; stroke-dasharray: none; stroke-linecap: butt; stroke-dashoffset: 0; stroke-linejoin: miter; stroke-miterlimit: 4; fill: rgb(220,155,163); fill-rule: nonzero; opacity: 1;"  transform=" translate(-647.2, -785.54)" d="M 669 785.28 s 5.22 -18.26 -6.78 -20.35 l -19.83 7.83 l -23 1.57 s -6 9.79 3.61 20.77 A 29.52 29.52 0 0 0 643.94 805 L 669 806.15 L 676.87 790 S 670.08 791.54 669 785.28 Z" stroke-linecap="round" />
</g>
		<g transform="matrix(1 0 0 1 232.08 282.41)"  >
<path style="stroke: none; stroke-width: 1; stroke-dasharray: none; stroke-linecap: butt; stroke-dashoffset: 0; stroke-linejoin: miter; stroke-miterlimit: 4; fill: rgb(0,0,0); fill-rule: nonzero; opacity: 0.1;"  transform=" translate(-832.08, -732.42)" d="M 796.45 713.44 c 2.63 0.77 13.51 4 24.65 8.43 h 0 a 137.31 137.31 0 0 1 16.06 7.41 c 1.08 0.61 2.11 1.22 3.08 1.83 a 26.56 26.56 0 0 1 6.73 5.64 c 6.44 8.33 15.9 12.82 20.61 14.65 a 10.29 10.29 0 0 0 -0.78 -5.78 l -21 -14.75 l 3 -0.13 l -3.92 -1.94 l 2.35 -0.15 l -28.44 -12.79 S 809.41 715.22 796.45 713.44 Z" stroke-linecap="round" />
</g>
		<g transform="matrix(1 0 0 1 239.56 193.84)"  >
<path style="stroke: none; stroke-width: 1; stroke-dasharray: none; stroke-linecap: butt; stroke-dashoffset: 0; stroke-linejoin: miter; stroke-miterlimit: 4; fill: rgb(0,0,0); fill-rule: nonzero; opacity: 0.1;"  transform=" translate(-839.56, -643.85)" d="M 830 649 l 1.9 5.83 l 17.22 -17.74 s -0.76 -1.76 -1.89 -4.22 C 845 637.46 834.61 645.52 830 649 Z" stroke-linecap="round" />
</g>
		<g transform="matrix(1 0 0 1 264.41 242.37)"  >
<path style="stroke: none; stroke-width: 1; stroke-dasharray: none; stroke-linecap: butt; stroke-dashoffset: 0; stroke-linejoin: miter; stroke-miterlimit: 4; fill: rgb(206,218,213); fill-rule: nonzero; opacity: 1;"  transform=" translate(-864.41, -692.38)" d="M 892.09 657.65 a 30.34 30.34 0 0 0 1.35 -5.44 L 915.87 660 s 15.39 11.74 13.83 37.31 c 0 0 -19 -7 -27.4 1.3 l -0.17 1.47 a 67.84 67.84 0 0 1 -18.4 38.82 c -4.15 4.36 -8.06 9.27 -10.13 14 c 0 0 -14.61 -4.17 -23.48 -15.66 S 799 713.79 799 713.79 s 22.44 0.52 25.57 -7.31 s 13.57 -24.53 9.92 -37.57 s -5.74 -17.22 -5.74 -17.22 s 21.4 -15.13 19.83 -19.83 l 13.57 15.66 l 6.26 2.09 a 10 10 0 0 0 -0.74 3.82 C 867.31 667.6 887.33 671 892.09 657.65 Z" stroke-linecap="round" />
</g>
		<g transform="matrix(1 0 0 1 281.96 192.03)"  >
<path style="stroke: none; stroke-width: 1; stroke-dasharray: none; stroke-linecap: butt; stroke-dashoffset: 0; stroke-linejoin: miter; stroke-miterlimit: 4; fill: rgb(0,0,0); fill-rule: nonzero; opacity: 0.1;"  transform=" translate(-881.95, -642.04)" d="M 868.13 643.93 a 54.1 54.1 0 0 0 -0.79 -5.81 l 29.22 -2.61 s -2 1.75 -2.9 8.27 c -3.43 2 -7.43 4.78 -11.71 4.78 A 22.86 22.86 0 0 1 868.13 643.93 Z" stroke-linecap="round" />
</g>
		<g transform="matrix(1 0 0 1 281.69 174.8)"  >
<circle style="stroke: none; stroke-width: 1; stroke-dasharray: none; stroke-linecap: butt; stroke-dashoffset: 0; stroke-linejoin: miter; stroke-miterlimit: 4; fill: rgb(255,210,217); fill-rule: nonzero; opacity: 1;"  cx="0" cy="0" r="22.96" />
</g>
		<g transform="matrix(1 0 0 1 286.52 161.43)"  >
<path style="stroke: none; stroke-width: 1; stroke-dasharray: none; stroke-linecap: butt; stroke-dashoffset: 0; stroke-linejoin: miter; stroke-miterlimit: 4; fill: rgb(132,79,110); fill-rule: nonzero; opacity: 1;"  transform=" translate(-886.52, -611.43)" d="M 898.65 630.81 h -3.13 v -8.87 l -3.13 -9.39 s -15.66 -7.31 -23 -5.74 L 863.69 612 s -1.57 -12.52 7.83 -17.22 s 26.09 -2.61 30.27 1 s 11 9.92 5.74 27.14 L 906 627.16 S 899.69 625.07 898.65 630.81 Z" stroke-linecap="round" />
</g>
		<g transform="matrix(1 0 0 1 253.3 187.35)"  >
<path style="stroke: none; stroke-width: 1; stroke-dasharray: none; stroke-linecap: butt; stroke-dashoffset: 0; stroke-linejoin: miter; stroke-miterlimit: 4; fill: rgb(0,0,0); fill-rule: nonzero; opacity: 0.05;"  transform=" translate(-853.3, -637.36)" d="M 858.09 642.86 l -1.71 -0.57 l -7.88 -9.09 a 2.22 2.22 0 0 0 0.05 -1.34 Z" stroke-linecap="round" />
</g>
		<g transform="matrix(1 0 0 1 265.48 203.5)"  >
<path style="stroke: none; stroke-width: 1; stroke-dasharray: none; stroke-linecap: butt; stroke-dashoffset: 0; stroke-linejoin: miter; stroke-miterlimit: 4; fill: rgb(0,0,0); fill-rule: nonzero; opacity: 0.05;"  transform=" translate(-865.48, -653.51)" d="M 869.07 659.7 a 11.82 11.82 0 0 1 -7.17 -11.5 c 0 -0.31 0 -0.6 0 -0.88 l 0.16 0.19 l 6.26 2.09 a 10 10 0 0 0 -0.74 3.82 A 12.47 12.47 0 0 0 869.07 659.7 Z" stroke-linecap="round" />
</g>
		<g transform="matrix(1 0 0 1 221.88 272.95)"  >
<path style="stroke: none; stroke-width: 1; stroke-dasharray: none; stroke-linecap: butt; stroke-dashoffset: 0; stroke-linejoin: miter; stroke-miterlimit: 4; fill: rgb(0,0,0); fill-rule: nonzero; opacity: 0.05;"  transform=" translate(-821.88, -722.96)" d="M 808.2 713.36 c 13.08 4.55 30.79 11.72 36.18 18.69 l 0.4 0.5 c -14.33 -9.83 -45.8 -18.77 -45.8 -18.77 A 81.34 81.34 0 0 0 808.2 713.36 Z" stroke-linecap="round" />
</g>
		<g transform="matrix(1 0 0 1 290.91 256.27)"  >
<path style="stroke: none; stroke-width: 1; stroke-dasharray: none; stroke-linecap: butt; stroke-dashoffset: 0; stroke-linejoin: miter; stroke-miterlimit: 4; fill: rgb(0,0,0); fill-rule: nonzero; opacity: 0.05;"  transform=" translate(-890.91, -706.28)" d="M 867.86 747.71 c 2.07 -4.71 6 -9.63 10.13 -14 a 67.84 67.84 0 0 0 18.4 -38.82 l 0.17 -1.47 c 8.35 -8.35 27.4 -1.3 27.4 -1.3 c 1 -16.22 -4.84 -26.87 -9.23 -32.49 l 1.15 0.4 s 15.39 11.74 13.83 37.31 c 0 0 -19 -7 -27.4 1.3 l -0.17 1.47 a 67.84 67.84 0 0 1 -18.4 38.82 c -4.15 4.36 -8.06 9.27 -10.13 14 c 0 0 -12.72 -3.64 -21.62 -13.44 A 54 54 0 0 0 867.86 747.71 Z" stroke-linecap="round" />
</g>
		<g transform="matrix(1 0 0 1 292.86 250.73)"  >
<path style="stroke: none; stroke-width: 1; stroke-dasharray: none; stroke-linecap: butt; stroke-dashoffset: 0; stroke-linejoin: miter; stroke-miterlimit: 4; fill: rgb(255,210,217); fill-rule: nonzero; opacity: 1;"  transform=" translate(-892.85, -700.73)" d="M 873.6 686.65 s 25 36 38.09 46.44 s 16.7 -4.7 16.7 -4.7 V 695 l -23 -2.61 l -0.25 3.17 l -0.28 3.62 l -21.4 -23 s -21.4 -19.31 -25.57 -7.83 S 873.6 686.65 873.6 686.65 Z" stroke-linecap="round" />
</g>
		<g transform="matrix(1 0 0 1 316.8 246.48)"  >
<path style="stroke: none; stroke-width: 1; stroke-dasharray: none; stroke-linecap: butt; stroke-dashoffset: 0; stroke-linejoin: miter; stroke-miterlimit: 4; fill: rgb(0,0,0); fill-rule: nonzero; opacity: 0.1;"  transform=" translate(-916.8, -696.49)" d="M 905.19 695.56 a 49.72 49.72 0 0 0 9.9 4.4 c 4.93 1.52 10.58 -0.08 13.31 -1.06 V 695 l -23 -2.61 Z" stroke-linecap="round" />
</g>
		<g transform="matrix(1 0 0 1 315.97 242.97)"  >
<path style="stroke: none; stroke-width: 1; stroke-dasharray: none; stroke-linecap: butt; stroke-dashoffset: 0; stroke-linejoin: miter; stroke-miterlimit: 4; fill: rgb(206,218,213); fill-rule: nonzero; opacity: 1;"  transform=" translate(-915.97, -692.97)" d="M 928.66 691.61 L 930 697.2 s -8.16 3.8 -14.94 1.72 a 59.33 59.33 0 0 1 -13 -6.26 c -1 -0.52 4.17 -6.26 4.17 -6.26 Z" stroke-linecap="round" />
</g>
		<g transform="matrix(1 0 0 1 167.13 299.26)"  >
<path style="stroke: none; stroke-width: 1; stroke-dasharray: none; stroke-linecap: butt; stroke-dashoffset: 0; stroke-linejoin: miter; stroke-miterlimit: 4; fill: rgb(0,0,0); fill-rule: nonzero; opacity: 0.1;"  transform=" translate(-767.12, -749.26)" d="M 778.36 755.27 A 42.39 42.39 0 0 0 766.88 749 a 41 41 0 0 1 -11 -5.74" stroke-linecap="round" />
</g>
		<g transform="matrix(1 0 0 1 43.71 340.2)"  >
<path style="stroke: none; stroke-width: 1; stroke-dasharray: none; stroke-linecap: butt; stroke-dashoffset: 0; stroke-linejoin: miter; stroke-miterlimit: 4; fill: rgb(255,255,255); fill-rule: nonzero; opacity: 0.2;"  transform=" translate(-643.7, -790.21)" d="M 619.46 774.32 l 0.85 -0.06 c -1.24 3.15 -3 10.85 4.32 19.26 a 29.52 29.52 0 0 0 20.87 9.89 l 24.3 1.14 l -0.78 1.6 L 643.94 805 a 29.52 29.52 0 0 1 -20.87 -9.89 C 613.46 784.11 619.46 774.32 619.46 774.32 Z" stroke-linecap="round" />
</g>
		<g transform="matrix(1 0 0 1 107.63 347.15)"  >
<path style="stroke: none; stroke-width: 1; stroke-dasharray: none; stroke-linecap: butt; stroke-dashoffset: 0; stroke-linejoin: miter; stroke-miterlimit: 4; fill: rgb(0,255,0); fill-rule: nonzero; opacity: 0.05;"  transform=" translate(-707.63, -797.15)" d="M 708.07 796.69 q -0.11 0.47 -0.25 0.93 C 707.31 797.33 706.58 796.77 708.07 796.69 Z" stroke-linecap="round" />
</g>
		<g transform="matrix(1 0 0 1 91.1 356.97)"  >
<path style="stroke: none; stroke-width: 1; stroke-dasharray: none; stroke-linecap: butt; stroke-dashoffset: 0; stroke-linejoin: miter; stroke-miterlimit: 4; fill: rgb(255,255,255); fill-rule: nonzero; opacity: 0.2;"  transform=" translate(-691.09, -806.98)" d="M 667 808.76 c 5.35 2.43 45.57 -4.65 51 -5.63 a 4.06 4.06 0 0 0 0.62 1.45 s -45.92 8.35 -51.66 5.74 c -3 -1.34 -3.69 -3.1 -3.29 -4.7 C 664 806.74 664.94 807.85 667 808.76 Z" stroke-linecap="round" />
</g>
		<g transform="matrix(1 0 0 1 280.08 149.78)"  >
<path style="stroke: none; stroke-width: 1; stroke-dasharray: none; stroke-linecap: butt; stroke-dashoffset: 0; stroke-linejoin: miter; stroke-miterlimit: 4; fill: rgb(0,0,0); fill-rule: nonzero; opacity: 0.1;"  transform=" translate(-880.08, -599.78)" d="M 867.1 613.84 a 35.56 35.56 0 0 1 -13.24 -14.2 a 3.2 3.2 0 0 1 -0.49 -2.19 c 0.37 -1.42 2.22 -1.67 3.56 -2.28 c 2.49 -1.14 3.54 -4 5.17 -6.22 a 12.45 12.45 0 0 1 12.17 -4.67 c 2.38 0.48 4.58 1.66 7 2 c 5.18 0.76 10.82 -2.38 15.47 0 c 2.12 1.09 3.56 3.14 4.82 5.16 c 3.17 5.07 7.14 10.46 4.26 16.38 c -1.65 3.4 -4.29 6.22 -8 7.21 s -8 0.16 -11.78 -0.24 c -3.1 -0.34 -6.36 -1 -9.48 -0.72 C 872.88 614.45 870.59 615.94 867.1 613.84 Z" stroke-linecap="round" />
</g>
		<g transform="matrix(1 0 0 1 280.08 148.73)"  >
<path style="stroke: none; stroke-width: 1; stroke-dasharray: none; stroke-linecap: butt; stroke-dashoffset: 0; stroke-linejoin: miter; stroke-miterlimit: 4; fill: rgb(132,79,110); fill-rule: nonzero; opacity: 1;"  transform=" translate(-880.08, -598.73)" d="M 867.1 612.79 a 35.56 35.56 0 0 1 -13.24 -14.2 a 3.2 3.2 0 0 1 -0.49 -2.19 c 0.37 -1.42 2.22 -1.67 3.56 -2.28 c 2.49 -1.14 3.54 -4 5.17 -6.22 a 12.45 12.45 0 0 1 12.17 -4.67 c 2.38 0.48 4.58 1.66 7 2 c 5.18 0.76 10.82 -2.38 15.47 0 c 2.12 1.09 3.56 3.14 4.82 5.16 c 3.17 5.07 7.14 10.46 4.26 16.38 c -1.65 3.4 -4.29 6.22 -8 7.21 s -8 0.16 -11.78 -0.24 c -3.1 -0.34 -6.36 -1 -9.48 -0.72 C 872.88 613.4 870.59 614.9 867.1 612.79 Z" stroke-linecap="round" />
</g>
		<g transform="matrix(1 0 0 1 -88.08 240.07)"  >
<linearGradient id="SVGID_d91c7811-87ec-4fc8-aa52-46c2543d8327-2546_5" gradientUnits="userSpaceOnUse" gradientTransform="matrix(-1 0 0 1 967 0)"  x1="380.12" y1="690.08" x2="530.06" y2="690.08">
<stop offset="0%" style="stop-color:rgb(128,128,128);stop-opacity: 0.25"/>
<stop offset="54%" style="stop-color:rgb(128,128,128);stop-opacity: 0.12"/>
<stop offset="100%" style="stop-color:rgb(128,128,128);stop-opacity: 0.1"/>
</linearGradient>
<path style="stroke: none; stroke-width: 1; stroke-dasharray: none; stroke-linecap: butt; stroke-dashoffset: 0; stroke-linejoin: miter; stroke-miterlimit: 4; fill: url(#SVGID_d91c7811-87ec-4fc8-aa52-46c2543d8327-2546_5); fill-rule: nonzero; opacity: 1;"  transform=" translate(-511.92, -690.08)" d="M 436.94 737.11 c 0 10.76 0.6 17.87 0.6 17.87 s 15.37 0.86 14.94 15.11 s 59.74 17.27 59.74 17.27 s 0 -0.15 0 -0.43 h 0 s 0 -1.15 0 -3.23 c 5.72 0.85 11.84 1.54 15.27 1.21 c -0.23 1.11 -0.5 2.28 -0.76 3.32 c -0.28 0.28 -5.82 5.88 -5.64 11.84 c -0.1 3 1.26 6.08 5.66 8.64 C 539.45 816.13 579 812 579 812 c 6 -3.94 8 -7.29 7.89 -10.07 c 0.19 -4.1 -3.9 -7 -7.65 -8.87 a 13.5 13.5 0 0 0 -9.36 -1 a 44.92 44.92 0 0 1 -12.91 0.95 a 20 20 0 0 1 0.67 -2.54 c 4.06 1.15 6.86 2 6.86 2 s 21.08 -11.22 12.3 -29.35 a 14.85 14.85 0 0 0 -6 -5.93 c 6.77 -11.67 13.2 -25.41 12.56 -34.65 c -1.07 -15.42 -31.69 -12.06 -43.16 -10.25 L 518.09 690.6 c 0 -16 0.49 -34.37 -1 -38.35 c -2.64 -6.91 -1.76 -6 -3.51 -9.06 l -0.07 -0.11 c -1 -1.62 -3.72 -4.19 -4.42 -3.84 a 44.62 44.62 0 0 1 0.13 -9.55 A 27.25 27.25 0 0 0 528 603.91 a 26.68 26.68 0 0 0 -3 -12.31 l 0.3 -0.13 l -2.9 -14.26 a 2.37 2.37 0 0 1 0.13 -1.85 c 0.3 -0.4 0.81 -0.52 1.2 -0.8 a 2.76 2.76 0 0 0 0.47 -3.36 a 4.58 4.58 0 0 0 -1.09 -1.39 c -2.44 -2.77 -7.63 -1.78 -10.82 -2.19 c -4.32 -0.55 -8.85 -1.35 -12.94 0.79 a 21.38 21.38 0 0 1 -2.75 1.44 a 11.84 11.84 0 0 1 -4 0.38 a 40.4 40.4 0 0 0 -7.26 0.65 c -3.12 -1.13 -6.79 -0.13 -9.68 1.6 A 21.35 21.35 0 0 0 465.5 592 a 41.36 41.36 0 0 0 1.39 7.15 L 472.24 620 a 13.59 13.59 0 0 0 2 4.88 a 5.75 5.75 0 0 0 0.8 0.86 a 4.63 4.63 0 0 0 4.26 1.62 a 2.89 2.89 0 0 0 0.59 -0.21 a 29.57 29.57 0 0 1 -1.27 6.46 c -6.12 1.78 -15 8 -25.66 26 C 439.28 682.67 437 716.67 436.94 737.11 Z m 87.3 -14.64 h 0 Z" stroke-linecap="round" />
</g>
		<g transform="matrix(-1 0 0 -1 -79.94 295.66)"  >
<rect style="stroke: none; stroke-width: 1; stroke-dasharray: none; stroke-linecap: butt; stroke-dashoffset: 0; stroke-linejoin: miter; stroke-miterlimit: 4; fill: rgb(95,93,126); fill-rule: nonzero; opacity: 1;"  x="-29.92" y="-21.43" rx="0" ry="0" width="59.84" height="42.86" />
</g>
		<g transform="matrix(1 0 0 1 -56.17 296.4)"  >
<path style="stroke: none; stroke-width: 1; stroke-dasharray: none; stroke-linecap: butt; stroke-dashoffset: 0; stroke-linejoin: miter; stroke-miterlimit: 4; fill: rgb(95,93,126); fill-rule: nonzero; opacity: 1;"  transform=" translate(-543.82, -746.4)" d="M 535.12 714.9 s 44.56 -9.34 45.83 9.34 s -26.31 56 -26.31 56 l -25 -5.09 l 7.21 -28.86 s -28.43 -6.37 -30.13 -6.79 S 535.12 714.9 535.12 714.9 Z" stroke-linecap="round" />
</g>
		<g transform="matrix(1 0 0 1 -56.17 296.4)"  >
<path style="stroke: none; stroke-width: 1; stroke-dasharray: none; stroke-linecap: butt; stroke-dashoffset: 0; stroke-linejoin: miter; stroke-miterlimit: 4; fill: rgb(0,0,0); fill-rule: nonzero; opacity: 0.1;"  transform=" translate(-543.82, -746.4)" d="M 535.12 714.9 s 44.56 -9.34 45.83 9.34 s -26.31 56 -26.31 56 l -25 -5.09 l 7.21 -28.86 s -28.43 -6.37 -30.13 -6.79 S 535.12 714.9 535.12 714.9 Z" stroke-linecap="round" />
</g>
		<g transform="matrix(1 0 0 1 -58.09 339.3)"  >
<path style="stroke: none; stroke-width: 1; stroke-dasharray: none; stroke-linecap: butt; stroke-dashoffset: 0; stroke-linejoin: miter; stroke-miterlimit: 4; fill: rgb(95,93,126); fill-rule: nonzero; opacity: 1;"  transform=" translate(-541.9, -789.3)" d="M 558.47 785.35 s -4.24 8.06 -3 11.46 s -30.13 -4.67 -30.13 -4.67 s 2.55 -9.76 2.12 -11 S 558.47 785.35 558.47 785.35 Z" stroke-linecap="round" />
</g>
		<g transform="matrix(1 0 0 1 -52.9 280.15)"  >
<path style="stroke: none; stroke-width: 1; stroke-dasharray: none; stroke-linecap: butt; stroke-dashoffset: 0; stroke-linejoin: miter; stroke-miterlimit: 4; fill: rgb(253,194,204); fill-rule: nonzero; opacity: 1;"  transform=" translate(-547.09, -730.16)" d="M 530.88 730.18 L 534 733 l 2 1.82 s 10.19 16.55 23.34 6.37 S 549.13 723.39 544.46 723 a 5.86 5.86 0 0 1 -4.4 -3.19 a 14 14 0 0 1 -1.54 -4 Z" stroke-linecap="round" />
</g>
		<g transform="matrix(1 0 0 1 -52.9 280.15)"  >
<path style="stroke: none; stroke-width: 1; stroke-dasharray: none; stroke-linecap: butt; stroke-dashoffset: 0; stroke-linejoin: miter; stroke-miterlimit: 4; fill: rgb(0,0,0); fill-rule: nonzero; opacity: 0.05;"  transform=" translate(-547.09, -730.16)" d="M 530.88 730.18 L 534 733 l 2 1.82 s 10.19 16.55 23.34 6.37 S 549.13 723.39 544.46 723 a 5.86 5.86 0 0 1 -4.4 -3.19 a 14 14 0 0 1 -1.54 -4 Z" stroke-linecap="round" />
</g>
		<g transform="matrix(1 0 0 1 -58.09 339.3)"  >
<path style="stroke: none; stroke-width: 1; stroke-dasharray: none; stroke-linecap: butt; stroke-dashoffset: 0; stroke-linejoin: miter; stroke-miterlimit: 4; fill: rgb(0,0,0); fill-rule: nonzero; opacity: 0.1;"  transform=" translate(-541.9, -789.3)" d="M 558.47 785.35 s -4.24 8.06 -3 11.46 s -30.13 -4.67 -30.13 -4.67 s 2.55 -9.76 2.12 -11 S 558.47 785.35 558.47 785.35 Z" stroke-linecap="round" />
</g>
		<g transform="matrix(1 0 0 1 -64.51 274.37)"  >
<path style="stroke: none; stroke-width: 1; stroke-dasharray: none; stroke-linecap: butt; stroke-dashoffset: 0; stroke-linejoin: miter; stroke-miterlimit: 4; fill: rgb(0,0,0); fill-rule: nonzero; opacity: 0.1;"  transform=" translate(-535.48, -724.38)" d="M 530.88 730.18 L 534 733 c 0 -5.44 3.61 -10.44 6.08 -13.25 a 14 14 0 0 1 -1.54 -4 Z" stroke-linecap="round" />
</g>
		<g transform="matrix(1 0 0 1 -73.14 261.08)"  >
<path style="stroke: none; stroke-width: 1; stroke-dasharray: none; stroke-linecap: butt; stroke-dashoffset: 0; stroke-linejoin: miter; stroke-miterlimit: 4; fill: rgb(196,200,226); fill-rule: nonzero; opacity: 1;"  transform=" translate(-526.85, -711.09)" d="M 512.21 687.32 l 29.28 29.28 s -10.19 8.91 -8.06 18.25 l -21.22 -23.77 Z" stroke-linecap="round" />
</g>
		<g transform="matrix(1 0 0 1 -72.94 261.08)"  >
<path style="stroke: none; stroke-width: 1; stroke-dasharray: none; stroke-linecap: butt; stroke-dashoffset: 0; stroke-linejoin: miter; stroke-miterlimit: 4; fill: rgb(0,0,0); fill-rule: nonzero; opacity: 0.1;"  transform=" translate(-527.06, -711.09)" d="M 512.42 687.32 v 23.77 l 3.4 3.81 l 10.09 11.3 l 7.73 8.66 c -2.12 -9.34 8.06 -18.25 8.06 -18.25 Z" stroke-linecap="round" />
</g>
		<g transform="matrix(1 0 0 1 -89.04 248.77)"  >
<path style="stroke: none; stroke-width: 1; stroke-dasharray: none; stroke-linecap: butt; stroke-dashoffset: 0; stroke-linejoin: miter; stroke-miterlimit: 4; fill: rgb(211,153,153); fill-rule: nonzero; opacity: 1;"  transform=" translate(-510.95, -698.77)" d="M 512.21 645.3 s 0 8.91 -7.64 6.37 s -1.7 100.58 -1.7 100.58 s 22.07 -16.55 17.82 -28.43 S 515.6 703 516 691.14 S 512.21 645.3 512.21 645.3 Z" stroke-linecap="round" />
</g>
		<g transform="matrix(1 0 0 1 -106.79 187.12)"  >
<path style="stroke: none; stroke-width: 1; stroke-dasharray: none; stroke-linecap: butt; stroke-dashoffset: 0; stroke-linejoin: miter; stroke-miterlimit: 4; fill: rgb(253,194,204); fill-rule: nonzero; opacity: 1;"  transform=" translate(-493.2, -637.12)" d="M 511.78 621.54 s -6.37 17.4 0 30.56 S 474 644.88 474 644.88 s 9.76 -4.67 6.37 -27.16 Z" stroke-linecap="round" />
</g>
		<g transform="matrix(1 0 0 1 -79.65 258.17)"  >
<path style="stroke: none; stroke-width: 1; stroke-dasharray: none; stroke-linecap: butt; stroke-dashoffset: 0; stroke-linejoin: miter; stroke-miterlimit: 4; fill: rgb(0,0,0); fill-rule: nonzero; opacity: 0.1;"  transform=" translate(-520.34, -708.17)" d="M 515.6 700.9 a 125.19 125.19 0 0 0 0 14 l 10.09 11.3 a 85.06 85.06 0 0 0 -5 -9.17 c -1.57 -2.43 -1.92 -12.12 -2 -23.18 l -3.7 -3.7 C 515.38 696.12 515.6 700.9 515.6 700.9 Z" stroke-linecap="round" />
</g>
		<g transform="matrix(1 0 0 1 -82.2 236.26)"  >
<path style="stroke: none; stroke-width: 1; stroke-dasharray: none; stroke-linecap: butt; stroke-dashoffset: 0; stroke-linejoin: miter; stroke-miterlimit: 4; fill: rgb(196,200,226); fill-rule: nonzero; opacity: 1;"  transform=" translate(-517.8, -686.26)" d="M 509 643 c -0.47 -2.23 3.21 1.13 4.39 3.08 l 0.06 0.11 c 1.7 3 0.85 2.12 3.4 8.91 s -0.85 56 3 62 a 95.5 95.5 0 0 1 6.79 13.16 l -6.79 -2.55 s -2.55 -7.64 -4.24 -9.34 s -0.85 -17.4 -0.85 -17.4 s -1.27 -27.16 -2.55 -33.1 C 511.2 663.09 510 647.69 509 643 Z" stroke-linecap="round" />
</g>
		<g transform="matrix(1 0 0 1 -82.2 236.26)"  >
<path style="stroke: none; stroke-width: 1; stroke-dasharray: none; stroke-linecap: butt; stroke-dashoffset: 0; stroke-linejoin: miter; stroke-miterlimit: 4; fill: rgb(0,0,0); fill-rule: nonzero; opacity: 0.1;"  transform=" translate(-517.8, -686.26)" d="M 509 643 c -0.47 -2.23 3.21 1.13 4.39 3.08 l 0.06 0.11 c 1.7 3 0.85 2.12 3.4 8.91 s -0.85 56 3 62 a 95.5 95.5 0 0 1 6.79 13.16 l -6.79 -2.55 s -2.55 -7.64 -4.24 -9.34 s -0.85 -17.4 -0.85 -17.4 s -1.27 -27.16 -2.55 -33.1 C 511.2 663.09 510 647.69 509 643 Z" stroke-linecap="round" />
</g>
		<g transform="matrix(1 0 0 1 -62.14 320.86)"  >
<path style="stroke: none; stroke-width: 1; stroke-dasharray: none; stroke-linecap: butt; stroke-dashoffset: 0; stroke-linejoin: miter; stroke-miterlimit: 4; fill: rgb(95,93,126); fill-rule: nonzero; opacity: 1;"  transform=" translate(-537.85, -770.86)" d="M 499.05 748.85 s 67.05 -2.55 75.54 15.28 S 562.71 793 562.71 793 s -28.43 -8.91 -34.8 -7.64 s -28.86 -3.4 -28.86 -3.4 Z" stroke-linecap="round" />
</g>
		<g transform="matrix(1 0 0 1 -48.89 294.29)"  >
<path style="stroke: none; stroke-width: 1; stroke-dasharray: none; stroke-linecap: butt; stroke-dashoffset: 0; stroke-linejoin: miter; stroke-miterlimit: 4; fill: rgb(253,194,204); fill-rule: nonzero; opacity: 1;"  transform=" translate(-551.1, -744.3)" d="M 536.4 737.82 s 15.28 -8.49 23.77 -3 s 7.64 20.37 -4.24 20.79 s -18.25 -6.79 -18.25 -6.79 Z" stroke-linecap="round" />
</g>
		<g transform="matrix(1 0 0 1 -124.15 261.76)"  >
<path style="stroke: none; stroke-width: 1; stroke-dasharray: none; stroke-linecap: butt; stroke-dashoffset: 0; stroke-linejoin: miter; stroke-miterlimit: 4; fill: rgb(196,200,226); fill-rule: nonzero; opacity: 1;"  transform=" translate(-475.84, -711.77)" d="M 488.44 637.24 s -13.58 -9.34 -33.53 25 s -14.85 93.36 -14.85 93.36 s 14.85 0.85 14.43 14.85 s 57.72 17 57.72 17 s -0.85 -139.2 -6.79 -143 S 488.44 637.24 488.44 637.24 Z" stroke-linecap="round" />
</g>
		<g transform="matrix(1 0 0 1 -98.51 256.85)"  >
<path style="stroke: none; stroke-width: 1; stroke-dasharray: none; stroke-linecap: butt; stroke-dashoffset: 0; stroke-linejoin: miter; stroke-miterlimit: 4; fill: rgb(0,0,0); fill-rule: nonzero; opacity: 0.1;"  transform=" translate(-501.49, -706.86)" d="M 488.38 662.56 a 18.59 18.59 0 0 1 7.72 15.12 c 0.07 12.71 0.38 40.1 1.67 45.28 c 1.7 6.79 27.16 15.7 40.32 15.28 c 0 0 6.37 11.88 -1.27 14.43 s -54.32 0 -54.32 0 s -18.25 -20.79 -18.67 -39 s -3 -38.62 0 -42.44 C 466.28 668 476.53 654.2 488.38 662.56 Z" stroke-linecap="round" />
</g>
		<g transform="matrix(1 0 0 1 -97.61 255.16)"  >
<path style="stroke: none; stroke-width: 1; stroke-dasharray: none; stroke-linecap: butt; stroke-dashoffset: 0; stroke-linejoin: miter; stroke-miterlimit: 4; fill: rgb(196,200,226); fill-rule: nonzero; opacity: 1;"  transform=" translate(-502.39, -705.17)" d="M 489.23 660.86 A 18.59 18.59 0 0 1 497 676 c 0.07 12.71 0.38 40.1 1.67 45.28 c 1.7 6.79 27.16 15.7 40.32 15.28 c 0 0 6.37 11.88 -1.27 14.43 s -54.32 0 -54.32 0 s -18.25 -20.79 -18.67 -39 s -3 -38.62 0 -42.44 C 467.13 666.34 477.38 652.5 489.23 660.86 Z" stroke-linecap="round" />
</g>
		<g transform="matrix(1 0 0 1 -47.45 350.99)"  >
<path style="stroke: none; stroke-width: 1; stroke-dasharray: none; stroke-linecap: butt; stroke-dashoffset: 0; stroke-linejoin: miter; stroke-miterlimit: 4; fill: rgb(76,76,86); fill-rule: nonzero; opacity: 1;"  transform=" translate(-552.55, -800.99)" d="M 576.95 793.51 c 6.09 3 13.15 9.18 -0.23 18.57 c 0 0 -38.19 4.24 -50.5 -3.4 s 0 -19.95 0 -19.95 s 28.17 7.49 41.69 3.83 A 12.83 12.83 0 0 1 576.95 793.51 Z" stroke-linecap="round" />
</g>
		<g transform="matrix(1 0 0 1 -47.45 351.53)"  >
<path style="stroke: none; stroke-width: 1; stroke-dasharray: none; stroke-linecap: butt; stroke-dashoffset: 0; stroke-linejoin: miter; stroke-miterlimit: 4; fill: rgb(0,0,0); fill-rule: nonzero; opacity: 0.1;"  transform=" translate(-552.55, -801.54)" d="M 576.95 794.37 c 6.09 2.9 13.15 8.78 -0.23 17.77 c 0 0 -38.19 4.06 -50.5 -3.25 s 0 -19.08 0 -19.08 s 28.17 7.16 41.69 3.67 A 13.36 13.36 0 0 1 576.95 794.37 Z" stroke-linecap="round" />
</g>
		<g transform="matrix(1 0 0 1 -101.58 258.96)"  >
<path style="stroke: none; stroke-width: 1; stroke-dasharray: none; stroke-linecap: butt; stroke-dashoffset: 0; stroke-linejoin: miter; stroke-miterlimit: 4; fill: rgb(0,0,0); fill-rule: nonzero; opacity: 0.1;"  transform=" translate(-498.42, -708.96)" d="M 490.35 692.62 s 2.12 26.74 16.13 32.68" stroke-linecap="round" />
</g>
		<g transform="matrix(1 0 0 1 -104.34 177.97)"  >
<path style="stroke: none; stroke-width: 1; stroke-dasharray: none; stroke-linecap: butt; stroke-dashoffset: 0; stroke-linejoin: miter; stroke-miterlimit: 4; fill: rgb(0,0,0); fill-rule: nonzero; opacity: 0.1;"  transform=" translate(-495.66, -627.97)" d="M 511.36 624.51 a 54.46 54.46 0 0 0 -2.51 11.34 c -2.68 0.9 -6.6 -1.36 -9.59 -1.36 c -7.78 0 -10 -8.7 -14.85 -14 c 0 -2.36 -4 3.15 -4.46 0.21 Z" stroke-linecap="round" />
</g>
		<g transform="matrix(1 0 0 1 -99.12 157.55)"  >
<path style="stroke: none; stroke-width: 1; stroke-dasharray: none; stroke-linecap: butt; stroke-dashoffset: 0; stroke-linejoin: miter; stroke-miterlimit: 4; fill: rgb(253,194,204); fill-rule: nonzero; opacity: 1;"  transform=" translate(-500.87, -607.56)" d="M 474 607.53 a 26.86 26.86 0 0 0 0.81 6.58 l 0.09 0.34 a 26.87 26.87 0 1 0 -0.9 -6.91 Z" stroke-linecap="round" />
</g>
		<g transform="matrix(1 0 0 1 -124.16 268.35)"  >
<path style="stroke: none; stroke-width: 1; stroke-dasharray: none; stroke-linecap: butt; stroke-dashoffset: 0; stroke-linejoin: miter; stroke-miterlimit: 4; fill: rgb(0,0,0); fill-rule: nonzero; opacity: 0.1;"  transform=" translate(-475.84, -718.35)" d="M 454.92 662.7 a 101 101 0 0 1 9.49 -13.88 a 108 108 0 0 0 -7.79 11.76 c -19.95 34.38 -14.85 93.36 -14.85 93.36 s 14.85 0.85 14.43 14.85 c -0.38 12.57 46.41 16.25 56 16.87 c 0 1.44 0 2.22 0 2.22 s -58.14 -3 -57.72 -17 s -14.43 -14.85 -14.43 -14.85 S 435 697.08 454.92 662.7 Z" stroke-linecap="round" />
</g>
		<g transform="matrix(1 0 0 1 -103.84 151.08)"  >
<path style="stroke: none; stroke-width: 1; stroke-dasharray: none; stroke-linecap: butt; stroke-dashoffset: 0; stroke-linejoin: miter; stroke-miterlimit: 4; fill: rgb(0,0,0); fill-rule: nonzero; opacity: 0.1;"  transform=" translate(-496.16, -601.08)" d="M 477.39 577 c 2.8 -1.69 6.34 -2.68 9.36 -1.57 a 38.38 38.38 0 0 1 7 -0.64 a 11.25 11.25 0 0 0 3.82 -0.37 a 20.53 20.53 0 0 0 2.66 -1.41 c 3.95 -2.1 8.33 -1.31 12.5 -0.77 c 3.39 0.44 9.12 -0.79 11.08 3.09 a 2.75 2.75 0 0 1 -0.45 3.3 c -0.38 0.28 -0.87 0.39 -1.16 0.79 a 2.37 2.37 0 0 0 -0.13 1.82 l 2.8 14 a 10.52 10.52 0 0 1 -8.33 0.38 a 23.44 23.44 0 0 1 -2.2 -1 c -2.09 1.36 -4.25 0.33 -6.78 0.87 a 7.73 7.73 0 0 0 -3.82 2.5 a 22.24 22.24 0 0 0 -5.67 11.29 c -0.28 1.59 -0.65 3.55 -2.19 4 a 10.05 10.05 0 0 1 -1.77 0.18 c -2.78 0.36 -3.92 3.65 -5.71 5.82 c -2.18 2.64 -6.09 4.36 -6.33 7.78 c -0.06 0.88 0.13 1.85 -0.36 2.59 a 2.18 2.18 0 0 1 -1.36 0.84 a 4.59 4.59 0 0 1 -4.46 -2 a 13.49 13.49 0 0 1 -1.89 -4.79 l -5.17 -20.5 a 41.31 41.31 0 0 1 -1.35 -7 A 21.1 21.1 0 0 1 477.39 577 Z" stroke-linecap="round" />
</g>
		<g transform="matrix(1 0 0 1 -104.23 150.7)"  >
<path style="stroke: none; stroke-width: 1; stroke-dasharray: none; stroke-linecap: butt; stroke-dashoffset: 0; stroke-linejoin: miter; stroke-miterlimit: 4; fill: rgb(134,90,97); fill-rule: nonzero; opacity: 1;"  transform=" translate(-495.77, -600.7)" d="M 477 576.62 c 2.8 -1.69 6.34 -2.68 9.36 -1.57 a 38.38 38.38 0 0 1 7 -0.64 a 11.25 11.25 0 0 0 3.82 -0.37 a 20.53 20.53 0 0 0 2.66 -1.41 c 3.95 -2.1 8.33 -1.31 12.5 -0.77 c 3.39 0.44 9.12 -0.79 11.08 3.09 a 2.75 2.75 0 0 1 -0.45 3.3 c -0.38 0.28 -0.87 0.39 -1.16 0.79 a 2.37 2.37 0 0 0 -0.13 1.82 l 2.8 14 a 10.52 10.52 0 0 1 -8.33 0.38 a 23.44 23.44 0 0 1 -2.2 -1 c -2.09 1.36 -4.25 0.33 -6.78 0.87 a 7.73 7.73 0 0 0 -3.82 2.5 a 22.24 22.24 0 0 0 -5.67 11.29 c -0.28 1.59 -0.65 3.55 -2.19 4 a 10.05 10.05 0 0 1 -1.77 0.18 c -2.78 0.36 -3.92 3.65 -5.71 5.82 c -2.18 2.64 -6.09 4.36 -6.33 7.78 c -0.06 0.88 0.13 1.85 -0.36 2.59 a 2.18 2.18 0 0 1 -1.36 0.84 a 4.59 4.59 0 0 1 -4.46 -2 a 13.49 13.49 0 0 1 -1.89 -4.79 l -5.17 -20.5 a 41.31 41.31 0 0 1 -1.35 -7 A 21.1 21.1 0 0 1 477 576.62 Z" stroke-linecap="round" />
</g>
</g>
</g>
<g transform="matrix(0.18 0 0 0.18 516.01 397.05)"  >
<g style=""   >
		<g transform="matrix(1 0 0 1 54.32 -17.83)"  >
<path style="stroke: none; stroke-width: 1; stroke-dasharray: none; stroke-linecap: butt; stroke-dashoffset: 0; stroke-linejoin: miter; stroke-miterlimit: 4; fill: rgb(63,61,86); fill-rule: nonzero; opacity: 1;"  transform=" translate(-498.32, -223.97)" d="m 406 438.53481 c 5 24 33.5 -5.5 33.5 -5.5 l 34 -4 s 21.5 0.5 35.5 11.5 s 23.5 -3.5 23.5 -3.5 c 15.77283 5.2576 35.09692 5.23627 51.83264 3.55252 c 24.11597 -2.42627 43.44604 -21.04041 46.76044 -45.05038 c 18.69678 -135.44147 -84.09314 -202.00211 -84.09314 -202.00211 l -30 -81 s 9.5 -23.5 12.5 -44.5 s -19 -41 -46 -61 c -11.8125 -8.75 -25.34766 -8.12109 -36.83716 -4.64502 c -12.88892 3.89946 -24.13214 11.9183 -32.4397 22.51616 c -6.88251 8.77995 -18.68735 21.21468 -31.66315 23.36885 c -4.48999 0.73999 -8.91998 2.52002 -13.06 5.76001 c -4.28003 3.34998 -6.16998 8.94 -6.22998 15.89001 c -0.32001 30.35999 24.75 66.90998 46.72998 72.60999 c 27 7 12.5 73.5 12.5 73.5 c -44 62 -13 131 -13 131 l -8 56 s -0.5 11.5 4.5 35.5 l 0.00006 -0.00003 Z" stroke-linecap="round" />
</g>
		<g transform="matrix(1 0 0 1 70.62 149.77)"  >
<path style="stroke: none; stroke-width: 1; stroke-dasharray: none; stroke-linecap: butt; stroke-dashoffset: 0; stroke-linejoin: miter; stroke-miterlimit: 4; fill: rgb(63,61,86); fill-rule: nonzero; opacity: 1;"  transform=" translate(-514.62, -391.57)" d="m 553 309.53481 l -11 137 s 15 38 -36 36 s -21 -80 -21 -80 l 16 -102" stroke-linecap="round" />
</g>
		<g transform="matrix(1 0 0 1 70.6 149.77)"  >
<path style="stroke: none; stroke-width: 1; stroke-dasharray: none; stroke-linecap: butt; stroke-dashoffset: 0; stroke-linejoin: miter; stroke-miterlimit: 4; fill: rgb(47,46,65); fill-rule: nonzero; opacity: 1;"  transform=" translate(-514.6, -391.57)" d="m 509.79492 483.61099 c -1.24707 0 -2.52344 -0.02539 -3.83398 -0.07715 c -11.29004 -0.44238 -19.60352 -4.60059 -24.71094 -12.3584 c -14.60254 -22.18164 1.63867 -65.90625 2.77832 -68.89941 l 15.9834 -101.89648 c 0.08594 -0.5459 0.59375 -0.91309 1.14355 -0.83301 c 0.54492 0.08594 0.91797 0.59766 0.83301 1.14355 l -16 102 c -0.01172 0.06934 -0.0293 0.1377 -0.05469 0.2041 c -0.1748 0.45215 -17.25195 45.55566 -3.01172 67.18359 c 4.73242 7.18652 12.50977 11.04199 23.11719 11.45801 c 16.65234 0.64941 27.85254 -2.90332 33.29785 -10.56836 c 7.12402 -10.02832 1.78711 -23.92676 1.73242 -24.06641 c -0.05566 -0.1416 -0.07812 -0.29492 -0.06641 -0.44629 l 11 -137 c 0.04395 -0.5498 0.5166 -0.95117 1.07715 -0.91699 c 0.55078 0.04492 0.96094 0.52637 0.91699 1.07715 l -10.98242 136.77539 c 0.72656 1.96094 5.28223 15.4043 -2.03906 25.72363 c -5.41699 7.63574 -15.89844 11.49707 -31.18066 11.49707 Z" stroke-linecap="round" />
</g>
		<g transform="matrix(1 0 0 1 -26.81 157.76)"  >
<path style="stroke: none; stroke-width: 1; stroke-dasharray: none; stroke-linecap: butt; stroke-dashoffset: 0; stroke-linejoin: miter; stroke-miterlimit: 4; fill: rgb(63,61,86); fill-rule: nonzero; opacity: 1;"  transform=" translate(-417.19, -399.56)" d="m 462 337.53481 s 3 127 -60 124 s -6 -43 -6 -43 l 5.5 -15.5" stroke-linecap="round" />
</g>
		<g transform="matrix(1 0 0 1 -26.8 157.76)"  >
<path style="stroke: none; stroke-width: 1; stroke-dasharray: none; stroke-linecap: butt; stroke-dashoffset: 0; stroke-linejoin: miter; stroke-miterlimit: 4; fill: rgb(47,46,65); fill-rule: nonzero; opacity: 1;"  transform=" translate(-417.2, -399.56)" d="m 404.16211 462.58657 c -0.73145 0 -1.4668 -0.01758 -2.20996 -0.05273 c -17.98828 -0.85645 -28.15186 -4.88672 -30.20801 -11.97852 c -3.7041 -12.7793 20.43945 -30.52148 23.41895 -32.65332 l 5.39453 -15.20117 c 0.18457 -0.52148 0.75586 -0.79297 1.27637 -0.6084 s 0.79297 0.75586 0.6084 1.27637 l -5.5 15.5 c -0.06934 0.19629 -0.19824 0.36523 -0.36816 0.48438 c -0.26367 0.18555 -26.37744 18.68457 -22.90869 30.64551 c 1.79248 6.18066 11.34131 9.72559 28.38232 10.53711 c 11.34863 0.5459 21.29688 -3.27051 29.55078 -11.3291 c 30.95215 -30.21582 29.4209 -110.83789 29.40137 -111.64844 c -0.0127 -0.55176 0.42383 -1.00977 0.97656 -1.02344 c 0.52246 0.00098 1.00977 0.4248 1.02344 0.97656 c 0.0791 3.3457 1.57227 82.29785 -30.00293 113.125 c -8.12793 7.93555 -17.82031 11.9502 -28.83496 11.9502 Z" stroke-linecap="round" />
</g>
		<g transform="matrix(1 0 0 1 -64.82 -182.51)"  >
<path style="stroke: none; stroke-width: 1; stroke-dasharray: none; stroke-linecap: butt; stroke-dashoffset: 0; stroke-linejoin: miter; stroke-miterlimit: 4; fill: rgb(47,46,65); fill-rule: nonzero; opacity: 1;"  transform=" translate(-379.18, -59.3)" d="m 363.27002 69.92484 c 7.17999 0.85999 18.41998 0.81995 27.72998 -5.39001 c 9.96997 -6.65002 -0.38 -12.85004 -8.44 -16.26001 c -4.48999 0.73999 -8.91998 2.52002 -13.06 5.76001 c -4.28003 3.34998 -6.16998 8.94 -6.22998 15.89001 Z" stroke-linecap="round" />
</g>
		<g transform="matrix(1 0 0 1 59.67 -162)"  >
<path style="stroke: none; stroke-width: 1; stroke-dasharray: none; stroke-linecap: butt; stroke-dashoffset: 0; stroke-linejoin: miter; stroke-miterlimit: 4; fill: rgb(47,46,65); fill-rule: nonzero; opacity: 1;"  transform=" translate(-503.67, -79.81)" d="m 479.2984 51.94388 s -17.44968 -44.81639 7.54245 -45.4435 s 44.73257 38.20994 44.73257 38.20994 c 0 0 62.72797 114.34248 -23.21378 108.17637 c -85.94171 -6.16615 -44.87375 -51.81067 -44.87375 -51.81067 c 0 0 19.60165 -24.09928 15.81253 -49.13211 h -0.00003 v -0.00002 h 0 s 0 -0.00002 0 -0.00002 Z" stroke-linecap="round" />
</g>
		<g transform="matrix(1 0 0 1 184.13 152.48)"  >
<path style="stroke: none; stroke-width: 1; stroke-dasharray: none; stroke-linecap: butt; stroke-dashoffset: 0; stroke-linejoin: miter; stroke-miterlimit: 4; fill: rgb(63,61,86); fill-rule: nonzero; opacity: 1;"  transform=" translate(-628.13, -394.29)" d="m 575.03857 386.85064 c 11.06787 4.92365 22.63171 9.948 34.73578 9.46738 s 24.84155 -8.27557 26.72772 -20.24146 c 0.97363 -6.17697 -0.95746 -12.80396 1.40759 -18.59268 c 3.18213 -7.78867 13.44672 -10.79233 21.42578 -8.12323 s 13.84076 9.55188 18.04358 16.84058 c 7.86328 13.63672 11.0141 31.53461 2.58307 44.82779 c -7.30878 11.52368 -21.17084 16.73105 -34.06519 21.19748 c -17.17535 5.94928 -36.35114 11.854 -52.99396 4.54617 c -16.7381 -7.34964 -25.85565 -28.58435 -19.65753 -45.7821" stroke-linecap="round" />
</g>
		<g transform="matrix(1 0 0 1 39.15 -43.86)"  >
<path style="stroke: none; stroke-width: 1; stroke-dasharray: none; stroke-linecap: butt; stroke-dashoffset: 0; stroke-linejoin: miter; stroke-miterlimit: 4; fill: rgb(60,185,255); fill-rule: nonzero; opacity: 1;"  transform=" translate(-483.15, -197.95)" d="m 538.1142 170.92143 s 22 11 11 23 s -79 46 -104 41 s -31 -20 -31 -24 s 1.88583 -52.38661 9.88583 -50.38661 s 58.11417 47.38661 114.11417 10.38661 Z" stroke-linecap="round" />
</g>
</g>
</g>
<g transform="matrix(-0.17 0 0 0.17 345.35 422.95)"  >
<g style=""   >
		<g transform="matrix(1 0 0 1 36.75 50.44)"  >
<path style="stroke: none; stroke-width: 1; stroke-dasharray: none; stroke-linecap: butt; stroke-dashoffset: 0; stroke-linejoin: miter; stroke-miterlimit: 4; fill: rgb(63,61,86); fill-rule: nonzero; opacity: 1;"  transform=" translate(-480.75, -221.48)" d="m 560.17352 337.74451 l -141.4902 -4.01703 s 10.64948 -63.71005 -23.51938 -81.39458 c -23.29019 -12.05804 -43.96497 -68.39325 -38.08173 -106.71785 c 0.07639 -0.5134 0.15955 -1.01984 0.24985 -1.51935 c 2.98312 -17.1642 11.50281 -30.45026 27.78589 -34.0579 c 52.65829 -11.6556 90.24051 -2.61558 90.24051 -2.61558 c 0 0 8.70007 0.11111 21.59064 2.53224 c 0.45786 0.08334 0.91583 0.17345 1.38062 0.27067 c 36.49292 7.15295 103.94257 32.61478 106.86353 123.01482 c 4.01685 124.20117 -45.01971 104.50455 -45.01971 104.50455 Z" stroke-linecap="round" />
</g>
		<g transform="matrix(1 0 0 1 -16.84 -33.77)"  >
<path style="stroke: none; stroke-width: 1; stroke-dasharray: none; stroke-linecap: butt; stroke-dashoffset: 0; stroke-linejoin: miter; stroke-miterlimit: 4; fill: rgb(60,185,255); fill-rule: nonzero; opacity: 1;"  transform=" translate(-427.16, -137.27)" d="m 496.9491 109.95447 c -0.23596 6.48 -1.70685 12.91833 -4.39169 19.04449 c -5.56415 12.68933 -15.70041 22.38147 -28.54221 27.29333 c -38.45654 14.72224 -83.34433 0.11806 -106.04492 -15.71413 c -0.09027 0.4995 -1.89392 9.98611 -1.97031 10.4995 c 10.05292 6.87534 59.24219 13.51225 68.57355 13.51225 c 14.16702 0 27.80692 -2.35185 39.94116 -7.00017 c 13.18884 -5.05077 23.59558 -15.00645 29.31235 -28.0359 c 2.72653 -6.21627 4.23199 -12.75166 4.50266 -19.32872 c -0.46478 -0.09722 -0.92279 -0.18734 -1.38062 -0.27067 c 0 0 0.00003 0 0.00003 0 Z" stroke-linecap="round" />
</g>
		<g transform="matrix(1 0 0 1 -20.79 -91.18)"  >
<path style="stroke: none; stroke-width: 1; stroke-dasharray: none; stroke-linecap: butt; stroke-dashoffset: 0; stroke-linejoin: miter; stroke-miterlimit: 4; fill: rgb(63,61,86); fill-rule: nonzero; opacity: 1;"  transform=" translate(-423.21, -79.87)" d="m 507.41196 118.20499 l -22.55432 -56.70799 s 27.06519 -46.39745 5.79968 -51.55272 c -21.2655 -5.15527 -43.17542 22.55432 -43.17542 22.55432 c 0 0 -40.59778 -14.177 -56.0636 -2.57764 c 0 0 -25.77637 -36.08691 -41.24219 -28.99841 c -15.46582 7.0885 5.49524 58.17995 5.49524 58.17995 c 0 0 -31.91602 46.85873 -7.42847 73.9239 c 24.48755 27.06519 116.63803 48.9751 159.16904 -14.82141 h 0.00003 Z" stroke-linecap="round" />
</g>
		<g transform="matrix(1 0 0 1 148.62 137.92)"  >
<path style="stroke: none; stroke-width: 1; stroke-dasharray: none; stroke-linecap: butt; stroke-dashoffset: 0; stroke-linejoin: miter; stroke-miterlimit: 4; fill: rgb(63,61,86); fill-rule: nonzero; opacity: 1;"  transform=" translate(-592.62, -308.96)" d="m 555.78296 303.8031 c 7.67871 3.41595 15.70148 6.90176 24.09912 6.56833 s 17.23468 -5.74146 18.54321 -14.04318 c 0.67554 -4.28549 -0.66425 -8.88318 0.97656 -12.89932 c 2.2077 -5.40366 9.3291 -7.48755 14.86487 -5.63577 c 5.53571 1.85178 9.60248 6.62695 12.51837 11.68372 c 5.45538 9.46094 7.64142 21.8782 1.79205 31.1008 c -5.07068 7.99496 -14.68799 11.60773 -23.63385 14.70645 c -11.91602 4.12753 -25.21979 8.22409 -36.7663 3.15405 c -11.61261 -5.09906 -17.93823 -19.83136 -13.63806 -31.76288" stroke-linecap="round" />
</g>
		<g transform="matrix(1 0 0 1 -26.71 -70.72)"  >
<path style="stroke: none; stroke-width: 1; stroke-dasharray: none; stroke-linecap: butt; stroke-dashoffset: 0; stroke-linejoin: miter; stroke-miterlimit: 4; fill: rgb(60,185,255); fill-rule: nonzero; opacity: 1;"  transform=" translate(-417.29, -100.33)" d="m 428.73624 92.7071 s -13.87567 -5.55027 -22.89487 1.38757 l 10.40677 15.95702 s 12.4881 -17.34459 12.4881 -17.3446 Z" stroke-linecap="round" />
</g>
		<g transform="matrix(1 0 0 1 -51.05 82.28)"  >
<path style="stroke: none; stroke-width: 1; stroke-dasharray: none; stroke-linecap: butt; stroke-dashoffset: 0; stroke-linejoin: miter; stroke-miterlimit: 4; fill: rgb(63,61,86); fill-rule: nonzero; opacity: 1;"  transform=" translate(-392.95, -253.32)" d="m 355.88895 165.5544 l 25.67001 136.6754 s -38.8519 39.54565 11.10052 38.8519 c 49.95242 -0.69379 35.38297 -26.36377 35.38297 -26.36377 l -15.95703 -118.63701" stroke-linecap="round" />
</g>
		<g transform="matrix(1 0 0 1 -46.87 99.69)"  >
<path style="stroke: none; stroke-width: 1; stroke-dasharray: none; stroke-linecap: butt; stroke-dashoffset: 0; stroke-linejoin: miter; stroke-miterlimit: 4; fill: rgb(47,46,65); fill-rule: nonzero; opacity: 1;"  transform=" translate(-397.13, -270.74)" d="m 391.39893 342.09037 c -13.52734 0 -21.70996 -3.10107 -24.32861 -9.2251 c -4.77002 -11.15576 10.75732 -28.16797 13.41895 -30.96631 l -17.26074 -102.18262 l 1.97168 -0.33301 l 17.42969 103.18262 l -0.35742 0.36426 c -0.17969 0.18311 -17.93994 18.44922 -13.36279 29.1499 c 2.35059 5.49609 10.32129 8.19385 23.73633 8.00146 c 18.64697 -0.25879 30.67188 -4.1665 34.77441 -11.29932 c 3.69434 -6.42383 -0.2085 -13.50146 -0.24854 -13.57227 l -0.09424 -0.16748 l -0.02637 -0.19141 l -11.10059 -82.56006 l 1.98242 -0.2666 l 11.07617 82.37842 c 0.65674 1.24756 4.10889 8.45801 0.15576 15.35693 c -4.52832 7.90234 -16.80566 12.04834 -36.4917 12.32178 c -0.42969 0.00586 -0.85449 0.00879 -1.27441 0.00879 Z" stroke-linecap="round" />
</g>
		<g transform="matrix(1 0 0 1 14.17 82.28)"  >
<path style="stroke: none; stroke-width: 1; stroke-dasharray: none; stroke-linecap: butt; stroke-dashoffset: 0; stroke-linejoin: miter; stroke-miterlimit: 4; fill: rgb(63,61,86); fill-rule: nonzero; opacity: 1;"  transform=" translate(-458.17, -253.32)" d="m 421.10464 165.5544 l 25.67001 136.6754 s -38.8519 39.54565 11.10052 38.8519 c 49.95242 -0.69379 35.38297 -26.36377 35.38297 -26.36377 l -15.95703 -118.63701" stroke-linecap="round" />
</g>
		<g transform="matrix(1 0 0 1 19.81 97.97)"  >
<path style="stroke: none; stroke-width: 1; stroke-dasharray: none; stroke-linecap: butt; stroke-dashoffset: 0; stroke-linejoin: miter; stroke-miterlimit: 4; fill: rgb(47,46,65); fill-rule: nonzero; opacity: 1;"  transform=" translate(-463.81, -269.02)" d="m 456.61426 342.09037 c -13.52734 0 -21.70947 -3.10107 -24.32812 -9.2251 c -4.76562 -11.14453 10.72607 -28.13477 13.41016 -30.95801 l -10.31152 -54.99609 l 1.96582 -0.36816 l 10.50293 56.01514 l -0.36572 0.37207 c -0.17969 0.18311 -17.93994 18.44922 -13.3623 29.1499 c 2.35107 5.49561 10.32617 8.2041 23.73584 8.00146 c 18.6626 -0.25928 30.69092 -4.17236 34.78467 -11.31641 c 3.69238 -6.44434 -0.21729 -13.4834 -0.25732 -13.55371 l -0.0957 -0.16846 l -15.98291 -118.82861 l 1.98242 -0.2666 l 15.93262 118.45508 c 0.65674 1.24756 4.10889 8.45801 0.15576 15.35693 c -4.52832 7.90234 -16.80615 12.04834 -36.49219 12.32178 c -0.42969 0.00586 -0.85449 0.00879 -1.27441 0.00879 Z" stroke-linecap="round" />
</g>
</g>
</g>
</svg>