<?xml version="1.0" encoding="UTF-8" standalone="no" ?>
<!DOCTYPE svg PUBLIC "-//W3C//DTD SVG 1.1//EN" "http://www.w3.org/Graphics/SVG/1.1/DTD/svg11.dtd">
<svg xmlns="http://www.w3.org/2000/svg" xmlns:xlink="http://www.w3.org/1999/xlink" version="1.1" width="640" height="480" viewBox="0 0 640 480" xml:space="preserve">
<desc>Created with Fabric.js 3.6.6</desc>
<defs>
</defs>
<g transform="matrix(0.72 0 0 0.75 321.43 156.95)"  >
<g style=""   >
		<g transform="matrix(1 0 0 1 0 0)" id="867155"  >
<rect style="stroke: none; stroke-width: 1; stroke-dasharray: none; stroke-linecap: butt; stroke-dashoffset: 0; stroke-linejoin: miter; stroke-miterlimit: 4; fill: rgb(255,255,255); fill-rule: nonzero; opacity: 1; visibility: hidden;" vector-effect="non-scaling-stroke"  x="-540" y="-540" rx="0" ry="0" width="1080" height="1080" />
</g>
		<g transform="matrix(1.14 0 0 1.14 -288.03 236.8)"  >
<path style="stroke: none; stroke-width: 1; stroke-dasharray: none; stroke-linecap: butt; stroke-dashoffset: 0; stroke-linejoin: miter; stroke-miterlimit: 4; fill: rgb(60,185,255); fill-rule: nonzero; opacity: 1;" vector-effect="non-scaling-stroke"  transform=" translate(-349.04, -416.39)" d="M 326.44075 478.69145 C 320.5336715440645 478.69649678038763 314.66843630882295 477.7006326732092 309.09407 475.74613999999997 L 308.67906999999997 475.60062999999997 L 309.02086999999995 474.00199999999995 C 298.93199999999996 454.24125999999995 302.4158699999999 427.08158999999995 317.9197899999999 404.74956 C 332.0237899999999 384.43314999999996 353.50425999999993 369.64311 372.4534799999999 356.59673 L 372.4534799999999 356.59673 C 377.2248992640214 353.31095793485434 383.5118605630607 353.2454363915688 388.35072342655667 356.43105188083393 C 393.18958629005266 359.61666737009904 395.6144671775985 365.4175404190002 394.4822899999999 371.09916999999996 L 387.7830699999999 404.72367999999994 C 382.9060699999999 429.2090299999999 377.1072899999999 452.37992999999994 359.9441999999999 466.7851999999999 C 350.4830936963027 474.49795713464687 338.6472644513739 478.7041013361376 326.44075 478.69145 Z" stroke-linecap="round" />
</g>
		<g transform="matrix(1.14 0 0 1.14 -303.27 307.86)"  >
<path style="stroke: none; stroke-width: 1; stroke-dasharray: none; stroke-linecap: butt; stroke-dashoffset: 0; stroke-linejoin: miter; stroke-miterlimit: 4; fill: rgb(63,61,86); fill-rule: nonzero; opacity: 1;" vector-effect="non-scaling-stroke"  transform=" translate(-335.66, -478.71)" d="M 313.56269 560.80492 C 310.05537 535.25224 306.44676 509.36916 308.91285 483.5425 C 311.09830999999997 460.60539 318.09632999999997 438.20641 332.34315 419.83278 C 339.9053342900119 410.10051332718535 349.1071374015512 401.761882528628 359.5348599999999 395.19178 C 362.25334 393.47625999999997 364.75599 397.78403 362.04911 399.49293 C 344.00587222673937 410.8954911891242 330.0498458711345 427.73343086633076 322.19318999999996 447.57908000000003 C 313.51618999999994 469.64765 312.12293999999997 493.70565999999997 313.61749999999995 517.14921 C 314.52091999999993 531.32627 316.44064999999995 545.41038 318.36866 559.47788 C 318.68453901456655 560.7979451172357 317.9238740155979 562.1370831773088 316.62827999999996 562.54179 C 315.3026705841525 562.8988598073553 313.9365307401889 562.1228736134871 313.56433999999996 560.80143 Z" stroke-linecap="round" />
</g>
		<g transform="matrix(1.14 0 0 1.14 -243.02 340.87)"  >
<path style="stroke: none; stroke-width: 1; stroke-dasharray: none; stroke-linecap: butt; stroke-dashoffset: 0; stroke-linejoin: miter; stroke-miterlimit: 4; fill: rgb(60,185,255); fill-rule: nonzero; opacity: 1;" vector-effect="non-scaling-stroke"  transform=" translate(-388.5, -507.67)" d="M 370.91584 537.59868 C 357.8258771539079 537.5654161830703 345.61931987320406 530.9898150836765 338.39 520.0772 L 338.14682999999997 519.70805 L 339.11997999999994 518.8828599999999 C 342.0472199999999 502.79008999999996 356.22543999999994 488.4199699999999 375.29624999999993 482.2383299999999 C 392.6268099999999 476.6211399999999 411.82456999999994 477.5391099999999 428.75717999999995 478.3525899999999 L 428.75717999999995 478.3525899999999 C 433.07051306872785 478.55869206675015 436.828397845377 481.35891470680264 438.25932009115354 485.43319768055915 C 439.69024233693005 489.50748065431566 438.5085627584601 494.0425195959634 435.27133999999995 496.9004399999999 L 416.35191 513.6055199999998 C 402.558 525.78911 388.808 536.79009 372.2845 537.57335 C 371.828 537.58989 371.37043 537.59868 370.91584 537.59868 Z" stroke-linecap="round" />
</g>
		<g transform="matrix(1.14 0 0 1.14 -280.92 376.15)"  >
<path style="stroke: none; stroke-width: 1; stroke-dasharray: none; stroke-linecap: butt; stroke-dashoffset: 0; stroke-linejoin: miter; stroke-miterlimit: 4; fill: rgb(63,61,86); fill-rule: nonzero; opacity: 1;" vector-effect="non-scaling-stroke"  transform=" translate(-355.26, -538.62)" d="M 303.64854 575.49352 C 320.53416000000004 545.61652 340.11836000000005 512.41152 375.11518 501.79823 C 384.84514915904936 498.8574965365468 395.04760104941465 497.803980859311 405.17318 498.69441 C 408.36498 498.97011 407.56783 503.88896 404.38268 503.61498 C 387.4093236961501 502.20579692690694 370.46872390106097 506.6875775037208 356.41277 516.30583 C 342.88668 525.51256 332.35477000000003 538.3129700000001 323.44195 551.88555 C 317.98171 560.20055 313.09103000000005 568.8675499999999 308.20037 577.52287 C 306.63771 580.28948 302.06761 578.29173 303.64854 575.49352 Z" stroke-linecap="round" />
</g>
		<g transform="matrix(1.14 0 0 1.14 -130.68 342.08)"  >
<path style="stroke: none; stroke-width: 1; stroke-dasharray: none; stroke-linecap: butt; stroke-dashoffset: 0; stroke-linejoin: miter; stroke-miterlimit: 4; fill: rgb(60,185,255); fill-rule: nonzero; opacity: 1;" vector-effect="non-scaling-stroke"  transform=" translate(-487.05, -508.73)" d="M 477.29914 535.90434 C 474.71755597002885 535.9066677585196 472.1542461596819 535.4714692451216 469.71809 534.6172300000001 L 469.30309 534.4717300000001 L 469.48229 533.63579 C 465.13707999999997 525.02251 466.66148999999996 513.2354 473.38854 503.54497000000003 C 479.50523999999996 494.73345000000006 488.79918999999995 488.33497000000006 496.99742999999995 482.69048000000004 L 496.99742999999995 482.69048000000004 C 499.1520065567008 481.20664634379625 501.99102626781456 481.1770218828589 504.1760971728034 482.61557240270145 C 506.36116807779223 484.054122922544 507.4560913301527 486.6736750980539 506.9446899999999 489.2393 L 504.0535799999999 503.752 C 501.9378599999999 514.37212 499.4197899999999 524.42388 491.9422499999999 530.69927 C 487.80755317545277 534.0710930172531 482.63438851740983 535.9099567672789 477.29914 535.90434 Z" stroke-linecap="round" />
</g>
		<g transform="matrix(1.14 0 0 1.14 -137.27 372.74)"  >
<path style="stroke: none; stroke-width: 1; stroke-dasharray: none; stroke-linecap: butt; stroke-dashoffset: 0; stroke-linejoin: miter; stroke-miterlimit: 4; fill: rgb(63,61,86); fill-rule: nonzero; opacity: 1;" vector-effect="non-scaling-stroke"  transform=" translate(-481.28, -535.63)" d="M 471.74125 571.06078 C 470.22749 560.0322100000001 468.66999 548.86107 469.73438999999996 537.71434 C 470.67762 527.81468 473.69798 518.14726 479.84689999999995 510.21721 C 483.1107313584635 506.01677299918157 487.0822306379215 502.4178371800622 491.5828399999999 499.58221000000003 C 492.75614999999993 498.84179000000006 493.83627999999993 500.70102 492.66797999999994 501.43859000000003 C 484.8805225676484 506.3599464770593 478.85710464650515 513.6272058837966 475.4661699999999 522.19259 C 471.7211699999999 531.71737 471.11984999999993 542.10086 471.7648999999999 552.21908 C 472.1548299999999 558.3379199999999 472.9833799999999 564.4165899999999 473.8154999999999 570.48808 C 473.95185339939513 571.057825706643 473.62353623795275 571.6358118187205 473.06433999999985 571.8104599999999 C 472.49219921945667 571.9645945173894 471.90255571892783 571.6296580675847 471.74194999999986 571.0592999999999 Z" stroke-linecap="round" />
</g>
		<g transform="matrix(1.14 0 0 1.14 -111.32 386.98)"  >
<path style="stroke: none; stroke-width: 1; stroke-dasharray: none; stroke-linecap: butt; stroke-dashoffset: 0; stroke-linejoin: miter; stroke-miterlimit: 4; fill: rgb(60,185,255); fill-rule: nonzero; opacity: 1;" vector-effect="non-scaling-stroke"  transform=" translate(-504.04, -548.13)" d="M 496.496 561.32915 C 490.7502704155963 561.315114004194 485.39214912986245 558.4288851316173 482.21914999999996 553.63872 L 481.97646999999995 553.26958 L 482.51064999999994 552.81548 C 483.83340999999996 545.80864 490.00864999999993 539.56743 498.2977599999999 536.88091 C 505.8280299999999 534.44048 514.1375999999999 534.83791 521.4725699999999 535.19048 C 523.4497389166527 535.2848854144232 525.1723415650682 536.568401186156 525.8283255399474 538.4359649285627 C 526.4843095148266 540.3035286709694 525.9427287795642 542.3823415359977 524.4588899999999 543.69243 L 516.2933699999999 550.90243 C 510.30019999999985 556.19543 504.32265999999987 560.97567 497.09951999999987 561.31743 C 496.89827 561.32524 496.69661 561.32915 496.496 561.32915 Z" stroke-linecap="round" />
</g>
		<g transform="matrix(1.14 0 0 1.14 -127.61 402.21)"  >
<path style="stroke: none; stroke-width: 1; stroke-dasharray: none; stroke-linecap: butt; stroke-dashoffset: 0; stroke-linejoin: miter; stroke-miterlimit: 4; fill: rgb(63,61,86); fill-rule: nonzero; opacity: 1;" vector-effect="non-scaling-stroke"  transform=" translate(-489.74, -561.49)" d="M 467.46229 577.40044 C 474.75013 564.50544 483.20265 550.17424 498.30728999999997 545.59355 C 502.5067376510014 544.3243505383251 506.91010163849313 543.8696564507861 511.28029 544.25395 C 512.65786 544.3729500000001 512.3138 546.49595 510.93910999999997 546.3776700000001 C 503.61341383620015 545.7694522588555 496.3018515456068 547.7037859960441 490.23530999999997 551.85503 C 484.39745 555.82866 479.85186 561.35332 476.00509 567.21123 C 473.64846 570.79997 471.53765 574.54064 469.42681 578.27629 C 468.75242 579.47038 466.78 578.60808 467.46229 577.40044 Z" stroke-linecap="round" />
</g>
		<g transform="matrix(1.14 0 0 1.14 332.56 351.16)"  >
<path style="stroke: none; stroke-width: 1; stroke-dasharray: none; stroke-linecap: butt; stroke-dashoffset: 0; stroke-linejoin: miter; stroke-miterlimit: 4; fill: rgb(60,185,255); fill-rule: nonzero; opacity: 1;" vector-effect="non-scaling-stroke"  transform=" translate(-893.4, -516.71)" d="M 898.66633 534.93755 C 890.01789 534.93755 883.4261 530.2676299999999 878.65071 520.82134 C 874.07356 511.76469999999995 878.82063 503.94534 885.16926 500.51273999999995 C 891.53059 497.07230999999996 900.69172 497.38187999999997 905.77082 506.18558999999993 L 905.77082 506.18558999999993 C 910.72102 514.7647 911.2893799999999 523.6563 907.46028 532.61723 L 907.6487500000001 533.49712 L 907.1995400000001 533.62602 C 904.4301853006879 534.4588566414545 901.5579654200452 534.9003086319785 898.66633 534.93755 Z" stroke-linecap="round" />
</g>
		<g transform="matrix(1.14 0 0 1.14 337.4 381.84)"  >
<path style="stroke: none; stroke-width: 1; stroke-dasharray: none; stroke-linecap: butt; stroke-dashoffset: 0; stroke-linejoin: miter; stroke-miterlimit: 4; fill: rgb(63,61,86); fill-rule: nonzero; opacity: 1;" vector-effect="non-scaling-stroke"  transform=" translate(-897.64, -543.61)" d="M 907.20472 579.06078 C 911.62721 554.04723 911.9063799999999 522.36614 887.3621899999999 507.58232000000004 C 886.1898299999999 506.84175000000005 885.1096899999999 508.70097000000004 886.27797 509.43852000000004 C 909.9745 523.7710400000001 909.27064 554.37724 905.1295299999999 578.48821 C 904.9956466155598 579.0521573435558 905.3323286104409 579.6208629369634 905.891158919723 579.7747136839895 C 906.4499892290052 579.9285644310156 907.0303064605127 579.6123165401682 907.2039299999999 579.05931 Z" stroke-linecap="round" />
</g>
		<g transform="matrix(1.14 0 0 1.14 218.61 385.96)"  >
<path style="stroke: none; stroke-width: 1; stroke-dasharray: none; stroke-linecap: butt; stroke-dashoffset: 0; stroke-linejoin: miter; stroke-miterlimit: 4; fill: rgb(60,185,255); fill-rule: nonzero; opacity: 1;" vector-effect="non-scaling-stroke"  transform=" translate(-793.45, -547.22)" d="M 794.38313 559.35845 C 791.2933510062949 559.275195119738 788.2599934683614 558.5112687827585 785.4993400000001 557.12114 C 778.5413400000001 553.85552 777.7845000000001 546.99714 780.0257100000001 542.00591 C 782.2425000000001 537.0703599999999 787.8137900000002 533.12505 794.8079300000002 536.12798 C 801.1614514592161 538.659913064236 805.8729837941872 544.141862025286 807.4212200000002 550.80376 L 807.9905500000002 551.2861800000001 L 807.7102800000002 551.66318 C 803.88118 556.80278 799.47688 559.35845 794.38313 559.35845 Z" stroke-linecap="round" />
</g>
		<g transform="matrix(1.14 0 0 1.14 232.02 402.18)"  >
<path style="stroke: none; stroke-width: 1; stroke-dasharray: none; stroke-linecap: butt; stroke-dashoffset: 0; stroke-linejoin: miter; stroke-miterlimit: 4; fill: rgb(63,61,86); fill-rule: nonzero; opacity: 1;" vector-effect="non-scaling-stroke"  transform=" translate(-805.21, -561.45)" d="M 827.48365 577.40044 C 818.77485 560.72844 804.86695 541.87377 783.66511 544.25456 C 782.28804 544.37297 782.63211 546.49596 784.00679 546.37767 C 804.14579 544.2935699999999 817.2490300000001 562.4058699999999 825.51863 578.2767799999999 C 826.19355 579.47038 828.166 578.60808 827.48365 577.40044 Z" stroke-linecap="round" />
</g>
		<g transform="matrix(1.14 0 0 1.14 -1.95 422.46)"  >
<path style="stroke: none; stroke-width: 1; stroke-dasharray: none; stroke-linecap: butt; stroke-dashoffset: 0; stroke-linejoin: miter; stroke-miterlimit: 4; fill: rgb(202,202,202); fill-rule: nonzero; opacity: 1;" vector-effect="non-scaling-stroke"  transform=" translate(-599.97, -579.24)" d="M 991.473 580.24193 L 208.47299999999996 580.24193 C 207.92071525016917 580.24193 207.47299999999996 579.7942147498309 207.47299999999996 579.24193 C 207.47299999999996 578.6896452501692 207.92071525016917 578.24193 208.47299999999996 578.24193 L 991.473 578.24193 C 992.0252847498308 578.24193 992.473 578.6896452501692 992.473 579.24193 C 992.473 579.7942147498309 992.0252847498308 580.24193 991.473 580.24193 Z" stroke-linecap="round" />
</g>
		<g transform="matrix(1.14 0 0 1.14 81.27 347.22)"  >
<path style="stroke: none; stroke-width: 1; stroke-dasharray: none; stroke-linecap: butt; stroke-dashoffset: 0; stroke-linejoin: miter; stroke-miterlimit: 4; fill: rgb(202,202,202); fill-rule: nonzero; opacity: 1;" vector-effect="non-scaling-stroke"  transform=" translate(-672.97, -513.24)" d="M 803.473 514.24193 L 542.473 514.24193 C 541.9207152501691 514.24193 541.473 513.7942147498309 541.473 513.24193 C 541.473 512.6896452501692 541.9207152501691 512.24193 542.473 512.24193 L 803.473 512.24193 C 804.0252847498308 512.24193 804.473 512.6896452501692 804.473 513.24193 C 804.473 513.7942147498309 804.0252847498308 514.24193 803.473 514.24193 Z" stroke-linecap="round" />
</g>
		<g transform="matrix(1.14 0 0 1.14 39.52 204.04)"  >
<path style="stroke: none; stroke-width: 1; stroke-dasharray: none; stroke-linecap: butt; stroke-dashoffset: 0; stroke-linejoin: miter; stroke-miterlimit: 4; fill: rgb(63,61,86); fill-rule: nonzero; opacity: 1;" vector-effect="non-scaling-stroke"  transform=" translate(-636.35, -387.66)" d="M 676.65925 346.33034 L 674.94081 324.93870999999996 C 674.61030563649 324.01075065599133 673.8311490205028 323.31415243519183 672.8721163579042 323.08921237539556 C 671.9130836953055 322.8642723155993 670.9054513392445 323.1417811415425 670.19681 323.82600999999994 C 656.40549 327.20960999999994 650.84049 334.41013999999996 649.24643 343.45313999999996 C 642.6281414371792 342.05036507253504 635.8243874615272 341.7441358579001 629.10684 342.54668 C 633.9549900000001 335.64607 633.6207 328.61302 628.57761 321.45968 C 628.2893695906932 320.50839235811287 627.5337996270719 319.7711380759691 626.5757264766335 319.50632389664025 C 625.6176533261951 319.2415097173114 624.5907066393019 319.48607126119185 623.85483 320.15429 C 614.52652 324.86901 608.00183 330.7445 606.95114 338.88668 C 582.9024949582678 351.7836011804488 570.0678529678468 378.8488826460633 575.3002031635201 405.63116066171716 C 580.5325533591933 432.41343867737106 602.6099540107067 452.6580892376492 629.744293934126 455.55558836591024 C 656.8786338575452 458.45308749417126 682.7330699450171 443.3267650582965 693.5027629399713 418.25324083308294 C 704.2724559349256 393.17971660786935 697.4422956477878 364.0145592058045 676.65921 346.33035 Z" stroke-linecap="round" />
</g>
		<g transform="matrix(1.14 0 0 1.14 52.97 300.85)"  >
<path style="stroke: none; stroke-width: 1; stroke-dasharray: none; stroke-linecap: butt; stroke-dashoffset: 0; stroke-linejoin: miter; stroke-miterlimit: 4; fill: rgb(63,61,86); fill-rule: nonzero; opacity: 1;" vector-effect="non-scaling-stroke"  transform=" translate(-648.14, -472.57)" d="M 684.42568 433.13969 C 734.84068 426.67289999999997 763.2010700000001 508.90677999999997 681.86904 513.48833 C 676.87881 518.96342 637.76579 523.54173 604.6186600000001 515.9827700000001 C 574.8662400000001 517.1747700000001 541.0437700000001 478.2572100000001 582.7518400000001 425.1767700000001 Z" stroke-linecap="round" />
</g>
		<g transform="matrix(1.14 0 0 1.14 56.83 327.55)"  >
<polyline style="stroke: none; stroke-width: 1; stroke-dasharray: none; stroke-linecap: butt; stroke-dashoffset: 0; stroke-linejoin: miter; stroke-miterlimit: 4; fill: rgb(63,61,86); fill-rule: nonzero; opacity: 1;" vector-effect="non-scaling-stroke"  points="-17.44,-20.42 -17.44,21.18 2.01,21.18 17.44,-21.18 " />
</g>
		<g transform="matrix(1.14 0 0 1.14 114.58 335.44)"  >
<path style="stroke: none; stroke-width: 1; stroke-dasharray: none; stroke-linecap: butt; stroke-dashoffset: 0; stroke-linejoin: miter; stroke-miterlimit: 4; fill: rgb(63,61,86); fill-rule: nonzero; opacity: 1;" vector-effect="non-scaling-stroke"  transform=" translate(-702.19, -502.91)" d="M 703.5738 503.145 C 703.46687 502.99192 703.38923 502.83079 703.29646 502.67379999999997 Q 702.05354 502.71948999999995 700.81062 502.76541999999995 Z" stroke-linecap="round" />
</g>
		<g transform="matrix(1.14 0 0 1.14 153.93 323.14)"  >
<path style="stroke: none; stroke-width: 1; stroke-dasharray: none; stroke-linecap: butt; stroke-dashoffset: 0; stroke-linejoin: miter; stroke-miterlimit: 4; fill: rgb(63,61,86); fill-rule: nonzero; opacity: 1;" vector-effect="non-scaling-stroke"  transform=" translate(-736.71, -492.12)" d="M 780.20906 479.10726 C 774.0000600000001 469.18349 758.80818 466.4261 749.50789 473.53493 C 745.31111 476.74280999999996 742.48249 481.38027 738.8970499999999 485.25948 C 732.865447509169 491.7438391327523 724.8208441401503 496.0013454062049 716.067 497.342 C 709.97325 498.25557 703.52793 497.7596 697.90049 500.26875 C 692.44297 502.70192000000003 688.32579 509.64797 691.29649 514.67381 Q 722.7173799999999 513.51567 754.1378 512.35781 C 760.16417 512.1356999999999 766.40489 511.86098 771.79356 509.15394999999995 C 782.254 503.89919 786.418 489.03108 780.20906 479.10726 Z" stroke-linecap="round" />
</g>
		<g transform="matrix(1.14 0 0 1.14 36.37 260.75)"  >
<path style="stroke: none; stroke-width: 1; stroke-dasharray: none; stroke-linecap: butt; stroke-dashoffset: 0; stroke-linejoin: miter; stroke-miterlimit: 4; fill: rgb(255,255,255); fill-rule: nonzero; opacity: 1;" vector-effect="non-scaling-stroke"  transform=" translate(-633.59, -437.39)" d="M 631.56544 450.36156 C 622.9614609958326 450.4404795349733 614.4341602509553 448.7388768609415 606.5194399999999 445.36369 C 589.9944399999999 438.19051 582.4201999999999 426.08534000000003 582.1058699999999 425.57362 C 581.8906337084351 425.21711620904495 582.0031582461486 424.7537461899771 582.357927147517 424.5356621676514 C 582.7126960488854 424.31757814532574 583.176952229981 424.4263887352197 583.3978699999999 424.7794 C 589.384522479789 433.2815663875233 597.6287413917429 439.94087680473604 607.1998099999998 444.00554 C 622.0806699999998 450.43932 647.4925299999999 453.66286 684.0449599999998 432.48354 C 684.2793983992331 432.3471516781722 684.5688278572569 432.3463513802115 684.8040169173148 432.48144114072306 C 685.0392059773727 432.6165309012346 685.1843431828106 432.8669410512815 685.1846533615094 433.1381661259984 C 685.1849635402082 433.4093912007153 685.0403994622882 433.6601326592417 684.8055199999999 433.79576000000003 L 684.8055199999999 433.79576000000003 C 663.34864 446.22862 645.633 450.36156 631.56544 450.36156 Z" stroke-linecap="round" />
</g>
		<g transform="matrix(1.14 0 0 1.14 37.82 228.21)"  >
<path style="stroke: none; stroke-width: 1; stroke-dasharray: none; stroke-linecap: butt; stroke-dashoffset: 0; stroke-linejoin: miter; stroke-miterlimit: 4; fill: rgb(255,255,255); fill-rule: nonzero; opacity: 1;" vector-effect="non-scaling-stroke"  transform=" translate(-634.85, -408.84)" d="M 634.85414 411.87483 C 631.9238887088709 411.8715344527065 629.5492710675652 409.4969212849155 629.54597 406.56667 C 629.5481129935828 406.14939249850124 629.886986995699 405.81225436772405 630.3042700000001 405.81225436772405 C 630.7215530043011 405.81225436772405 631.0604270064173 406.14939249850124 631.06257 406.56667 C 631.0659668142644 408.6582726939047 632.7624995478423 410.352052453823 634.854105 410.352052453823 C 636.9457104521579 410.352052453823 638.6422431857358 408.6582726939047 638.6456400000001 406.56667 C 638.6477829935828 406.14939249850124 638.986656995699 405.81225436772405 639.4039400000001 405.81225436772405 C 639.8212230043011 405.81225436772405 640.1600970064173 406.14939249850124 640.1622400000001 406.56667 C 640.158950004862 409.4968985546474 637.784368517272 411.87150688327074 634.85414 411.87483 Z" stroke-linecap="round" />
</g>
		<g transform="matrix(1.14 0 0 1.14 38.25 214.8)"  >
<ellipse style="stroke: none; stroke-width: 1; stroke-dasharray: none; stroke-linecap: butt; stroke-dashoffset: 0; stroke-linejoin: miter; stroke-miterlimit: 4; fill: rgb(255,255,255); fill-rule: nonzero; opacity: 1;" vector-effect="non-scaling-stroke"  cx="0" cy="0" rx="6.06647" ry="2.33326" />
</g>
		<g transform="matrix(1.14 0 0 1.14 7.93 194.81)"  >
<path style="stroke: none; stroke-width: 1; stroke-dasharray: none; stroke-linecap: butt; stroke-dashoffset: 0; stroke-linejoin: miter; stroke-miterlimit: 4; fill: rgb(255,255,255); fill-rule: nonzero; opacity: 1;" vector-effect="non-scaling-stroke"  transform=" translate(-608.64, -379.54)" d="M 594.44239 397.2589 C 597.9566787725887 393.0516657310286 603.1561565854107 390.6200291660861 608.63804 390.6200291660861 C 614.1199234145894 390.6200291660861 619.3194012274114 393.0516657310286 622.83369 397.2589 C 631.0462599515637 389.41886237008316 631.3482614463452 376.40565421307366 623.5082293833023 368.19307894716013 C 615.6681973202592 359.9805036812466 602.6549893679637 359.6784933654913 594.442408787704 367.5185198616569 C 586.2298282074444 375.3585463578225 585.9278090707154 388.37175410539794 593.76783 396.58434 Q 594.09724 396.92945 594.44239 397.2589 Z" stroke-linecap="round" />
</g>
		<g transform="matrix(1.14 0 0 1.14 71.2 194.81)"  >
<path style="stroke: none; stroke-width: 1; stroke-dasharray: none; stroke-linecap: butt; stroke-dashoffset: 0; stroke-linejoin: miter; stroke-miterlimit: 4; fill: rgb(255,255,255); fill-rule: nonzero; opacity: 1;" vector-effect="non-scaling-stroke"  transform=" translate(-664.15, -379.54)" d="M 649.94954 397.2589 C 653.4638037480804 393.0516489787586 658.6632747708442 390.6199982819944 664.1451549999999 390.6199982819944 C 669.6270352291557 390.6199982819944 674.8265062519195 393.0516489787586 678.3407699999999 397.2589 C 684.3552088885612 391.51731974289595 686.3187828390622 382.7180818495095 683.3158803733794 374.9642572593732 C 680.3129779076967 367.210432669237 672.9349692688908 362.0290044212343 664.6222084062803 361.83606444596666 C 656.3094475436698 361.64312447069904 648.6989904282715 366.47666899394267 645.3395813723877 374.08282372470194 C 641.980172316504 381.68897845546115 643.5333894341834 390.5698414061458 649.2749699999999 396.58428 L 649.2749699999999 396.58428 L 649.2749699999999 396.58428 Q 649.60429 396.92946 649.94954 397.2589 Z" stroke-linecap="round" />
</g>
		<g transform="matrix(1.14 0 0 1.14 -2.35 200.32)"  >
<circle style="stroke: none; stroke-width: 1; stroke-dasharray: none; stroke-linecap: butt; stroke-dashoffset: 0; stroke-linejoin: miter; stroke-miterlimit: 4; fill: rgb(63,61,86); fill-rule: nonzero; opacity: 1;" vector-effect="non-scaling-stroke"  cx="0" cy="0" r="7.0718" />
</g>
		<g transform="matrix(1.14 0 0 1.14 60.93 200.32)"  >
<circle style="stroke: none; stroke-width: 1; stroke-dasharray: none; stroke-linecap: butt; stroke-dashoffset: 0; stroke-linejoin: miter; stroke-miterlimit: 4; fill: rgb(63,61,86); fill-rule: nonzero; opacity: 1;" vector-effect="non-scaling-stroke"  cx="0" cy="0" r="7.0718" />
</g>
		<g transform="matrix(1.14 0 0 1.14 71.97 225)"  >
<circle style="stroke: none; stroke-width: 1; stroke-dasharray: none; stroke-linecap: butt; stroke-dashoffset: 0; stroke-linejoin: miter; stroke-miterlimit: 4; fill: rgb(255,101,132); fill-rule: nonzero; opacity: 1;" vector-effect="non-scaling-stroke"  cx="0" cy="0" r="6.19684" />
</g>
		<g transform="matrix(1.14 0 0 1.14 8.13 225)"  >
<circle style="stroke: none; stroke-width: 1; stroke-dasharray: none; stroke-linecap: butt; stroke-dashoffset: 0; stroke-linejoin: miter; stroke-miterlimit: 4; fill: rgb(255,101,132); fill-rule: nonzero; opacity: 1;" vector-effect="non-scaling-stroke"  cx="0" cy="0" r="6.19684" />
</g>
		<g transform="matrix(0.97 -0.6 0.6 0.97 -76.97 331.45)"  >
<ellipse style="stroke: none; stroke-width: 1; stroke-dasharray: none; stroke-linecap: butt; stroke-dashoffset: 0; stroke-linejoin: miter; stroke-miterlimit: 4; fill: rgb(63,61,86); fill-rule: nonzero; opacity: 1;" vector-effect="non-scaling-stroke"  cx="0" cy="0" rx="5.30817" ry="15.92447" />
</g>
		<g transform="matrix(1.14 0 0 1.14 -53.77 317.5)"  >
<polyline style="stroke: none; stroke-width: 1; stroke-dasharray: none; stroke-linecap: butt; stroke-dashoffset: 0; stroke-linejoin: miter; stroke-miterlimit: 4; fill: rgb(63,61,86); fill-rule: nonzero; opacity: 1;" vector-effect="non-scaling-stroke"  points="13.43,-25.38 -20.35,10.21 -11.54,25.38 20.35,6.32 " />
</g>
		<g transform="matrix(0.17 -1.13 1.13 0.17 10.94 360.94)"  >
<ellipse style="stroke: none; stroke-width: 1; stroke-dasharray: none; stroke-linecap: butt; stroke-dashoffset: 0; stroke-linejoin: miter; stroke-miterlimit: 4; fill: rgb(63,61,86); fill-rule: nonzero; opacity: 1;" vector-effect="non-scaling-stroke"  cx="0" cy="0" rx="5.30817" ry="15.92447" />
</g>
		<g transform="matrix(1.14 0 0 1.14 19.53 333.69)"  >
<polyline style="stroke: none; stroke-width: 1; stroke-dasharray: none; stroke-linecap: butt; stroke-dashoffset: 0; stroke-linejoin: miter; stroke-miterlimit: 4; fill: rgb(63,61,86); fill-rule: nonzero; opacity: 1;" vector-effect="non-scaling-stroke"  points="-14.32,-26.19 -9.08,22.61 8.15,26.19 14.32,-10.93 " />
</g>
		<g transform="matrix(1.13 -0.13 0.13 1.13 89.24 356.45)"  >
<ellipse style="stroke: none; stroke-width: 1; stroke-dasharray: none; stroke-linecap: butt; stroke-dashoffset: 0; stroke-linejoin: miter; stroke-miterlimit: 4; fill: rgb(63,61,86); fill-rule: nonzero; opacity: 1;" vector-effect="non-scaling-stroke"  cx="0" cy="0" rx="15.92447" ry="5.30817" />
</g>
		<g transform="matrix(1.14 0 0 1.14 87.28 329.28)"  >
<polyline style="stroke: none; stroke-width: 1; stroke-dasharray: none; stroke-linecap: butt; stroke-dashoffset: 0; stroke-linejoin: miter; stroke-miterlimit: 4; fill: rgb(63,61,86); fill-rule: nonzero; opacity: 1;" vector-effect="non-scaling-stroke"  points="-17.47,-22.95 -0.11,22.95 17.47,22.07 14.08,-15.4 " />
</g>
		<g transform="matrix(8.25 0 0 4.62 65.7 -42.07)" id="4477070"  >
<rect style="stroke: rgb(0,0,0); stroke-width: 0; stroke-dasharray: none; stroke-linecap: butt; stroke-dashoffset: 0; stroke-linejoin: miter; stroke-miterlimit: 4; fill: rgb(101,101,101); fill-rule: nonzero; opacity: 1;" vector-effect="non-scaling-stroke"  x="-33.085" y="-33.085" rx="0" ry="0" width="66.17" height="66.17" />
</g>
		<g transform="matrix(-0.56 -0.28 0.54 -1.08 190.9 121.21)" id="afd32c22-f69d-49ac-b828-d43205ccf018"  >
<polygon style="stroke: rgb(0,0,0); stroke-width: 0; stroke-dasharray: none; stroke-linecap: butt; stroke-dashoffset: 0; stroke-linejoin: miter; stroke-miterlimit: 4; fill: rgb(101,101,101); fill-rule: nonzero; opacity: 1;" vector-effect="non-scaling-stroke"  points="-37.43,32.41 0,-32.41 37.43,32.41 " />
</g>
		<g transform="matrix(7.62 0 0 4.02 65.75 -43.11)" id="4"  >
<rect style="stroke: rgb(0,0,0); stroke-width: 0; stroke-dasharray: none; stroke-linecap: butt; stroke-dashoffset: 0; stroke-linejoin: miter; stroke-miterlimit: 4; fill: rgb(255,255,255); fill-rule: nonzero; opacity: 1;" vector-effect="non-scaling-stroke"  x="-33.085" y="-33.085" rx="0" ry="0" width="66.17" height="66.17" />
</g>
		<g transform="matrix(0.24 0 0 0.24 212.22 1.29)"  >
<circle style="stroke: none; stroke-width: 1; stroke-dasharray: none; stroke-linecap: butt; stroke-dashoffset: 0; stroke-linejoin: miter; stroke-miterlimit: 4; fill: rgb(160,97,106); fill-rule: nonzero; opacity: 1;" vector-effect="non-scaling-stroke"  cx="0" cy="0" r="86.34897" />
</g>
		<g transform="matrix(0.24 0 0 0.24 209.59 24.71)"  >
<polygon style="stroke: none; stroke-width: 1; stroke-dasharray: none; stroke-linecap: butt; stroke-dashoffset: 0; stroke-linejoin: miter; stroke-miterlimit: 4; fill: rgb(160,97,106); fill-rule: nonzero; opacity: 1;" vector-effect="non-scaling-stroke"  points="-60.5,8.09 -42.5,-37.91 50.5,-51.91 60.5,49.91 -33.5,51.91 -60.5,8.09 " />
</g>
		<g transform="matrix(0.24 0 0 0.24 213.31 -12.17)"  >
<path style="stroke: none; stroke-width: 1; stroke-dasharray: none; stroke-linecap: butt; stroke-dashoffset: 0; stroke-linejoin: miter; stroke-miterlimit: 4; fill: rgb(47,46,65); fill-rule: nonzero; opacity: 1;" vector-effect="non-scaling-stroke"  transform=" translate(-275.3, -204.85)" d="M 357.94449 276.8613 C 356.82381999999996 281.35095 354.55847 292.04102 351.02068999999995 292.09363 C 348.13045999999997 292.13571 345.36400999999995 245.75897000000003 348.25115999999997 238.08795000000003 C 351.56753999999995 229.27524000000003 342.85229999999996 218.12733000000003 336.28704999999997 212.40475000000004 C 324.48281999999995 202.11535000000003 298.28009 224.20941000000005 271.63586999999995 214.20062000000004 C 270.92954 213.93580000000006 271.07028999999994 213.96560000000005 262.65653 210.60888000000006 C 236.76686999999998 200.27914000000007 235.40592999999998 199.98100000000005 233.92266999999998 199.83367000000007 C 221.37221 198.59200000000007 206.05561999999998 208.86211000000006 199.80120999999997 221.38405000000006 C 193.29952999999998 234.40058000000005 198.73183999999998 245.56511000000006 192.61774999999997 277.0558900000001 C 191.90528999999998 280.7265400000001 190.78636999999998 285.95805000000007 189.02600999999999 286.03523000000007 C 185.80782 286.17552000000006 182.66550999999998 268.9867700000001 181.84255 264.48485000000005 C 178.39462999999998 245.62299000000004 175.07035 227.43810000000005 181.84255 207.01714000000004 C 182.58132999999998 204.78985000000003 187.13413 196.52256000000006 196.20947999999999 180.07915000000003 C 209.28387999999998 156.39090000000002 215.85966 144.50206000000003 217.75985999999997 142.36595000000003 C 231.38844999999998 127.03971000000003 256.19561 113.05861000000003 277.02342999999996 119.01969000000003 C 287.55046999999996 122.03268000000003 285.66295999999994 126.87660000000002 298.57381 131.59074000000004 C 321.58202 139.99131000000003 341.57856999999996 129.71771000000004 345.26635 136.97834000000003 C 347.22005 140.82436000000004 341.75399 143.99520000000004 341.67461 151.34527000000003 C 341.53868 163.95667000000003 357.48884999999996 167.60102000000003 366.81672999999995 180.07913000000002 C 371.83119999999997 186.78732000000002 380.41425999999996 186.85925000000003 357.94444999999996 276.86125000000004 L 357.94447999999994 276.86128 Z" stroke-linecap="round" />
</g>
		<g transform="matrix(0.24 0 0 0.24 212.75 44.68)"  >
<path style="stroke: none; stroke-width: 1; stroke-dasharray: none; stroke-linecap: butt; stroke-dashoffset: 0; stroke-linejoin: miter; stroke-miterlimit: 4; fill: rgb(60,185,255); fill-rule: nonzero; opacity: 1;" vector-effect="non-scaling-stroke"  transform=" translate(-272.98, -441.72)" d="M 464.92017 442.61035 C 461.43995 446.52051 457.83008 450.35058 454.09009 454.09082 C 403.8501 504.33008 337.05004999999994 532 266 532 C 204.59009 532 146.36011000000002 511.33008 99.25 473.28027 C 99.21997 473.26074 99.19995 473.24023 99.17017 473.20995999999997 C 92.92017 468.17089999999996 86.87012 462.81055 81.03003 457.15038999999996 C 81.13989 456.27050999999994 81.26001 455.40038999999996 81.38989 454.54004 C 82.20996 448.74024 83.12011 443.20995999999997 84.13989 438.12012 C 92.48998999999999 396.40039 202.3601 352.60059 205.21997 351.45995999999997 C 205.26001 351.45018999999996 205.28002999999998 351.44043 205.28002999999998 351.44043 C 205.28002999999998 351.44043 219.42016999999998 403.56055 280.01000999999997 402.89063 C 321.28002999999995 402.44043 313.28002999999995 351.44043 313.28002999999995 351.44043 C 313.28002999999995 351.44043 313.78002999999995 351.54004 314.71996999999993 351.74023 C 326.6398899999999 354.27049999999997 409.40014999999994 372.45019 442.05004999999994 397.26074 C 451.99999999999994 404.82031 459.1398899999999 420.9209 464.27001999999993 440.12012 C 464.4899899999999 440.94043 464.69994999999994 441.78028 464.9201699999999 442.61035 Z" stroke-linecap="round" />
</g>
		<g transform="matrix(0.24 0 0 0.24 211.08 2.51)"  >
<path style="stroke: none; stroke-width: 1; stroke-dasharray: none; stroke-linecap: butt; stroke-dashoffset: 0; stroke-linejoin: miter; stroke-miterlimit: 4; fill: rgb(63,61,86); fill-rule: nonzero; opacity: 1;" vector-effect="non-scaling-stroke"  transform=" translate(-266, -266)" d="M 454.09009 77.91016 C 403.8501 27.6709 337.05005 0 266 0 C 194.94995 0 128.15015 27.6709 77.90991 77.91016 C 27.67017 128.15039 0 194.9502 0 266 C 0 330.85059 23.05005 392.16016 65.29004 440.57031 C 69.32007 445.20019 73.53003000000001 449.70996 77.90991000000001 454.09082 C 78.93994 455.12012 79.97998000000001 456.15039 81.03003000000001 457.15039 C 86.87012000000001 462.81055000000003 92.92017000000001 468.1709 99.17017000000001 473.20996 C 99.19996000000002 473.24023 99.21997000000002 473.26074 99.25000000000001 473.28027000000003 C 146.36012000000002 511.33007000000003 204.5901 532 266.00001000000003 532 C 337.05006000000003 532 403.85011000000003 504.33008 454.0901 454.09082 C 457.83009 450.35059 461.43995 446.52051 464.92018 442.61035 C 508.29005 393.89062 532.00001 331.77051 532.00001 266 C 532.00001 194.9502 504.33009 128.15039 454.0901 77.91015999999999 Z M 464.27002 440.12012000000004 C 456.40015 449.07032000000004 447.93994 457.49024000000003 438.93994 465.30078000000003 C 421.87012 480.15039 402.87012 492.83008 382.38013 502.93066000000005 C 375.18994000000004 506.48046000000005 367.82007 509.70996 360.28003 512.60058 C 330.98999000000003 523.84081 299.19995 529.99999 266 529.99999 C 233.95996 529.99999 203.23999 524.2607300000001 174.81006 513.76073 C 163.13988999999998 509.45995 151.86011 504.35056999999995 141.03003 498.49998999999997 C 139.43994 497.64061 137.86011000000002 496.77049999999997 136.29004 495.88084999999995 C 128.03003 491.20018999999996 120.04004 486.09081 112.37012 480.5703 C 101.38013 472.69041999999996 91.02002 463.98046 81.3899 454.54003 C 75.99 449.24999 70.83009 443.74023 65.90015 438.01073 C 26.09009 391.77051 2 331.65039 2 266 C 2 120.43066 120.42993 2 266 2 C 411.57007 2 530 120.43066 530 266 C 530 332.66016 505.17017 393.62012 464.27002 440.12012 Z" stroke-linecap="round" />
</g>
		<g transform="matrix(0.2 0 0 0.2 -100.31 -86.7)"  >
<circle style="stroke: none; stroke-width: 1; stroke-dasharray: none; stroke-linecap: butt; stroke-dashoffset: 0; stroke-linejoin: miter; stroke-miterlimit: 4; fill: rgb(255,182,182); fill-rule: nonzero; opacity: 1;" vector-effect="non-scaling-stroke"  cx="0" cy="0" r="86.34897" />
</g>
		<g transform="matrix(0.2 0 0 0.2 -99.92 -57.28)"  >
<polygon style="stroke: none; stroke-width: 1; stroke-dasharray: none; stroke-linecap: butt; stroke-dashoffset: 0; stroke-linejoin: miter; stroke-miterlimit: 4; fill: rgb(255,182,182); fill-rule: nonzero; opacity: 1;" vector-effect="non-scaling-stroke"  points="-51.5,-48 -55.4,-87.43 22.5,-102 68.5,10 -11.5,102 -68.5,-10 -51.5,-48 " />
</g>
		<g transform="matrix(0.2 0 0 0.2 -102.35 -89.55)"  >
<path style="stroke: none; stroke-width: 1; stroke-dasharray: none; stroke-linecap: butt; stroke-dashoffset: 0; stroke-linejoin: miter; stroke-miterlimit: 4; fill: rgb(47,46,65); fill-rule: nonzero; opacity: 1;" vector-effect="non-scaling-stroke"  transform=" translate(-260.55, -246.7)" d="M 216.0374 340.35736 L 233.06851 344.20538000000005 C 233.06851 344.20538000000005 219.6803 301.75085000000007 224.22455 297.69772000000006 C 228.76882 293.64456000000007 239.90462 300.03100000000006 239.90462 300.03100000000006 L 251.60663 313.15090000000004 L 265.86057 298.63851000000005 C 265.86057 298.63851000000005 281.33552 279.39641000000006 287.39454 273.99221000000006 C 293.45356000000004 268.58801000000005 283.72135000000003 248.52857000000006 283.72135000000003 248.52857000000006 C 283.72135000000003 248.52857000000006 373.6132 224.28934000000007 340.16434000000004 180.68889000000007 C 340.16434000000004 180.68889000000007 320.55341000000004 146.50437000000008 314.16700000000003 157.64018000000007 C 307.78059 168.77598000000006 300.16538 151.09005000000008 300.16538 151.09005000000008 L 276.91157000000004 155.51203000000007 C 276.91157000000004 155.51203000000007 231.01728000000003 128.45161000000007 187.45826000000005 186.34162000000006 C 143.89924000000005 244.23165000000006 216.03742000000005 340.35734 216.03742000000005 340.35734 L 216.03740000000005 340.35734 Z" stroke-linecap="round" />
</g>
		<g transform="matrix(0.2 0 0 0.2 -100.01 -48.35)"  >
<path style="stroke: none; stroke-width: 1; stroke-dasharray: none; stroke-linecap: butt; stroke-dashoffset: 0; stroke-linejoin: miter; stroke-miterlimit: 4; fill: rgb(60,185,255); fill-rule: nonzero; opacity: 1;" vector-effect="non-scaling-stroke"  transform=" translate(-272.27, -452.69)" d="M 433.16003 472.95001 C 385.97003 511.21002000000004 327.59002 532 266 532 C 209.76001 532 156.19 514.66003 111.38 482.52002 C 111.46002 481.67999 111.54003 480.85004 111.61004 480.02002 C 112.80004 467.02002 113.86004 454.38000999999997 114.55999 443.90002 C 117.27001 403.21002 212.2 376.09002 212.2 376.09002 C 212.2 376.09002 212.62999 376.52000999999996 213.49004 377.27000999999996 C 218.73003 381.86999 239.99999 398.54997999999995 277.30003999999997 403.21000999999995 C 310.55998999999997 407.36997999999994 321.51 387.63999999999993 324.81999999999994 378.18998999999997 C 325.81999999999994 375.30998999999997 326.12004999999994 373.37998999999996 326.12004999999994 373.37998999999996 L 423.75999999999993 419.48997999999995 C 430.12999999999994 428.5900199999999 432.62004999999994 448.18998999999997 433.1100399999999 470.22002 C 433.12999999999994 471.12998999999996 433.1500199999999 472.03002 433.1600299999999 472.95 Z" stroke-linecap="round" />
</g>
		<g transform="matrix(0.2 0 0 0.2 -101.26 -85.69)"  >
<path style="stroke: none; stroke-width: 1; stroke-dasharray: none; stroke-linecap: butt; stroke-dashoffset: 0; stroke-linejoin: miter; stroke-miterlimit: 4; fill: rgb(63,61,86); fill-rule: nonzero; opacity: 1;" vector-effect="non-scaling-stroke"  transform=" translate(-266, -266)" d="M 454.09003 77.91003 C 403.85004 27.66998 337.05005 0 266 0 C 194.94995 0 128.15002 27.66998 77.91003 77.91003 C 27.67004 128.15002 0 194.95001 0 266 C 0 330.85004000000004 23.05005 392.16003 65.29004 440.57001 C 69.32001000000001 445.20001 73.53003000000001 449.71002000000004 77.91004000000001 454.09003 C 78.94001000000002 455.12 79.98005 456.15003 81.03004000000001 457.15003 C 83.83003000000001 459.85999000000004 86.68006000000001 462.51002 89.58003000000001 465.08002 C 91.34004 466.65003 93.12007000000001 468.19001 94.92006 469.70002 C 96.33003000000001 470.89002 97.74007 472.06001 99.17006 473.21003 C 99.20003000000001 473.24 99.22005 473.26002 99.25002 473.28004000000004 C 103.22005 476.47999000000004 107.26003 479.56001000000003 111.38002 482.52003 C 156.19002 514.66004 209.76001000000002 532.00001 266 532.00001 C 327.59003 532.00001 385.97003 511.21002999999996 433.16003 472.95002 C 437.01001 469.83002 440.78003 466.59003 444.48004000000003 463.24 C 447.75000000000006 460.28004 450.95001 457.22999 454.09003 454.09004 C 455.08002 453.10005 456.07001 452.10005 457.04004000000003 451.09004 C 459.74005000000005 448.31001 462.36005000000006 445.47999 464.92004000000003 442.61 C 508.29004000000003 393.89003 532 331.77003 532 266.00001 C 532 194.95002 504.33002 128.15003 454.09003 77.91003999999998 Z M 464.27002 440.12 C 461.77002 442.96003 459.21002 445.76001 456.59003 448.49 C 452.51001 452.74 448.30005 456.86 443.95002 460.83003 C 442.30006 462.35005 440.63000999999997 463.83003 438.94001 465.3 C 437.02002999999996 466.97004 435.08002 468.61 433.11005 470.22004000000004 C 417.58002 482.97004000000004 400.57001 493.97004000000004 382.38000999999997 502.93000000000006 C 375.19001 506.47999000000004 367.82000999999997 509.7100300000001 360.28002999999995 512.60004 C 330.99004999999994 523.8400300000001 299.20000999999996 530 265.99999999999994 530 C 233.96001999999993 530 203.24004999999994 524.26001 174.80999999999995 513.76001 C 163.14001999999994 509.46002 151.86004999999994 504.35004 141.03002999999995 498.49999999999994 C 139.43999999999994 497.64000999999996 137.86004999999994 496.77001999999993 136.29003999999995 495.87999999999994 C 128.03002999999995 491.20000999999996 120.04003999999995 486.0900199999999 112.37005999999995 480.56999999999994 C 112.12005999999995 480.39000999999996 111.86004999999996 480.19999999999993 111.61004999999996 480.02000999999996 C 106.15002999999996 476.08000999999996 100.84002999999996 471.92997999999994 95.71002999999996 467.56999999999994 C 93.83002999999997 465.9799699999999 91.97003999999995 464.3699899999999 90.14001999999996 462.7200199999999 C 87.16003999999997 460.06999999999994 84.24005999999997 457.3400199999999 81.39001999999996 454.5399699999999 C 75.99005999999997 449.2499899999999 70.83001999999996 443.73997999999995 65.90002999999996 438.00999999999993 C 26.09003 391.77002 2 331.65002 2 266 C 2 120.42999 120.43005 2 266 2 C 411.56995 2 530 120.42999 530 266 C 530 332.66003 505.17004 393.62 464.27002 440.12 Z" stroke-linecap="round" />
</g>
		<g transform="matrix(0.22 0 0 0.22 112.98 -77.49)"  >
<polygon style="stroke: none; stroke-width: 1; stroke-dasharray: none; stroke-linecap: butt; stroke-dashoffset: 0; stroke-linejoin: miter; stroke-miterlimit: 4; fill: rgb(160,97,106); fill-rule: nonzero; opacity: 1;" vector-effect="non-scaling-stroke"  points="36.4,53.81 49.06,-25.32 -36.4,-60.14 -49.06,60.14 36.4,53.81 " />
</g>
		<g transform="matrix(0.22 0 0 0.22 110.08 -53.38)"  >
<path style="stroke: none; stroke-width: 1; stroke-dasharray: none; stroke-linecap: butt; stroke-dashoffset: 0; stroke-linejoin: miter; stroke-miterlimit: 4; fill: rgb(60,185,255); fill-rule: nonzero; opacity: 1;" vector-effect="non-scaling-stroke"  transform=" translate(-247.45, -443.01)" d="M 382.94672 504.16492 C 375.60929000000004 507.74219 368.13230000000004 510.97141 360.5434 513.83625 C 345.36527 519.57954 329.69815 523.9129099999999 313.62571 526.8063999999999 C 297.91663000000005 529.64258 281.78822 531.08246 265.6598 531.08246 C 243.87101 531.08246 222.20812 528.46875 201.25804000000002 523.29736 C 193.05427000000003 521.28558 184.78023000000002 518.82611 176.64641000000003 515.95996 C 175.79372000000004 515.6528900000001 174.92739000000003 515.34576 174.07469000000003 515.03729 C 163.98402000000004 511.37676999999996 154.06090000000003 507.08569 144.51549000000003 502.23636 C 143.22946000000002 501.59351 141.94377000000003 500.93567 140.65808000000004 500.23685 C 139.23250000000004 499.51075000000003 137.82091000000005 498.74234 136.39532000000003 497.94529 C 134.57836000000003 496.95304 132.77540000000002 495.9185 130.97242000000003 494.87028 C 124.93501000000003 491.37626 118.99519000000002 487.60245999999995 113.32083000000003 483.67579 L 112.94345000000003 483.42466 C 112.60804000000003 483.18717000000004 112.27263000000002 482.96333000000004 111.95120000000003 482.72587000000004 C 112.16070000000003 481.62171000000006 112.35656000000003 480.61445000000003 112.53809000000003 479.72047000000003 C 113.23689000000003 476.21281000000005 113.69821000000003 474.28428 113.69821000000003 474.28428 L 151.96448000000004 395.23496 L 162.62839000000002 373.20902 L 167.82744000000002 371.07029 L 207.10028000000003 354.92823 L 303.08771 354.92823 L 333.37372 367.45072 C 333.37372 367.45072 333.52762 368.02396 333.83504999999997 369.12811999999997 C 336.85375999999997 379.95957 354.46371 441.45419999999996 381.78697999999997 501.62082999999996 C 382.16402 502.45883999999995 382.55571999999995 503.31186999999994 382.94676999999996 504.16489999999993 L 382.94670999999994 504.1649299999999 Z" stroke-linecap="round" />
</g>
		<g transform="matrix(0.22 0 0 0.22 116.24 -96.64)"  >
<circle style="stroke: none; stroke-width: 1; stroke-dasharray: none; stroke-linecap: butt; stroke-dashoffset: 0; stroke-linejoin: miter; stroke-miterlimit: 4; fill: rgb(160,97,106); fill-rule: nonzero; opacity: 1;" vector-effect="non-scaling-stroke"  cx="0" cy="0" r="87.14982" />
</g>
		<g transform="matrix(0.22 0 0 0.22 81.3 -55.08)"  >
<path style="stroke: none; stroke-width: 1; stroke-dasharray: none; stroke-linecap: butt; stroke-dashoffset: 0; stroke-linejoin: miter; stroke-miterlimit: 4; fill: rgb(60,185,255); fill-rule: nonzero; opacity: 1;" vector-effect="non-scaling-stroke"  transform=" translate(-116.63, -435.28)" d="M 167.97998 370.32001 L 167.83002000000002 371.07001 L 141.26001000000002 497.39997000000005 L 141.03003 498.50001000000003 L 140.65997000000002 500.24 C 139.22998 499.51002 137.82000000000002 498.74 136.40002 497.95002 C 134.58001000000002 496.95002 132.78002 495.91999 130.96997000000002 494.87 C 124.94000000000001 491.38001 119.00000000000001 487.59998 113.32001000000002 483.68 L 112.94001000000003 483.41999 C 112.60999000000002 483.19001 112.27003000000003 482.95997 111.95002000000002 482.72999 C 107.60999000000002 479.70002 103.38001000000003 476.53999 99.25001000000002 473.27997999999997 C 99.21998000000002 473.26001999999994 99.20002000000002 473.23999999999995 99.16999000000001 473.20996999999994 C 91.79999000000001 467.26996999999994 84.70002000000001 460.88000999999997 77.90998000000002 454.08996999999994 C 73.53004000000001 449.70996999999994 69.32001000000002 445.20001999999994 65.28998000000001 440.5700099999999 L 65.90003000000002 438.0100099999999 L 65.96003000000002 437.7499999999999 L 66.71998000000002 434.48998999999986 C 73.47999000000002 405.9399999999999 96.34998000000002 384.0299699999999 125.15998000000002 378.51000999999985 L 163.44001000000003 371.17998999999986 L 167.97999000000004 370.3199999999999 Z" stroke-linecap="round" />
</g>
		<g transform="matrix(0.22 0 0 0.22 140.27 -53.8)"  >
<path style="stroke: none; stroke-width: 1; stroke-dasharray: none; stroke-linecap: butt; stroke-dashoffset: 0; stroke-linejoin: miter; stroke-miterlimit: 4; fill: rgb(60,185,255); fill-rule: nonzero; opacity: 1;" vector-effect="non-scaling-stroke"  transform=" translate(-384.67, -441.11)" d="M 439.39618 467.22528 C 428.11740000000003 476.827 416.02826 485.52109 403.26795000000004 493.15195 C 402.02424 493.90671 400.7522 494.64646 399.48050000000006 495.38758 C 394.05795000000006 498.51853 388.5371400000001 501.43931000000003 382.9467200000001 504.16492 C 375.6092900000001 507.74219 368.1323000000001 510.97141 360.5434000000001 513.83625 L 359.9561800000001 511.06834 L 329.9496500000001 368.38703999999996 L 333.8350300000001 369.12816 L 372.77247000000006 376.59114 C 401.57691000000005 382.11195 424.45588000000004 404.02594999999997 431.2060900000001 432.5786 L 438.6554300000001 464.123 L 439.39621000000005 467.22529 L 439.3961800000001 467.22529 Z" stroke-linecap="round" />
</g>
		<g transform="matrix(0.22 0 0 0.22 112.3 -81.43)"  >
<path style="stroke: none; stroke-width: 1; stroke-dasharray: none; stroke-linecap: butt; stroke-dashoffset: 0; stroke-linejoin: miter; stroke-miterlimit: 4; fill: rgb(47,46,65); fill-rule: nonzero; opacity: 1;" vector-effect="non-scaling-stroke"  transform=" translate(-257.54, -315.51)" d="M 375.81912 269.67435 C 373.55484 278.11594 362.16449 315.83762 332.99631 323.77558 C 327.26633 325.34107 313.59772 327.14402 317.21762 323.77558 C 318.04199 323.00718 318.83871 322.25242 319.63544 321.5113 C 351.29105000000004 291.74259 364.20493 273.54643 358.30707 233.15508 C 354.56125000000003 207.4386 311.90665 184.08465999999999 287.90955 181.76442 C 277.7909 180.78719 264.87705000000005 184.21024 256.35187 193.02988 C 242.27790000000002 207.56417 244.5978 252.17696999999998 236.79940000000002 278.38208 C 234.70299000000003 285.39739999999995 231.89379000000002 291.09972999999997 227.85451000000003 294.55145 C 225.33875000000003 296.70382 223.73165000000003 293.96457 222.54354000000004 289.4783 C 220.01414000000003 279.9462 219.35731000000004 262.49115 215.76536000000004 267.4237 C 205.38125000000005 281.72186 215.27606000000006 300.67278 218.26713000000004 307.9829 C 218.88198000000003 309.47878 219.51084000000003 310.91731999999996 220.13970000000003 312.28761999999995 L 220.13970000000003 312.30125999999996 C 220.50309000000004 313.08332999999993 220.88047000000003 313.86674999999997 221.24386000000004 314.60783999999995 L 221.24386000000004 314.62147999999996 C 231.22260000000003 334.97002 243.21417000000005 342.25147999999996 253.78015000000005 354.92821 C 257.9310100000001 359.88944999999995 261.85835000000003 365.66136 265.36635000000007 373.37687999999997 C 267.77019000000007 378.66020999999995 269.50322000000006 383.97083999999995 270.69130000000007 389.18318 C 276.7426900000001 415.31868 269.5591600000001 439.06431 267.61629000000005 445.52141 C 263.54940000000005 458.96654 256.56136000000004 482.06798000000003 236.05860000000004 495.10771 C 210.31447000000003 511.48863 186.82099000000005 497.05125 175.58419000000004 512.60643 C 175.44430000000003 512.78795 175.31840000000003 512.96947 175.19282000000004 513.1509900000001 C 174.77346000000003 513.7802 174.39610000000005 514.4093500000001 174.07467000000003 515.03722 C 163.98400000000004 511.3767 154.06088000000003 507.08562000000006 144.51547000000002 502.23629000000005 C 143.22944 501.59344000000004 141.94375000000002 500.9356000000001 140.65806000000003 500.23678000000007 C 139.23248000000004 499.5106800000001 137.82089000000005 498.7422700000001 136.39530000000002 497.94522000000006 C 136.33935000000002 496.85470000000004 136.28338000000002 495.76556000000005 136.24142000000003 494.66138000000007 C 135.41705000000005 475.7514100000001 136.66078000000005 454.96884000000006 141.37086000000002 434.24225000000007 C 144.38957000000002 421.0073300000001 147.38063000000002 407.8829400000001 151.96447000000003 395.2348600000001 C 154.95554000000004 386.98980000000006 158.61707000000004 378.9385600000001 163.43874000000002 371.1821300000001 C 167.29650000000004 364.9488800000001 171.88033000000001 358.89713000000006 177.44277000000002 353.0828600000001 C 189.65816 340.3228800000001 200.51758 334.9986000000001 202.23661 321.5248200000001 C 204.69607000000002 302.2941100000001 184.66862 296.5085200000001 177.44277000000002 267.4235900000001 C 172.50953 247.5363800000001 167.35210000000004 218.8718200000001 172.35564000000002 199.5564800000001 C 177.07972 181.30436000000012 181.1886 165.46938000000011 194.89919000000003 149.95515000000012 C 198.19735000000003 146.23730000000012 225.26912000000004 120.38160000000012 256.63131000000004 116.13283000000013 C 271.08233000000007 114.19065000000013 283.96856 132.69528000000014 301.43862 136.67790000000014 C 321.52202 141.24878000000012 333.02428000000003 143.86246000000014 344.2611 152.45692000000014 C 363.25469 166.96389000000013 368.60726 188.65544000000014 373.56884 208.80880000000013 C 377.45422 224.57417000000012 382.48574 244.96500000000015 375.81911 269.67423000000014 L 375.81914 269.6743500000001 Z" stroke-linecap="round" />
</g>
		<g transform="matrix(0.22 0 0 0.22 114.16 -92.32)"  >
<path style="stroke: none; stroke-width: 1; stroke-dasharray: none; stroke-linecap: butt; stroke-dashoffset: 0; stroke-linejoin: miter; stroke-miterlimit: 4; fill: rgb(63,61,86); fill-rule: nonzero; opacity: 1;" vector-effect="non-scaling-stroke"  transform=" translate(-266, -266)" d="M 454.09003 77.90997 C 403.84998 27.66998 337.04999 0 266 0 C 194.95001000000002 0 128.15002 27.66998 77.90997 77.90997 C 27.66998 128.14996 0 194.95001 0 266 C 0 330.84998 23.04999 392.15997 65.28998 440.57001 C 69.32001 445.20001 73.53003 449.70996 77.90998 454.08997000000005 C 84.70002000000001 460.88001 91.79999000000001 467.26996 99.16999000000001 473.20997000000006 C 99.20002000000001 473.24000000000007 99.21998 473.26002000000005 99.25001000000002 473.2799800000001 C 146.36 511.32997000000006 204.59003 532.0000100000001 266 532.0000100000001 C 337.04999 532.0000100000001 403.84997999999996 504.3299700000001 454.09003 454.0899800000001 C 504.33002 403.8499900000001 532 337.05000000000007 532 266.0000100000001 C 532 194.9500200000001 504.33002 128.14997000000008 454.09003 77.90998000000008 Z M 438.94001000000003 465.29998 C 421.87 480.14996 402.87 492.82995 382.38001 502.92998 C 375.19001000000003 506.47997 367.82001 509.70995 360.28003 512.59996 C 330.98999000000003 523.83995 299.20001 529.99998 266 529.99998 C 233.96002 529.99998 203.23999 524.25999 174.81 513.75999 C 163.14002 509.45994 151.85999 504.34996 141.03003 498.49998 C 139.44 497.63999 137.85999 496.76994 136.28998 495.87998 C 128.03003 491.19999 120.03998000000001 486.08994 112.37000000000002 480.56998 C 95.22999000000002 468.26993 79.62000000000002 453.96994 65.90003000000002 438.00998 C 26.09003 391.76996 2 331.64996 2 266 C 2 120.42999 120.42999 2 266 2 C 411.57001 2 530 120.42999 530 266 C 530 345.47998 494.70001 416.87 438.94 465.29999 Z" stroke-linecap="round" />
</g>
		<g transform="matrix(0.26 0 0 0.26 20.19 8.06)"  >
<polygon style="stroke: none; stroke-width: 1; stroke-dasharray: none; stroke-linecap: butt; stroke-dashoffset: 0; stroke-linejoin: miter; stroke-miterlimit: 4; fill: rgb(47,46,65); fill-rule: nonzero; opacity: 1;" vector-effect="non-scaling-stroke"  points="66.5,90 -66.5,90 -66.5,-90 48.5,-27 66.5,90 " />
</g>
		<g transform="matrix(0.26 0 0 0.26 9.29 0.75)"  >
<circle style="stroke: none; stroke-width: 1; stroke-dasharray: none; stroke-linecap: butt; stroke-dashoffset: 0; stroke-linejoin: miter; stroke-miterlimit: 4; fill: rgb(255,182,182); fill-rule: nonzero; opacity: 1;" vector-effect="non-scaling-stroke"  cx="0" cy="0" r="86.34897" />
</g>
		<g transform="matrix(0.26 0 0 0.26 9.79 39)"  >
<polygon style="stroke: none; stroke-width: 1; stroke-dasharray: none; stroke-linecap: butt; stroke-dashoffset: 0; stroke-linejoin: miter; stroke-miterlimit: 4; fill: rgb(255,182,182); fill-rule: nonzero; opacity: 1;" vector-effect="non-scaling-stroke"  points="-51.5,-48 -55.4,-87.43 22.5,-102 68.5,10 -11.5,102 -68.5,-10 -51.5,-48 " />
</g>
		<g transform="matrix(0.26 0 0 0.26 10.64 48.1)"  >
<path style="stroke: none; stroke-width: 1; stroke-dasharray: none; stroke-linecap: butt; stroke-dashoffset: 0; stroke-linejoin: miter; stroke-miterlimit: 4; fill: rgb(60,185,255); fill-rule: nonzero; opacity: 1;" vector-effect="non-scaling-stroke"  transform=" translate(-275.98, -443.04)" d="M 457.03998 451.08997 C 456.07001 452.09998 455.08002 453.09998 454.09003 454.08997 C 450.95002 457.22998 447.75 460.27997 444.47998 463.23999 C 395.47998 507.67999 332.60998 532 266 532 C 204.59003 532 146.35998999999998 511.32996 99.25 473.27997 C 99.22003 473.25995 99.20001 473.23999 99.16998 473.20995999999997 C 97.73998999999999 472.05999999999995 96.33001 470.88994999999994 94.91998 469.69994999999994 C 95.16998 468.97997999999995 95.44 468.26995999999997 95.71002 467.56994999999995 C 110.85998000000001 428.09997999999996 140.78003 408.78997999999996 158.94 400.33996999999994 C 167.94 396.14996999999994 174.04999 394.61999999999995 174.04999 394.61999999999995 L 195.37 356.21997999999996 L 210.38001 384.21997999999996 L 221.44001 404.85999 L 266.82001 489.52997 L 305.97003 392.04999 L 318.09997 361.82995999999997 L 321.21002 354.08997 L 336 365.59998 L 350 376.48999000000003 L 378.19 382.70996 L 401.06 387.75995 L 432.12 394.62 C 444.68 404.84998 452.32001 424.31 456.59003 448.49 C 456.75 449.34999 456.90003 450.21998 457.03998 451.08998 Z" stroke-linecap="round" />
</g>
		<g transform="matrix(0.26 0 0 0.26 23.12 11.03)"  >
<path style="stroke: none; stroke-width: 1; stroke-dasharray: none; stroke-linecap: butt; stroke-dashoffset: 0; stroke-linejoin: miter; stroke-miterlimit: 4; fill: rgb(47,46,65); fill-rule: nonzero; opacity: 1;" vector-effect="non-scaling-stroke"  transform=" translate(-323.96, -300.46)" d="M 225.33945 162.80316 C 235.85761 145.13518 255.1753 133.01285 275.65937 131.22616 C 296.14344 129.43949 317.26813000000004 138.03432999999998 330.68629000000004 153.61453 C 338.68217000000004 162.89876 343.92491000000007 174.26909 351.71885000000003 183.72346 C 368.49116000000004 204.06896 397.09110000000004 215.96496 404.41798000000006 241.29414 C 407.61525000000006 252.34712 406.0220800000001 264.1474 404.40431000000007 275.53921 C 403.0177100000001 285.30328000000003 401.6310900000001 295.06738 400.24446000000006 304.83145 C 399.1653600000001 312.43008000000003 398.1306000000001 320.44076 400.9798400000001 327.56714 C 404.32261000000005 335.92798 412.32225000000005 341.40402 417.49446000000006 348.77463 C 426.2952700000001 361.31616 425.65190000000007 379.67816 415.99483000000004 391.57297 C 411.80678000000006 396.73145 406.25441 400.62171 401.86367 405.6088 C 397.47293 410.59588999999994 394.21603 417.41443 396.05502 423.79938 C 399.57788 436.03064 418.75964 438.96387 420.86349 451.51727999999997 C 421.93914 457.93546 417.50601 464.34486 411.69769 467.27973 C 405.88937000000004 470.21459999999996 399.05197000000004 470.29983999999996 392.59182000000004 469.51464999999996 C 368.03835000000004 466.53027 345.30477 451.18836 333.35024000000004 429.53504 C 321.39568 407.88169 320.52520000000004 380.46943 331.08181 358.10119999999995 C 339.75216 339.72973999999994 355.867 323.49560999999994 355.69146 303.18170999999995 C 355.59582 292.11490999999995 350.51974 281.77851 345.55611 271.88681999999994 C 335.39687 251.64104999999995 325.2376 231.39528999999993 315.07836 211.14951999999994 C 309.6364 200.30455999999992 303.32090999999997 188.61780999999993 292.11724 183.95890999999995 C 283.45851999999996 180.35827999999995 273.63399 181.75478999999996 264.37282 183.22749999999994 C 255.11165 184.7002099999999 245.30127 186.13371999999993 236.61678 182.59568999999993 C 227.93229000000002 179.05765999999994 221.37034 168.54586999999992 225.50808 160.13058999999993" stroke-linecap="round" />
</g>
		<g transform="matrix(0.26 0 0 0.26 -9.17 11.74)"  >
<path style="stroke: none; stroke-width: 1; stroke-dasharray: none; stroke-linecap: butt; stroke-dashoffset: 0; stroke-linejoin: miter; stroke-miterlimit: 4; fill: rgb(47,46,65); fill-rule: nonzero; opacity: 1;" vector-effect="non-scaling-stroke"  transform=" translate(-199.75, -303.21)" d="M 240.47141 163.72575 C 223.78869 158.23429000000002 205.07435999999998 167.04992000000001 193.78010999999998 180.50016 C 182.48585999999997 193.95042 177.00723999999997 211.20612 171.78811 227.97603999999998 C 168.79859 237.58185999999998 165.80908 247.18767999999997 162.81957 256.79350999999997 C 160.00731 265.82975999999996 157.19507 274.86598999999995 154.38282 283.90223999999995 C 151.07497 294.53092999999996 147.74007 305.82273999999995 150.4548 316.61814999999996 C 152.41742 324.42274999999995 157.46742 331.50938999999994 157.57611 339.55622999999997 C 157.68964 347.96189999999996 152.42564 355.34132999999997 147.81251 362.36890999999997 C 143.1994 369.39649999999995 138.86904 377.74591999999996 141.06694000000002 385.85994 C 144.41000000000003 398.20168 161.56894000000003 404.98557999999997 160.62833 417.73741 C 160.31443000000002 421.99312000000003 157.85343 425.92946 157.89811 430.19649000000004 C 157.95495 435.62563000000006 162.20556 440.31679 167.18551 442.47985000000006 C 172.16548 444.64291000000003 177.76730999999998 444.7603700000001 183.19592 444.6649100000001 C 199.84726 444.37212000000005 216.46849 442.39465000000007 232.72371 438.77245000000005 C 238.97774 437.37886000000003 245.33753000000002 435.6696400000001 250.54338 431.93413000000004 C 255.74923 428.19862 259.63278 422.00966000000005 258.95529 415.63817000000006 C 257.89952999999997 405.70955000000004 247.22438 400.0767400000001 241.83728 391.67012000000005 C 236.54591 383.41289000000006 236.66859 372.9505500000001 234.3869 363.41249000000005 C 231.25108 350.30403000000007 223.50661 338.86000000000007 217.69288 326.70000000000005 C 195.83593 280.9839400000001 203.48716000000002 222.71282000000005 236.40513 184.18891000000005 C 239.31564 180.78275000000005 242.49543000000003 177.35618000000005 243.70970000000003 173.04359000000005 C 244.92396000000002 168.73098000000005 243.35863000000003 163.23632000000006 239.14000000000001 161.72766000000004" stroke-linecap="round" />
</g>
		<g transform="matrix(0.26 0 0 0.26 8.05 2.07)"  >
<path style="stroke: none; stroke-width: 1; stroke-dasharray: none; stroke-linecap: butt; stroke-dashoffset: 0; stroke-linejoin: miter; stroke-miterlimit: 4; fill: rgb(63,61,86); fill-rule: nonzero; opacity: 1;" vector-effect="non-scaling-stroke"  transform=" translate(-266, -266)" d="M 454.09003 77.90997 C 403.84998 27.66998 337.04999 0 266 0 C 194.95001000000002 0 128.15002 27.66998 77.90997 77.90997 C 27.66998 128.14996 0 194.94995 0 266 C 0 330.84998 23.04999 392.15997 65.28998 440.56995 C 69.32001 445.19995 73.53003 449.70996 77.90998 454.08997 C 78.94001 455.12 79.97999 456.14997 81.03004 457.14997 C 83.83003 459.85999 86.68 462.50996 89.58003 465.07995999999997 C 91.34003999999999 466.64997 93.12001 468.19001 94.91999999999999 469.69996 C 96.33003 470.88996 97.74000999999998 472.06001 99.16999999999999 473.20997 C 99.20002999999998 473.24 99.22004999999999 473.25996 99.25001999999999 473.27998 C 146.36001 511.32997 204.59005 532.00001 266.00003 532.00001 C 332.61001999999996 532.00001 395.48001 507.67999999999995 444.48001 463.24 C 447.75003 460.27998 450.95004 457.22999 454.09006 454.08998 C 455.08004999999997 453.09999000000005 456.07004 452.09999000000005 457.04001 451.08998 C 459.74002 448.31001000000003 462.36002 445.47999000000004 464.92001 442.61 C 508.29001 393.88997 532 331.76997 532 266.00001 C 532 194.94995999999998 504.33002 128.14996999999997 454.09003 77.90997999999996 Z M 464.27002 440.11999 C 461.77002 442.95995999999997 459.21002 445.75994 456.59003 448.48999 C 452.51001 452.73999 448.29999000000004 456.85999 443.95002 460.82995999999997 C 442.3 462.34997999999996 440.63000999999997 463.82995999999997 438.94001 465.29999 C 421.86999999999995 480.14997 402.86999999999995 492.82995999999997 382.38000999999997 502.92999 C 375.19001 506.47997999999995 367.82000999999997 509.70995999999997 360.28002999999995 512.59997 C 330.98999 523.83996 299.20000999999996 529.99999 265.99999999999994 529.99999 C 233.96001999999993 529.99999 203.23998999999995 524.25994 174.80999999999995 513.75994 C 163.14001999999994 509.45995000000005 151.85998999999995 504.34997000000004 141.03002999999995 498.49999 C 139.43999999999994 497.63994 137.85998999999995 496.76995000000005 136.28997999999996 495.87993 C 128.03002999999995 491.19994 120.03997999999996 486.08995 112.36999999999996 480.56993 C 106.64001999999996 476.45994 101.08001999999996 472.12993 95.71002999999996 467.56993 C 93.83002999999997 465.97996 91.97003999999995 464.36998 90.14001999999996 462.71995 C 87.15997999999996 460.06993 84.23999999999997 457.33995 81.39001999999996 454.53996 C 75.98999999999997 449.24998 70.83001999999996 443.73997 65.90002999999996 438.00993 C 26.09003 391.76996 2 331.64996 2 266 C 2 120.42999 120.42999 2 266 2 C 411.57001 2 530 120.42999 530 266 C 530 332.65997 505.16998 393.62 464.27002 440.12 Z" stroke-linecap="round" />
</g>
		<g transform="matrix(0.59 0 0 0.59 -142.22 -110.88)"  >
<path style="stroke: rgb(0,0,0); stroke-width: 0; stroke-dasharray: none; stroke-linecap: butt; stroke-dashoffset: 0; stroke-linejoin: miter; stroke-miterlimit: 4; fill: rgb(60,185,255); fill-rule: nonzero; opacity: 1;" vector-effect="non-scaling-stroke"  transform=" translate(-50, -50)" d="M 40.747 13.955 L 59.254000000000005 13.955 C 60.353 13.955 61.242000000000004 14.845 61.242000000000004 15.941 L 61.242000000000004 38.787 L 84.08600000000001 38.787 C 85.18400000000001 38.787 86.07000000000001 39.675 86.07000000000001 40.772999999999996 L 86.07000000000001 59.226 C 86.07000000000001 60.324999999999996 85.183 61.211999999999996 84.08600000000001 61.211999999999996 L 61.242 61.211999999999996 L 61.242 84.05799999999999 C 61.242 85.157 60.352 86.044 59.254 86.044 L 40.747 86.044 C 39.652 86.044 38.762 85.15599999999999 38.762 84.05799999999999 L 38.762 61.213 L 15.915 61.213 C 14.819999999999999 61.213 13.93 60.325 13.93 59.227000000000004 L 13.93 40.773 C 13.93 39.67400000000001 14.82 38.787000000000006 15.915 38.787000000000006 L 38.762 38.787000000000006 L 38.762 15.941 C 38.762 14.845 39.651 13.955 40.747 13.955 z" stroke-linecap="round" />
</g>
		<g transform="matrix(0.66 0 0 0.66 -31.51 -28.54)"  >
<path style="stroke: rgb(0,0,0); stroke-width: 0; stroke-dasharray: none; stroke-linecap: butt; stroke-dashoffset: 0; stroke-linejoin: miter; stroke-miterlimit: 4; fill: rgb(60,185,255); fill-rule: nonzero; opacity: 1;" vector-effect="non-scaling-stroke"  transform=" translate(-50, -50)" d="M 40.747 13.955 L 59.254000000000005 13.955 C 60.353 13.955 61.242000000000004 14.845 61.242000000000004 15.941 L 61.242000000000004 38.787 L 84.08600000000001 38.787 C 85.18400000000001 38.787 86.07000000000001 39.675 86.07000000000001 40.772999999999996 L 86.07000000000001 59.226 C 86.07000000000001 60.324999999999996 85.183 61.211999999999996 84.08600000000001 61.211999999999996 L 61.242 61.211999999999996 L 61.242 84.05799999999999 C 61.242 85.157 60.352 86.044 59.254 86.044 L 40.747 86.044 C 39.652 86.044 38.762 85.15599999999999 38.762 84.05799999999999 L 38.762 61.213 L 15.915 61.213 C 14.819999999999999 61.213 13.93 60.325 13.93 59.227000000000004 L 13.93 40.773 C 13.93 39.67400000000001 14.82 38.787000000000006 15.915 38.787000000000006 L 38.762 38.787000000000006 L 38.762 15.941 C 38.762 14.845 39.651 13.955 40.747 13.955 z" stroke-linecap="round" />
</g>
		<g transform="matrix(0.59 0 0 0.59 158.15 -115.5)"  >
<path style="stroke: rgb(0,0,0); stroke-width: 0; stroke-dasharray: none; stroke-linecap: butt; stroke-dashoffset: 0; stroke-linejoin: miter; stroke-miterlimit: 4; fill: rgb(60,185,255); fill-rule: nonzero; opacity: 1;" vector-effect="non-scaling-stroke"  transform=" translate(-50, -50)" d="M 40.747 13.955 L 59.254000000000005 13.955 C 60.353 13.955 61.242000000000004 14.845 61.242000000000004 15.941 L 61.242000000000004 38.787 L 84.08600000000001 38.787 C 85.18400000000001 38.787 86.07000000000001 39.675 86.07000000000001 40.772999999999996 L 86.07000000000001 59.226 C 86.07000000000001 60.324999999999996 85.183 61.211999999999996 84.08600000000001 61.211999999999996 L 61.242 61.211999999999996 L 61.242 84.05799999999999 C 61.242 85.157 60.352 86.044 59.254 86.044 L 40.747 86.044 C 39.652 86.044 38.762 85.15599999999999 38.762 84.05799999999999 L 38.762 61.213 L 15.915 61.213 C 14.819999999999999 61.213 13.93 60.325 13.93 59.227000000000004 L 13.93 40.773 C 13.93 39.67400000000001 14.82 38.787000000000006 15.915 38.787000000000006 L 38.762 38.787000000000006 L 38.762 15.941 C 38.762 14.845 39.651 13.955 40.747 13.955 z" stroke-linecap="round" />
</g>
		<g transform="matrix(0.65 0 0 0.65 256.41 -32.03)"  >
<path style="stroke: rgb(0,0,0); stroke-width: 0; stroke-dasharray: none; stroke-linecap: butt; stroke-dashoffset: 0; stroke-linejoin: miter; stroke-miterlimit: 4; fill: rgb(60,185,255); fill-rule: nonzero; opacity: 1;" vector-effect="non-scaling-stroke"  transform=" translate(-50, -50)" d="M 40.747 13.955 L 59.254000000000005 13.955 C 60.353 13.955 61.242000000000004 14.845 61.242000000000004 15.941 L 61.242000000000004 38.787 L 84.08600000000001 38.787 C 85.18400000000001 38.787 86.07000000000001 39.675 86.07000000000001 40.772999999999996 L 86.07000000000001 59.226 C 86.07000000000001 60.324999999999996 85.183 61.211999999999996 84.08600000000001 61.211999999999996 L 61.242 61.211999999999996 L 61.242 84.05799999999999 C 61.242 85.157 60.352 86.044 59.254 86.044 L 40.747 86.044 C 39.652 86.044 38.762 85.15599999999999 38.762 84.05799999999999 L 38.762 61.213 L 15.915 61.213 C 14.819999999999999 61.213 13.93 60.325 13.93 59.227000000000004 L 13.93 40.773 C 13.93 39.67400000000001 14.82 38.787000000000006 15.915 38.787000000000006 L 38.762 38.787000000000006 L 38.762 15.941 C 38.762 14.845 39.651 13.955 40.747 13.955 z" stroke-linecap="round" />
</g>
</g>
</g>
</svg>